<svg class="railroad-diagram" width="466" height="110" viewBox="0 0 466 110" role="img" xmlns="http://www.w3.org/2000/svg" version="1.1" xmlns:xlink="http://www.w3.org/1999/xlink"><title>RawCommaOp &#58;&#61; CommaEl &#40;&#34;&#44;&#34; CommaEl&#41;&#42; &#34;&#44;&#34;&#63; &#124; CommaEl</title>
<style><![CDATA[
svg.railroad-diagram {
    background-color: hsl(30,20%,95%);
}
svg.railroad-diagram path {
    stroke-width: 3;
    stroke: black;
    fill: rgba(0,0,0,0);
}
svg.railroad-diagram text {
    font: bold 14px monospace;
    text-anchor: middle;
    white-space: pre;
}
svg.railroad-diagram text.diagram-text {
    font-size: 12px;
}
svg.railroad-diagram text.diagram-arrow {
    font-size: 16px;
}
svg.railroad-diagram text.label {
    text-anchor: start;
}
svg.railroad-diagram text.comment {
    font: italic 12px monospace;
}
svg.railroad-diagram g.non-terminal text {
    /*font-style: italic;*/
}
svg.railroad-diagram rect {
    stroke-width: 3;
    stroke: black;
    fill: hsl(120,100%,90%);
}
svg.railroad-diagram rect.group-box {
    stroke: gray;
    stroke-dasharray: 10 5;
    fill: none;
}
svg.railroad-diagram path.diagram-text {
    stroke-width: 3;
    stroke: black;
    fill: white;
    cursor: help;
}
svg.railroad-diagram g.diagram-text:hover path.diagram-text {
    fill: #eee;
}

]]></style>

<g transform="translate(.5 .5)">
<g>
<path d="M20 69v20m10 -20v20m-10 -10h20"></path>
</g>
<g>
<path d="M40 79h0"></path>
<path d="M426 79h0"></path>
<path d="M40 79a10 10 0 0 0 10 -10v-19a10 10 0 0 1 10 -10"></path>
<g>
<path d="M60 40h0"></path>
<path d="M406 40h0"></path>
<g class="non-terminal">
<path d="M60 40h0"></path>
<path d="M139.5 40h0"></path>
<rect x="60" y="29" width="79.5" height="22"></rect>
<a xlink:href="/reference/syntax/#syntax-for-commael"><text x="99.75" y="44">CommaEl</text>
</a>
</g>
<path d="M139.5 40h10"></path>
<g>
<path d="M149.5 40h0"></path>
<path d="M337.5 40h0"></path>
<path d="M149.5 40a10 10 0 0 0 10 -10v0a10 10 0 0 1 10 -10"></path>
<g>
<path d="M169.5 20h148"></path>
</g>
<path d="M317.5 20a10 10 0 0 1 10 10v0a10 10 0 0 0 10 10"></path>
<path d="M149.5 40h20"></path>
<g>
<path d="M169.5 40h0"></path>
<path d="M317.5 40h0"></path>
<path d="M169.5 40h10"></path>
<g>
<path d="M179.5 40h0"></path>
<path d="M307.5 40h0"></path>
<g class="terminal">
<path d="M179.5 40h0"></path>
<path d="M208 40h0"></path>
<rect x="179.5" y="29" width="28.5" height="22" rx="10" ry="10"></rect>
<text x="193.75" y="44">,</text>
</g>
<path d="M208 40h10"></path>
<path d="M218 40h10"></path>
<g class="non-terminal">
<path d="M228 40h0"></path>
<path d="M307.5 40h0"></path>
<rect x="228" y="29" width="79.5" height="22"></rect>
<a xlink:href="/reference/syntax/#syntax-for-commael"><text x="267.75" y="44">CommaEl</text>
</a>
</g>
</g>
<path d="M307.5 40h10"></path>
<path d="M179.5 40a10 10 0 0 0 -10 10v0a10 10 0 0 0 10 10"></path>
<g>
<path d="M179.5 60h128"></path>
</g>
<path d="M307.5 60a10 10 0 0 0 10 -10v0a10 10 0 0 0 -10 -10"></path>
</g>
<path d="M317.5 40h20"></path>
</g>
<g>
<path d="M337.5 40h0"></path>
<path d="M406 40h0"></path>
<path d="M337.5 40a10 10 0 0 0 10 -10v0a10 10 0 0 1 10 -10"></path>
<g>
<path d="M357.5 20h28.5"></path>
</g>
<path d="M386 20a10 10 0 0 1 10 10v0a10 10 0 0 0 10 10"></path>
<path d="M337.5 40h20"></path>
<g class="terminal">
<path d="M357.5 40h0"></path>
<path d="M386 40h0"></path>
<rect x="357.5" y="29" width="28.5" height="22" rx="10" ry="10"></rect>
<text x="371.75" y="44">,</text>
</g>
<path d="M386 40h20"></path>
</g>
</g>
<path d="M406 40a10 10 0 0 1 10 10v19a10 10 0 0 0 10 10"></path>
<path d="M40 79h20"></path>
<g class="non-terminal">
<path d="M60 79h133.25"></path>
<path d="M272.75 79h133.25"></path>
<rect x="193.25" y="68" width="79.5" height="22"></rect>
<a xlink:href="/reference/syntax/#syntax-for-commael"><text x="233" y="83">CommaEl</text>
</a>
</g>
<path d="M406 79h20"></path>
</g>
<path d="M 426 79 h 20 m -10 -10 v 20 m 10 -20 v 20"></path>
</g>
</svg>
