<svg class="railroad-diagram" width="410.5" height="71" viewBox="0 0 410.5 71" role="img" xmlns="http://www.w3.org/2000/svg" version="1.1" xmlns:xlink="http://www.w3.org/1999/xlink"><title>New &#58;&#61; &#34;new&#34; Type &#34;&#40;&#34; Args&#63; &#34;&#41;&#34;</title>
<style><![CDATA[
svg.railroad-diagram {
    background-color: hsl(30,20%,95%);
}
svg.railroad-diagram path {
    stroke-width: 3;
    stroke: black;
    fill: rgba(0,0,0,0);
}
svg.railroad-diagram text {
    font: bold 14px monospace;
    text-anchor: middle;
    white-space: pre;
}
svg.railroad-diagram text.diagram-text {
    font-size: 12px;
}
svg.railroad-diagram text.diagram-arrow {
    font-size: 16px;
}
svg.railroad-diagram text.label {
    text-anchor: start;
}
svg.railroad-diagram text.comment {
    font: italic 12px monospace;
}
svg.railroad-diagram g.non-terminal text {
    /*font-style: italic;*/
}
svg.railroad-diagram rect {
    stroke-width: 3;
    stroke: black;
    fill: hsl(120,100%,90%);
}
svg.railroad-diagram rect.group-box {
    stroke: gray;
    stroke-dasharray: 10 5;
    fill: none;
}
svg.railroad-diagram path.diagram-text {
    stroke-width: 3;
    stroke: black;
    fill: white;
    cursor: help;
}
svg.railroad-diagram g.diagram-text:hover path.diagram-text {
    fill: #eee;
}

]]></style>

<g transform="translate(.5 .5)">
<g>
<path d="M20 30v20m10 -20v20m-10 -10h20"></path>
</g>
<path d="M40 40h10"></path>
<g>
<path d="M50 40h0"></path>
<path d="M360.5 40h0"></path>
<g class="terminal">
<path d="M50 40h0"></path>
<path d="M95.5 40h0"></path>
<rect x="50" y="29" width="45.5" height="22" rx="10" ry="10"></rect>
<text x="72.75" y="44">new</text>
</g>
<path d="M95.5 40h10"></path>
<path d="M105.5 40h10"></path>
<g class="non-terminal">
<path d="M115.5 40h0"></path>
<path d="M169.5 40h0"></path>
<rect x="115.5" y="29" width="54" height="22"></rect>
<a xlink:href="/reference/syntax/#syntax-for-type"><text x="142.5" y="44">Type</text>
</a>
</g>
<path d="M169.5 40h10"></path>
<path d="M179.5 40h10"></path>
<g class="terminal">
<path d="M189.5 40h0"></path>
<path d="M218 40h0"></path>
<rect x="189.5" y="29" width="28.5" height="22" rx="10" ry="10"></rect>
<text x="203.75" y="44">(</text>
</g>
<path d="M218 40h10"></path>
<g>
<path d="M228 40h0"></path>
<path d="M322 40h0"></path>
<path d="M228 40a10 10 0 0 0 10 -10v0a10 10 0 0 1 10 -10"></path>
<g>
<path d="M248 20h54"></path>
</g>
<path d="M302 20a10 10 0 0 1 10 10v0a10 10 0 0 0 10 10"></path>
<path d="M228 40h20"></path>
<g class="non-terminal">
<path d="M248 40h0"></path>
<path d="M302 40h0"></path>
<rect x="248" y="29" width="54" height="22"></rect>
<a xlink:href="/reference/syntax/#syntax-for-args"><text x="275" y="44">Args</text>
</a>
</g>
<path d="M302 40h20"></path>
</g>
<path d="M322 40h10"></path>
<g class="terminal">
<path d="M332 40h0"></path>
<path d="M360.5 40h0"></path>
<rect x="332" y="29" width="28.5" height="22" rx="10" ry="10"></rect>
<text x="346.25" y="44">)</text>
</g>
</g>
<path d="M360.5 40h10"></path>
<path d="M 370.5 40 h 20 m -10 -10 v 20 m 10 -20 v 20"></path>
</g>
</svg>
