<svg class="railroad-diagram" width="239.5" height="92" viewBox="0 0 239.5 92" role="img" xmlns="http://www.w3.org/2000/svg" version="1.1" xmlns:xlink="http://www.w3.org/1999/xlink"><title>JsonNumber &#58;&#61; &#34;&#45;&#34; Number &#124; Number</title>
<style><![CDATA[
svg.railroad-diagram {
    background-color: hsl(30,20%,95%);
}
svg.railroad-diagram path {
    stroke-width: 3;
    stroke: black;
    fill: rgba(0,0,0,0);
}
svg.railroad-diagram text {
    font: bold 14px monospace;
    text-anchor: middle;
    white-space: pre;
}
svg.railroad-diagram text.diagram-text {
    font-size: 12px;
}
svg.railroad-diagram text.diagram-arrow {
    font-size: 16px;
}
svg.railroad-diagram text.label {
    text-anchor: start;
}
svg.railroad-diagram text.comment {
    font: italic 12px monospace;
}
svg.railroad-diagram g.non-terminal text {
    /*font-style: italic;*/
}
svg.railroad-diagram rect {
    stroke-width: 3;
    stroke: black;
    fill: hsl(120,100%,90%);
}
svg.railroad-diagram rect.group-box {
    stroke: gray;
    stroke-dasharray: 10 5;
    fill: none;
}
svg.railroad-diagram path.diagram-text {
    stroke-width: 3;
    stroke: black;
    fill: white;
    cursor: help;
}
svg.railroad-diagram g.diagram-text:hover path.diagram-text {
    fill: #eee;
}

]]></style>

<g transform="translate(.5 .5)">
<g>
<path d="M20 51v20m10 -20v20m-10 -10h20"></path>
</g>
<g>
<path d="M40 61h0"></path>
<path d="M199.5 61h0"></path>
<path d="M40 61a10 10 0 0 0 10 -10v-10a10 10 0 0 1 10 -10"></path>
<g>
<path d="M60 31h0"></path>
<path d="M179.5 31h0"></path>
<g class="terminal">
<path d="M60 31h0"></path>
<path d="M88.5 31h0"></path>
<rect x="60" y="20" width="28.5" height="22" rx="10" ry="10"></rect>
<text x="74.25" y="35">-</text>
</g>
<path d="M88.5 31h10"></path>
<path d="M98.5 31h10"></path>
<g class="non-terminal">
<path d="M108.5 31h0"></path>
<path d="M179.5 31h0"></path>
<rect x="108.5" y="20" width="71" height="22"></rect>
<text x="144" y="35">Number</text>
</g>
</g>
<path d="M179.5 31a10 10 0 0 1 10 10v10a10 10 0 0 0 10 10"></path>
<path d="M40 61h20"></path>
<g class="non-terminal">
<path d="M60 61h24.25"></path>
<path d="M155.25 61h24.25"></path>
<rect x="84.25" y="50" width="71" height="22"></rect>
<text x="119.75" y="65">Number</text>
</g>
<path d="M179.5 61h20"></path>
</g>
<path d="M 199.5 61 h 20 m -10 -10 v 20 m 10 -20 v 20"></path>
</g>
</svg>
