<svg class="railroad-diagram" width="444" height="101" viewBox="0 0 444 101" role="img" xmlns="http://www.w3.org/2000/svg" version="1.1" xmlns:xlink="http://www.w3.org/1999/xlink"><title>DecoratedLet &#58;&#61; DecoratedLetBody &#40;&#34;&#44;&#34; LetRest&#41;&#43; &#124; DecoratedLetBody</title>
<style><![CDATA[
svg.railroad-diagram {
    background-color: hsl(30,20%,95%);
}
svg.railroad-diagram path {
    stroke-width: 3;
    stroke: black;
    fill: rgba(0,0,0,0);
}
svg.railroad-diagram text {
    font: bold 14px monospace;
    text-anchor: middle;
    white-space: pre;
}
svg.railroad-diagram text.diagram-text {
    font-size: 12px;
}
svg.railroad-diagram text.diagram-arrow {
    font-size: 16px;
}
svg.railroad-diagram text.label {
    text-anchor: start;
}
svg.railroad-diagram text.comment {
    font: italic 12px monospace;
}
svg.railroad-diagram g.non-terminal text {
    /*font-style: italic;*/
}
svg.railroad-diagram rect {
    stroke-width: 3;
    stroke: black;
    fill: hsl(120,100%,90%);
}
svg.railroad-diagram rect.group-box {
    stroke: gray;
    stroke-dasharray: 10 5;
    fill: none;
}
svg.railroad-diagram path.diagram-text {
    stroke-width: 3;
    stroke: black;
    fill: white;
    cursor: help;
}
svg.railroad-diagram g.diagram-text:hover path.diagram-text {
    fill: #eee;
}

]]></style>

<g transform="translate(.5 .5)">
<g>
<path d="M20 60v20m10 -20v20m-10 -10h20"></path>
</g>
<g>
<path d="M40 70h0"></path>
<path d="M404 70h0"></path>
<path d="M40 70a10 10 0 0 0 10 -10v-19a10 10 0 0 1 10 -10"></path>
<g>
<path d="M60 31h0"></path>
<path d="M384 31h0"></path>
<g class="non-terminal">
<path d="M60 31h0"></path>
<path d="M216 31h0"></path>
<rect x="60" y="20" width="156" height="22"></rect>
<a xlink:href="/reference/syntax/#syntax-for-decoratedletbody"><text x="138" y="35">DecoratedLetBody</text>
</a>
</g>
<path d="M216 31h10"></path>
<path d="M226 31h10"></path>
<g>
<path d="M236 31h0"></path>
<path d="M384 31h0"></path>
<path d="M236 31h10"></path>
<g>
<path d="M246 31h0"></path>
<path d="M374 31h0"></path>
<g class="terminal">
<path d="M246 31h0"></path>
<path d="M274.5 31h0"></path>
<rect x="246" y="20" width="28.5" height="22" rx="10" ry="10"></rect>
<text x="260.25" y="35">,</text>
</g>
<path d="M274.5 31h10"></path>
<path d="M284.5 31h10"></path>
<g class="non-terminal">
<path d="M294.5 31h0"></path>
<path d="M374 31h0"></path>
<rect x="294.5" y="20" width="79.5" height="22"></rect>
<a xlink:href="/reference/syntax/#syntax-for-letrest"><text x="334.25" y="35">LetRest</text>
</a>
</g>
</g>
<path d="M374 31h10"></path>
<path d="M246 31a10 10 0 0 0 -10 10v0a10 10 0 0 0 10 10"></path>
<g>
<path d="M246 51h128"></path>
</g>
<path d="M374 51a10 10 0 0 0 10 -10v0a10 10 0 0 0 -10 -10"></path>
</g>
</g>
<path d="M384 31a10 10 0 0 1 10 10v19a10 10 0 0 0 10 10"></path>
<path d="M40 70h20"></path>
<g class="non-terminal">
<path d="M60 70h84"></path>
<path d="M300 70h84"></path>
<rect x="144" y="59" width="156" height="22"></rect>
<a xlink:href="/reference/syntax/#syntax-for-decoratedletbody"><text x="222" y="74">DecoratedLetBody</text>
</a>
</g>
<path d="M384 70h20"></path>
</g>
<path d="M 404 70 h 20 m -10 -10 v 20 m 10 -20 v 20"></path>
</g>
</svg>
