<svg class="railroad-diagram" width="610.5" height="122" viewBox="0 0 610.5 122" role="img" xmlns="http://www.w3.org/2000/svg" version="1.1" xmlns:xlink="http://www.w3.org/1999/xlink"><title>DecoratedTopLevel &#58;&#61; DecoratedLet &#124; &#34;&#64;&#34; &#40;Expr TopLevelNoGarbageNoComment &#124; Expr &#34;&#40;&#34; TopLevelNoGarbageNoComment &#34;&#41;&#34;&#41;</title>
<style><![CDATA[
svg.railroad-diagram {
    background-color: hsl(30,20%,95%);
}
svg.railroad-diagram path {
    stroke-width: 3;
    stroke: black;
    fill: rgba(0,0,0,0);
}
svg.railroad-diagram text {
    font: bold 14px monospace;
    text-anchor: middle;
    white-space: pre;
}
svg.railroad-diagram text.diagram-text {
    font-size: 12px;
}
svg.railroad-diagram text.diagram-arrow {
    font-size: 16px;
}
svg.railroad-diagram text.label {
    text-anchor: start;
}
svg.railroad-diagram text.comment {
    font: italic 12px monospace;
}
svg.railroad-diagram g.non-terminal text {
    /*font-style: italic;*/
}
svg.railroad-diagram rect {
    stroke-width: 3;
    stroke: black;
    fill: hsl(120,100%,90%);
}
svg.railroad-diagram rect.group-box {
    stroke: gray;
    stroke-dasharray: 10 5;
    fill: none;
}
svg.railroad-diagram path.diagram-text {
    stroke-width: 3;
    stroke: black;
    fill: white;
    cursor: help;
}
svg.railroad-diagram g.diagram-text:hover path.diagram-text {
    fill: #eee;
}

]]></style>

<g transform="translate(.5 .5)">
<g>
<path d="M20 81v20m10 -20v20m-10 -10h20"></path>
</g>
<g>
<path d="M40 91h0"></path>
<path d="M570.5 91h0"></path>
<path d="M40 91a10 10 0 0 0 10 -10v-40a10 10 0 0 1 10 -10"></path>
<g class="non-terminal">
<path d="M60 31h184.25"></path>
<path d="M366.25 31h184.25"></path>
<rect x="244.25" y="20" width="122" height="22"></rect>
<a xlink:href="/reference/syntax/#syntax-for-decoratedlet"><text x="305.25" y="35">DecoratedLet</text>
</a>
</g>
<path d="M550.5 31a10 10 0 0 1 10 10v40a10 10 0 0 0 10 10"></path>
<path d="M40 91h20"></path>
<g>
<path d="M60 91h0"></path>
<path d="M550.5 91h0"></path>
<g class="terminal">
<path d="M60 91h0"></path>
<path d="M88.5 91h0"></path>
<rect x="60" y="80" width="28.5" height="22" rx="10" ry="10"></rect>
<text x="74.25" y="95">@</text>
</g>
<path d="M88.5 91h10"></path>
<g>
<path d="M98.5 91h0"></path>
<path d="M550.5 91h0"></path>
<path d="M98.5 91a10 10 0 0 0 10 -10v-10a10 10 0 0 1 10 -10"></path>
<g>
<path d="M118.5 61h48.5"></path>
<path d="M482 61h48.5"></path>
<g class="non-terminal">
<path d="M167 61h0"></path>
<path d="M221 61h0"></path>
<rect x="167" y="50" width="54" height="22"></rect>
<a xlink:href="/reference/syntax/#syntax-for-expr"><text x="194" y="65">Expr</text>
</a>
</g>
<path d="M221 61h10"></path>
<path d="M231 61h10"></path>
<g class="non-terminal">
<path d="M241 61h0"></path>
<path d="M482 61h0"></path>
<rect x="241" y="50" width="241" height="22"></rect>
<a xlink:href="/reference/syntax/#syntax-for-toplevelnogarbagenocomment"><text x="361.5" y="65">TopLevelNoGarbageNoComment</text>
</a>
</g>
</g>
<path d="M530.5 61a10 10 0 0 1 10 10v10a10 10 0 0 0 10 10"></path>
<path d="M98.5 91h20"></path>
<g>
<path d="M118.5 91h0"></path>
<path d="M530.5 91h0"></path>
<g class="non-terminal">
<path d="M118.5 91h0"></path>
<path d="M172.5 91h0"></path>
<rect x="118.5" y="80" width="54" height="22"></rect>
<a xlink:href="/reference/syntax/#syntax-for-expr"><text x="145.5" y="95">Expr</text>
</a>
</g>
<path d="M172.5 91h10"></path>
<path d="M182.5 91h10"></path>
<g class="terminal">
<path d="M192.5 91h0"></path>
<path d="M221 91h0"></path>
<rect x="192.5" y="80" width="28.5" height="22" rx="10" ry="10"></rect>
<text x="206.75" y="95">(</text>
</g>
<path d="M221 91h10"></path>
<path d="M231 91h10"></path>
<g class="non-terminal">
<path d="M241 91h0"></path>
<path d="M482 91h0"></path>
<rect x="241" y="80" width="241" height="22"></rect>
<a xlink:href="/reference/syntax/#syntax-for-toplevelnogarbagenocomment"><text x="361.5" y="95">TopLevelNoGarbageNoComment</text>
</a>
</g>
<path d="M482 91h10"></path>
<path d="M492 91h10"></path>
<g class="terminal">
<path d="M502 91h0"></path>
<path d="M530.5 91h0"></path>
<rect x="502" y="80" width="28.5" height="22" rx="10" ry="10"></rect>
<text x="516.25" y="95">)</text>
</g>
</g>
<path d="M530.5 91h20"></path>
</g>
</g>
<path d="M550.5 91h20"></path>
</g>
<path d="M 570.5 91 h 20 m -10 -10 v 20 m 10 -20 v 20"></path>
</g>
</svg>
