<svg class="railroad-diagram" width="376" height="94" viewBox="0 0 376 94" role="img" xmlns="http://www.w3.org/2000/svg" version="1.1" xmlns:xlink="http://www.w3.org/1999/xlink"><title>PrefixOp &#58;&#61; &#40;Prefix operators but not &#96;new&#96;&#44; &#96;case&#96;&#58; PrefixOperators&#41;</title>
<style><![CDATA[
svg.railroad-diagram {
    background-color: hsl(30,20%,95%);
}
svg.railroad-diagram path {
    stroke-width: 3;
    stroke: black;
    fill: rgba(0,0,0,0);
}
svg.railroad-diagram text {
    font: bold 14px monospace;
    text-anchor: middle;
    white-space: pre;
}
svg.railroad-diagram text.diagram-text {
    font-size: 12px;
}
svg.railroad-diagram text.diagram-arrow {
    font-size: 16px;
}
svg.railroad-diagram text.label {
    text-anchor: start;
}
svg.railroad-diagram text.comment {
    font: italic 12px monospace;
}
svg.railroad-diagram g.non-terminal text {
    /*font-style: italic;*/
}
svg.railroad-diagram rect {
    stroke-width: 3;
    stroke: black;
    fill: hsl(120,100%,90%);
}
svg.railroad-diagram rect.group-box {
    stroke: gray;
    stroke-dasharray: 10 5;
    fill: none;
}
svg.railroad-diagram path.diagram-text {
    stroke-width: 3;
    stroke: black;
    fill: white;
    cursor: help;
}
svg.railroad-diagram g.diagram-text:hover path.diagram-text {
    fill: #eee;
}

]]></style>

<g transform="translate(.5 .5)">
<g>
<path d="M20 45v20m10 -20v20m-10 -10h20"></path>
</g>
<path d="M40 55h10"></path>
<g>
<path d="M50 55h0"></path>
<path d="M326 55h0"></path>
<rect x="50" y="36" width="276" height="38" rx="10" ry="10" class="group-box"></rect>
<g class="non-terminal">
<path d="M50 55h64.25"></path>
<path d="M261.75 55h64.25"></path>
<rect x="114.25" y="44" width="147.5" height="22"></rect>
<text x="188" y="59">PrefixOperators</text>
</g>
<g>
<path d="M50 28h0"></path>
<path d="M326 28h0"></path>
<text x="188" y="33" class="comment">Prefix operators but not &#96;new&#96;, &#96;case&#96;</text>
</g>
</g>
<path d="M326 55h10"></path>
<path d="M 336 55 h 20 m -10 -10 v 20 m 10 -20 v 20"></path>
</g>
</svg>
