<svg class="railroad-diagram" width="307.5" height="182" viewBox="0 0 307.5 182" role="img" xmlns="http://www.w3.org/2000/svg" version="1.1" xmlns:xlink="http://www.w3.org/1999/xlink"><title>LetRest &#58;&#61; DeclName &#124; DeclMulti &#124; DeclMultiNamed &#124; LetRest DeclInit &#124; LetRest DeclType</title>
<style><![CDATA[
svg.railroad-diagram {
    background-color: hsl(30,20%,95%);
}
svg.railroad-diagram path {
    stroke-width: 3;
    stroke: black;
    fill: rgba(0,0,0,0);
}
svg.railroad-diagram text {
    font: bold 14px monospace;
    text-anchor: middle;
    white-space: pre;
}
svg.railroad-diagram text.diagram-text {
    font-size: 12px;
}
svg.railroad-diagram text.diagram-arrow {
    font-size: 16px;
}
svg.railroad-diagram text.label {
    text-anchor: start;
}
svg.railroad-diagram text.comment {
    font: italic 12px monospace;
}
svg.railroad-diagram g.non-terminal text {
    /*font-style: italic;*/
}
svg.railroad-diagram rect {
    stroke-width: 3;
    stroke: black;
    fill: hsl(120,100%,90%);
}
svg.railroad-diagram rect.group-box {
    stroke: gray;
    stroke-dasharray: 10 5;
    fill: none;
}
svg.railroad-diagram path.diagram-text {
    stroke-width: 3;
    stroke: black;
    fill: white;
    cursor: help;
}
svg.railroad-diagram g.diagram-text:hover path.diagram-text {
    fill: #eee;
}

]]></style>

<g transform="translate(.5 .5)">
<g>
<path d="M20 81v20m10 -20v20m-10 -10h20"></path>
</g>
<g>
<path d="M40 91h0"></path>
<path d="M267.5 91h0"></path>
<path d="M40 91a10 10 0 0 0 10 -10v-10a10 10 0 0 1 10 -10"></path>
<g class="non-terminal">
<path d="M60 61h45.5"></path>
<path d="M202 61h45.5"></path>
<rect x="105.5" y="50" width="96.5" height="22"></rect>
<a xlink:href="/reference/syntax/#syntax-for-declmulti"><text x="153.75" y="65">DeclMulti</text>
</a>
</g>
<path d="M247.5 61a10 10 0 0 1 10 10v10a10 10 0 0 0 10 10"></path>
<path d="M40 91a10 10 0 0 0 10 -10v-40a10 10 0 0 1 10 -10"></path>
<g class="non-terminal">
<path d="M60 31h49.75"></path>
<path d="M197.75 31h49.75"></path>
<rect x="109.75" y="20" width="88" height="22"></rect>
<a xlink:href="/reference/syntax/#syntax-for-declname"><text x="153.75" y="35">DeclName</text>
</a>
</g>
<path d="M247.5 31a10 10 0 0 1 10 10v40a10 10 0 0 0 10 10"></path>
<path d="M40 91h20"></path>
<g class="non-terminal">
<path d="M60 91h24.25"></path>
<path d="M223.25 91h24.25"></path>
<rect x="84.25" y="80" width="139" height="22"></rect>
<a xlink:href="/reference/syntax/#syntax-for-declmultinamed"><text x="153.75" y="95">DeclMultiNamed</text>
</a>
</g>
<path d="M247.5 91h20"></path>
<path d="M40 91a10 10 0 0 1 10 10v10a10 10 0 0 0 10 10"></path>
<g>
<path d="M60 121h0"></path>
<path d="M247.5 121h0"></path>
<g class="non-terminal">
<path d="M60 121h0"></path>
<path d="M139.5 121h0"></path>
<rect x="60" y="110" width="79.5" height="22"></rect>
<a xlink:href="/reference/syntax/#syntax-for-letrest"><text x="99.75" y="125">LetRest</text>
</a>
</g>
<path d="M139.5 121h10"></path>
<path d="M149.5 121h10"></path>
<g class="non-terminal">
<path d="M159.5 121h0"></path>
<path d="M247.5 121h0"></path>
<rect x="159.5" y="110" width="88" height="22"></rect>
<a xlink:href="/reference/syntax/#syntax-for-declinit"><text x="203.5" y="125">DeclInit</text>
</a>
</g>
</g>
<path d="M247.5 121a10 10 0 0 0 10 -10v-10a10 10 0 0 1 10 -10"></path>
<path d="M40 91a10 10 0 0 1 10 10v40a10 10 0 0 0 10 10"></path>
<g>
<path d="M60 151h0"></path>
<path d="M247.5 151h0"></path>
<g class="non-terminal">
<path d="M60 151h0"></path>
<path d="M139.5 151h0"></path>
<rect x="60" y="140" width="79.5" height="22"></rect>
<a xlink:href="/reference/syntax/#syntax-for-letrest"><text x="99.75" y="155">LetRest</text>
</a>
</g>
<path d="M139.5 151h10"></path>
<path d="M149.5 151h10"></path>
<g class="non-terminal">
<path d="M159.5 151h0"></path>
<path d="M247.5 151h0"></path>
<rect x="159.5" y="140" width="88" height="22"></rect>
<a xlink:href="/reference/syntax/#syntax-for-decltype"><text x="203.5" y="155">DeclType</text>
</a>
</g>
</g>
<path d="M247.5 151a10 10 0 0 0 10 -10v-40a10 10 0 0 1 10 -10"></path>
</g>
<path d="M 267.5 91 h 20 m -10 -10 v 20 m 10 -20 v 20"></path>
</g>
</svg>
