<svg class="railroad-diagram" width="341.5" height="122" viewBox="0 0 341.5 122" role="img" xmlns="http://www.w3.org/2000/svg" version="1.1" xmlns:xlink="http://www.w3.org/1999/xlink"><title>Callee &#58;&#61; Id UnreservedWord &#124; Callee TypeArguments &#124; Expr</title>
<style><![CDATA[
svg.railroad-diagram {
    background-color: hsl(30,20%,95%);
}
svg.railroad-diagram path {
    stroke-width: 3;
    stroke: black;
    fill: rgba(0,0,0,0);
}
svg.railroad-diagram text {
    font: bold 14px monospace;
    text-anchor: middle;
    white-space: pre;
}
svg.railroad-diagram text.diagram-text {
    font-size: 12px;
}
svg.railroad-diagram text.diagram-arrow {
    font-size: 16px;
}
svg.railroad-diagram text.label {
    text-anchor: start;
}
svg.railroad-diagram text.comment {
    font: italic 12px monospace;
}
svg.railroad-diagram g.non-terminal text {
    /*font-style: italic;*/
}
svg.railroad-diagram rect {
    stroke-width: 3;
    stroke: black;
    fill: hsl(120,100%,90%);
}
svg.railroad-diagram rect.group-box {
    stroke: gray;
    stroke-dasharray: 10 5;
    fill: none;
}
svg.railroad-diagram path.diagram-text {
    stroke-width: 3;
    stroke: black;
    fill: white;
    cursor: help;
}
svg.railroad-diagram g.diagram-text:hover path.diagram-text {
    fill: #eee;
}

]]></style>

<g transform="translate(.5 .5)">
<g>
<path d="M20 51v20m10 -20v20m-10 -10h20"></path>
</g>
<g>
<path d="M40 61h0"></path>
<path d="M301.5 61h0"></path>
<path d="M40 61a10 10 0 0 0 10 -10v-10a10 10 0 0 1 10 -10"></path>
<g>
<path d="M60 31h12.75"></path>
<path d="M268.75 31h12.75"></path>
<g class="non-terminal">
<path d="M72.75 31h0"></path>
<path d="M109.75 31h0"></path>
<rect x="72.75" y="20" width="37" height="22"></rect>
<a xlink:href="/reference/syntax/#syntax-for-id"><text x="91.25" y="35">Id</text>
</a>
</g>
<path d="M109.75 31h10"></path>
<path d="M119.75 31h10"></path>
<g class="non-terminal">
<path d="M129.75 31h0"></path>
<path d="M268.75 31h0"></path>
<rect x="129.75" y="20" width="139" height="22"></rect>
<text x="199.25" y="35">UnreservedWord</text>
</g>
</g>
<path d="M281.5 31a10 10 0 0 1 10 10v10a10 10 0 0 0 10 10"></path>
<path d="M40 61h20"></path>
<g>
<path d="M60 61h0"></path>
<path d="M281.5 61h0"></path>
<g class="non-terminal">
<path d="M60 61h0"></path>
<path d="M131 61h0"></path>
<rect x="60" y="50" width="71" height="22"></rect>
<a xlink:href="/reference/syntax/#syntax-for-callee"><text x="95.5" y="65">Callee</text>
</a>
</g>
<path d="M131 61h10"></path>
<path d="M141 61h10"></path>
<g class="non-terminal">
<path d="M151 61h0"></path>
<path d="M281.5 61h0"></path>
<rect x="151" y="50" width="130.5" height="22"></rect>
<a xlink:href="/reference/syntax/#syntax-for-typearguments"><text x="216.25" y="65">TypeArguments</text>
</a>
</g>
</g>
<path d="M281.5 61h20"></path>
<path d="M40 61a10 10 0 0 1 10 10v10a10 10 0 0 0 10 10"></path>
<g class="non-terminal">
<path d="M60 91h83.75"></path>
<path d="M197.75 91h83.75"></path>
<rect x="143.75" y="80" width="54" height="22"></rect>
<a xlink:href="/reference/syntax/#syntax-for-expr"><text x="170.75" y="95">Expr</text>
</a>
</g>
<path d="M281.5 91a10 10 0 0 0 10 -10v-10a10 10 0 0 1 10 -10"></path>
</g>
<path d="M 301.5 61 h 20 m -10 -10 v 20 m 10 -20 v 20"></path>
</g>
</svg>
