<svg class="railroad-diagram" width="259.5" height="62" viewBox="0 0 259.5 62" role="img" xmlns="http://www.w3.org/2000/svg" version="1.1" xmlns:xlink="http://www.w3.org/1999/xlink"><title>QuasiAst &#58;&#61; &#34;&#92;&#92;&#40;&#34; Expr &#34;&#41;&#34;</title>
<style><![CDATA[
svg.railroad-diagram {
    background-color: hsl(30,20%,95%);
}
svg.railroad-diagram path {
    stroke-width: 3;
    stroke: black;
    fill: rgba(0,0,0,0);
}
svg.railroad-diagram text {
    font: bold 14px monospace;
    text-anchor: middle;
    white-space: pre;
}
svg.railroad-diagram text.diagram-text {
    font-size: 12px;
}
svg.railroad-diagram text.diagram-arrow {
    font-size: 16px;
}
svg.railroad-diagram text.label {
    text-anchor: start;
}
svg.railroad-diagram text.comment {
    font: italic 12px monospace;
}
svg.railroad-diagram g.non-terminal text {
    /*font-style: italic;*/
}
svg.railroad-diagram rect {
    stroke-width: 3;
    stroke: black;
    fill: hsl(120,100%,90%);
}
svg.railroad-diagram rect.group-box {
    stroke: gray;
    stroke-dasharray: 10 5;
    fill: none;
}
svg.railroad-diagram path.diagram-text {
    stroke-width: 3;
    stroke: black;
    fill: white;
    cursor: help;
}
svg.railroad-diagram g.diagram-text:hover path.diagram-text {
    fill: #eee;
}

]]></style>

<g transform="translate(.5 .5)">
<g>
<path d="M20 21v20m10 -20v20m-10 -10h20"></path>
</g>
<path d="M40 31h10"></path>
<g>
<path d="M50 31h0"></path>
<path d="M209.5 31h0"></path>
<g class="terminal">
<path d="M50 31h0"></path>
<path d="M87 31h0"></path>
<rect x="50" y="20" width="37" height="22" rx="10" ry="10"></rect>
<text x="68.5" y="35">\(</text>
</g>
<path d="M87 31h10"></path>
<path d="M97 31h10"></path>
<g class="non-terminal">
<path d="M107 31h0"></path>
<path d="M161 31h0"></path>
<rect x="107" y="20" width="54" height="22"></rect>
<a xlink:href="/reference/syntax/#syntax-for-expr"><text x="134" y="35">Expr</text>
</a>
</g>
<path d="M161 31h10"></path>
<path d="M171 31h10"></path>
<g class="terminal">
<path d="M181 31h0"></path>
<path d="M209.5 31h0"></path>
<rect x="181" y="20" width="28.5" height="22" rx="10" ry="10"></rect>
<text x="195.25" y="35">)</text>
</g>
</g>
<path d="M209.5 31h10"></path>
<path d="M 219.5 31 h 20 m -10 -10 v 20 m 10 -20 v 20"></path>
</g>
</svg>
