<svg class="railroad-diagram" width="381.5" height="92" viewBox="0 0 381.5 92" role="img" xmlns="http://www.w3.org/2000/svg" version="1.1" xmlns:xlink="http://www.w3.org/1999/xlink"><title>Jump &#58;&#61; &#40;&#34;break&#34; &#124; &#34;continue&#34;&#41; LabelOrHole&#63;</title>
<style><![CDATA[
svg.railroad-diagram {
    background-color: hsl(30,20%,95%);
}
svg.railroad-diagram path {
    stroke-width: 3;
    stroke: black;
    fill: rgba(0,0,0,0);
}
svg.railroad-diagram text {
    font: bold 14px monospace;
    text-anchor: middle;
    white-space: pre;
}
svg.railroad-diagram text.diagram-text {
    font-size: 12px;
}
svg.railroad-diagram text.diagram-arrow {
    font-size: 16px;
}
svg.railroad-diagram text.label {
    text-anchor: start;
}
svg.railroad-diagram text.comment {
    font: italic 12px monospace;
}
svg.railroad-diagram g.non-terminal text {
    /*font-style: italic;*/
}
svg.railroad-diagram rect {
    stroke-width: 3;
    stroke: black;
    fill: hsl(120,100%,90%);
}
svg.railroad-diagram rect.group-box {
    stroke: gray;
    stroke-dasharray: 10 5;
    fill: none;
}
svg.railroad-diagram path.diagram-text {
    stroke-width: 3;
    stroke: black;
    fill: white;
    cursor: help;
}
svg.railroad-diagram g.diagram-text:hover path.diagram-text {
    fill: #eee;
}

]]></style>

<g transform="translate(.5 .5)">
<g>
<path d="M20 51v20m10 -20v20m-10 -10h20"></path>
</g>
<path d="M40 61h10"></path>
<g>
<path d="M50 61h0"></path>
<path d="M331.5 61h0"></path>
<g>
<path d="M50 61h0"></path>
<path d="M178 61h0"></path>
<path d="M50 61a10 10 0 0 0 10 -10v-10a10 10 0 0 1 10 -10"></path>
<g class="terminal">
<path d="M70 31h12.75"></path>
<path d="M145.25 31h12.75"></path>
<rect x="82.75" y="20" width="62.5" height="22" rx="10" ry="10"></rect>
<text x="114" y="35">break</text>
</g>
<path d="M158 31a10 10 0 0 1 10 10v10a10 10 0 0 0 10 10"></path>
<path d="M50 61h20"></path>
<g class="terminal">
<path d="M70 61h0"></path>
<path d="M158 61h0"></path>
<rect x="70" y="50" width="88" height="22" rx="10" ry="10"></rect>
<text x="114" y="65">continue</text>
</g>
<path d="M158 61h20"></path>
</g>
<g>
<path d="M178 61h0"></path>
<path d="M331.5 61h0"></path>
<path d="M178 61a10 10 0 0 0 10 -10v0a10 10 0 0 1 10 -10"></path>
<g>
<path d="M198 41h113.5"></path>
</g>
<path d="M311.5 41a10 10 0 0 1 10 10v0a10 10 0 0 0 10 10"></path>
<path d="M178 61h20"></path>
<g class="non-terminal">
<path d="M198 61h0"></path>
<path d="M311.5 61h0"></path>
<rect x="198" y="50" width="113.5" height="22"></rect>
<a xlink:href="/reference/syntax/#syntax-for-labelorhole"><text x="254.75" y="65">LabelOrHole</text>
</a>
</g>
<path d="M311.5 61h20"></path>
</g>
</g>
<path d="M331.5 61h10"></path>
<path d="M 341.5 61 h 20 m -10 -10 v 20 m 10 -20 v 20"></path>
</g>
</svg>
