<svg class="railroad-diagram" width="514" height="80" viewBox="0 0 514 80" role="img" xmlns="http://www.w3.org/2000/svg" version="1.1" xmlns:xlink="http://www.w3.org/1999/xlink"><title>StringGroup &#58;&#61; &#34;&#40;&#34; &#47;&#94;&#34;&#43;&#124;&#92;&#36;&#47; StringPart&#42; &#47;&#94;&#34;&#43;&#124;&#92;&#36;&#47; &#34;&#41;&#34;</title>
<style><![CDATA[
svg.railroad-diagram {
    background-color: hsl(30,20%,95%);
}
svg.railroad-diagram path {
    stroke-width: 3;
    stroke: black;
    fill: rgba(0,0,0,0);
}
svg.railroad-diagram text {
    font: bold 14px monospace;
    text-anchor: middle;
    white-space: pre;
}
svg.railroad-diagram text.diagram-text {
    font-size: 12px;
}
svg.railroad-diagram text.diagram-arrow {
    font-size: 16px;
}
svg.railroad-diagram text.label {
    text-anchor: start;
}
svg.railroad-diagram text.comment {
    font: italic 12px monospace;
}
svg.railroad-diagram g.non-terminal text {
    /*font-style: italic;*/
}
svg.railroad-diagram rect {
    stroke-width: 3;
    stroke: black;
    fill: hsl(120,100%,90%);
}
svg.railroad-diagram rect.group-box {
    stroke: gray;
    stroke-dasharray: 10 5;
    fill: none;
}
svg.railroad-diagram path.diagram-text {
    stroke-width: 3;
    stroke: black;
    fill: white;
    cursor: help;
}
svg.railroad-diagram g.diagram-text:hover path.diagram-text {
    fill: #eee;
}

]]></style>

<g transform="translate(.5 .5)">
<g>
<path d="M20 30v20m10 -20v20m-10 -10h20"></path>
</g>
<path d="M40 40h10"></path>
<g>
<path d="M50 40h0"></path>
<path d="M464 40h0"></path>
<g class="terminal">
<path d="M50 40h0"></path>
<path d="M78.5 40h0"></path>
<rect x="50" y="29" width="28.5" height="22" rx="10" ry="10"></rect>
<text x="64.25" y="44">(</text>
</g>
<path d="M78.5 40h10"></path>
<path d="M88.5 40h10"></path>
<g>
<path d="M98.5 40h0"></path>
<path d="M164.5 40h0"></path>
<text x="131.5" y="45" class="comment">/^"+|'$/</text>
</g>
<path d="M164.5 40h10"></path>
<g>
<path d="M174.5 40h0"></path>
<path d="M339.5 40h0"></path>
<path d="M174.5 40a10 10 0 0 0 10 -10v0a10 10 0 0 1 10 -10"></path>
<g>
<path d="M194.5 20h125"></path>
</g>
<path d="M319.5 20a10 10 0 0 1 10 10v0a10 10 0 0 0 10 10"></path>
<path d="M174.5 40h20"></path>
<g>
<path d="M194.5 40h0"></path>
<path d="M319.5 40h0"></path>
<path d="M194.5 40h10"></path>
<g class="non-terminal">
<path d="M204.5 40h0"></path>
<path d="M309.5 40h0"></path>
<rect x="204.5" y="29" width="105" height="22"></rect>
<a xlink:href="/reference/syntax/#syntax-for-stringpart"><text x="257" y="44">StringPart</text>
</a>
</g>
<path d="M309.5 40h10"></path>
<path d="M204.5 40a10 10 0 0 0 -10 10v0a10 10 0 0 0 10 10"></path>
<g>
<path d="M204.5 60h105"></path>
</g>
<path d="M309.5 60a10 10 0 0 0 10 -10v0a10 10 0 0 0 -10 -10"></path>
</g>
<path d="M319.5 40h20"></path>
</g>
<path d="M339.5 40h10"></path>
<g>
<path d="M349.5 40h0"></path>
<path d="M415.5 40h0"></path>
<text x="382.5" y="45" class="comment">/^"+|'$/</text>
</g>
<path d="M415.5 40h10"></path>
<path d="M425.5 40h10"></path>
<g class="terminal">
<path d="M435.5 40h0"></path>
<path d="M464 40h0"></path>
<rect x="435.5" y="29" width="28.5" height="22" rx="10" ry="10"></rect>
<text x="449.75" y="44">)</text>
</g>
</g>
<path d="M464 40h10"></path>
<path d="M 474 40 h 20 m -10 -10 v 20 m 10 -20 v 20"></path>
</g>
</svg>
