<svg class="railroad-diagram" width="648" height="119" viewBox="0 0 648 119" role="img" xmlns="http://www.w3.org/2000/svg" version="1.1" xmlns:xlink="http://www.w3.org/1999/xlink"><title>JsonObject &#58;&#61; &#34;&#123;&#34; &#40;JsonProperty &#40;&#34;&#44;&#34; JsonProperty&#41;&#42; &#34;&#44;&#34;&#63; &#124; JsonProperty&#63;&#41; &#34;&#125;&#34;</title>
<style><![CDATA[
svg.railroad-diagram {
    background-color: hsl(30,20%,95%);
}
svg.railroad-diagram path {
    stroke-width: 3;
    stroke: black;
    fill: rgba(0,0,0,0);
}
svg.railroad-diagram text {
    font: bold 14px monospace;
    text-anchor: middle;
    white-space: pre;
}
svg.railroad-diagram text.diagram-text {
    font-size: 12px;
}
svg.railroad-diagram text.diagram-arrow {
    font-size: 16px;
}
svg.railroad-diagram text.label {
    text-anchor: start;
}
svg.railroad-diagram text.comment {
    font: italic 12px monospace;
}
svg.railroad-diagram g.non-terminal text {
    /*font-style: italic;*/
}
svg.railroad-diagram rect {
    stroke-width: 3;
    stroke: black;
    fill: hsl(120,100%,90%);
}
svg.railroad-diagram rect.group-box {
    stroke: gray;
    stroke-dasharray: 10 5;
    fill: none;
}
svg.railroad-diagram path.diagram-text {
    stroke-width: 3;
    stroke: black;
    fill: white;
    cursor: help;
}
svg.railroad-diagram g.diagram-text:hover path.diagram-text {
    fill: #eee;
}

]]></style>

<g transform="translate(.5 .5)">
<g>
<path d="M20 78v20m10 -20v20m-10 -10h20"></path>
</g>
<path d="M40 88h10"></path>
<g>
<path d="M50 88h0"></path>
<path d="M598 88h0"></path>
<g class="terminal">
<path d="M50 88h0"></path>
<path d="M78.5 88h0"></path>
<rect x="50" y="77" width="28.5" height="22" rx="10" ry="10"></rect>
<text x="64.25" y="92">{</text>
</g>
<path d="M78.5 88h10"></path>
<g>
<path d="M88.5 88h0"></path>
<path d="M559.5 88h0"></path>
<path d="M88.5 88a10 10 0 0 0 10 -10v-28a10 10 0 0 1 10 -10"></path>
<g>
<path d="M108.5 40h0"></path>
<path d="M539.5 40h0"></path>
<g class="non-terminal">
<path d="M108.5 40h0"></path>
<path d="M230.5 40h0"></path>
<rect x="108.5" y="29" width="122" height="22"></rect>
<a xlink:href="/reference/syntax/#syntax-for-jsonproperty"><text x="169.5" y="44">JsonProperty</text>
</a>
</g>
<path d="M230.5 40h10"></path>
<g>
<path d="M240.5 40h0"></path>
<path d="M471 40h0"></path>
<path d="M240.5 40a10 10 0 0 0 10 -10v0a10 10 0 0 1 10 -10"></path>
<g>
<path d="M260.5 20h190.5"></path>
</g>
<path d="M451 20a10 10 0 0 1 10 10v0a10 10 0 0 0 10 10"></path>
<path d="M240.5 40h20"></path>
<g>
<path d="M260.5 40h0"></path>
<path d="M451 40h0"></path>
<path d="M260.5 40h10"></path>
<g>
<path d="M270.5 40h0"></path>
<path d="M441 40h0"></path>
<g class="terminal">
<path d="M270.5 40h0"></path>
<path d="M299 40h0"></path>
<rect x="270.5" y="29" width="28.5" height="22" rx="10" ry="10"></rect>
<text x="284.75" y="44">,</text>
</g>
<path d="M299 40h10"></path>
<path d="M309 40h10"></path>
<g class="non-terminal">
<path d="M319 40h0"></path>
<path d="M441 40h0"></path>
<rect x="319" y="29" width="122" height="22"></rect>
<a xlink:href="/reference/syntax/#syntax-for-jsonproperty"><text x="380" y="44">JsonProperty</text>
</a>
</g>
</g>
<path d="M441 40h10"></path>
<path d="M270.5 40a10 10 0 0 0 -10 10v0a10 10 0 0 0 10 10"></path>
<g>
<path d="M270.5 60h170.5"></path>
</g>
<path d="M441 60a10 10 0 0 0 10 -10v0a10 10 0 0 0 -10 -10"></path>
</g>
<path d="M451 40h20"></path>
</g>
<g>
<path d="M471 40h0"></path>
<path d="M539.5 40h0"></path>
<path d="M471 40a10 10 0 0 0 10 -10v0a10 10 0 0 1 10 -10"></path>
<g>
<path d="M491 20h28.5"></path>
</g>
<path d="M519.5 20a10 10 0 0 1 10 10v0a10 10 0 0 0 10 10"></path>
<path d="M471 40h20"></path>
<g class="terminal">
<path d="M491 40h0"></path>
<path d="M519.5 40h0"></path>
<rect x="491" y="29" width="28.5" height="22" rx="10" ry="10"></rect>
<text x="505.25" y="44">,</text>
</g>
<path d="M519.5 40h20"></path>
</g>
</g>
<path d="M539.5 40a10 10 0 0 1 10 10v28a10 10 0 0 0 10 10"></path>
<path d="M88.5 88h20"></path>
<g>
<path d="M108.5 88h134.5"></path>
<path d="M405 88h134.5"></path>
<path d="M243 88a10 10 0 0 0 10 -10v0a10 10 0 0 1 10 -10"></path>
<g>
<path d="M263 68h122"></path>
</g>
<path d="M385 68a10 10 0 0 1 10 10v0a10 10 0 0 0 10 10"></path>
<path d="M243 88h20"></path>
<g class="non-terminal">
<path d="M263 88h0"></path>
<path d="M385 88h0"></path>
<rect x="263" y="77" width="122" height="22"></rect>
<a xlink:href="/reference/syntax/#syntax-for-jsonproperty"><text x="324" y="92">JsonProperty</text>
</a>
</g>
<path d="M385 88h20"></path>
</g>
<path d="M539.5 88h20"></path>
</g>
<path d="M559.5 88h10"></path>
<g class="terminal">
<path d="M569.5 88h0"></path>
<path d="M598 88h0"></path>
<rect x="569.5" y="77" width="28.5" height="22" rx="10" ry="10"></rect>
<text x="583.75" y="92">}</text>
</g>
</g>
<path d="M598 88h10"></path>
<path d="M 608 88 h 20 m -10 -10 v 20 m 10 -20 v 20"></path>
</g>
</svg>
