<svg class="railroad-diagram" width="322" height="92" viewBox="0 0 322 92" role="img" xmlns="http://www.w3.org/2000/svg" version="1.1" xmlns:xlink="http://www.w3.org/1999/xlink"><title>StringHoleRaw &#58;&#61; &#34;&#92;u0024&#123;&#34; &#40;CommaExpr &#124; Garbage&#41; &#34;&#125;&#34;</title>
<style><![CDATA[
svg.railroad-diagram {
    background-color: hsl(30,20%,95%);
}
svg.railroad-diagram path {
    stroke-width: 3;
    stroke: black;
    fill: rgba(0,0,0,0);
}
svg.railroad-diagram text {
    font: bold 14px monospace;
    text-anchor: middle;
    white-space: pre;
}
svg.railroad-diagram text.diagram-text {
    font-size: 12px;
}
svg.railroad-diagram text.diagram-arrow {
    font-size: 16px;
}
svg.railroad-diagram text.label {
    text-anchor: start;
}
svg.railroad-diagram text.comment {
    font: italic 12px monospace;
}
svg.railroad-diagram g.non-terminal text {
    /*font-style: italic;*/
}
svg.railroad-diagram rect {
    stroke-width: 3;
    stroke: black;
    fill: hsl(120,100%,90%);
}
svg.railroad-diagram rect.group-box {
    stroke: gray;
    stroke-dasharray: 10 5;
    fill: none;
}
svg.railroad-diagram path.diagram-text {
    stroke-width: 3;
    stroke: black;
    fill: white;
    cursor: help;
}
svg.railroad-diagram g.diagram-text:hover path.diagram-text {
    fill: #eee;
}

]]></style>

<g transform="translate(.5 .5)">
<g>
<path d="M20 51v20m10 -20v20m-10 -10h20"></path>
</g>
<path d="M40 61h10"></path>
<g>
<path d="M50 61h0"></path>
<path d="M272 61h0"></path>
<g class="terminal">
<path d="M50 61h0"></path>
<path d="M87 61h0"></path>
<rect x="50" y="50" width="37" height="22" rx="10" ry="10"></rect>
<text x="68.5" y="65">${</text>
</g>
<path d="M87 61h10"></path>
<g>
<path d="M97 61h0"></path>
<path d="M233.5 61h0"></path>
<path d="M97 61a10 10 0 0 0 10 -10v-10a10 10 0 0 1 10 -10"></path>
<g class="non-terminal">
<path d="M117 31h0"></path>
<path d="M213.5 31h0"></path>
<rect x="117" y="20" width="96.5" height="22"></rect>
<a xlink:href="/reference/syntax/#syntax-for-commaexpr"><text x="165.25" y="35">CommaExpr</text>
</a>
</g>
<path d="M213.5 31a10 10 0 0 1 10 10v10a10 10 0 0 0 10 10"></path>
<path d="M97 61h20"></path>
<g class="non-terminal">
<path d="M117 61h8.5"></path>
<path d="M205 61h8.5"></path>
<rect x="125.5" y="50" width="79.5" height="22"></rect>
<a xlink:href="/reference/syntax/#syntax-for-garbage"><text x="165.25" y="65">Garbage</text>
</a>
</g>
<path d="M213.5 61h20"></path>
</g>
<path d="M233.5 61h10"></path>
<g class="terminal">
<path d="M243.5 61h0"></path>
<path d="M272 61h0"></path>
<rect x="243.5" y="50" width="28.5" height="22" rx="10" ry="10"></rect>
<text x="257.75" y="65">}</text>
</g>
</g>
<path d="M272 61h10"></path>
<path d="M 282 61 h 20 m -10 -10 v 20 m 10 -20 v 20"></path>
</g>
</svg>
