<svg class="railroad-diagram" width="262" height="131" viewBox="0 0 262 131" role="img" xmlns="http://www.w3.org/2000/svg" version="1.1" xmlns:xlink="http://www.w3.org/1999/xlink"><title>StringPart &#58;&#61; ContentChars&#43; &#124; StringHole &#124; UnicodeRun</title>
<style><![CDATA[
svg.railroad-diagram {
    background-color: hsl(30,20%,95%);
}
svg.railroad-diagram path {
    stroke-width: 3;
    stroke: black;
    fill: rgba(0,0,0,0);
}
svg.railroad-diagram text {
    font: bold 14px monospace;
    text-anchor: middle;
    white-space: pre;
}
svg.railroad-diagram text.diagram-text {
    font-size: 12px;
}
svg.railroad-diagram text.diagram-arrow {
    font-size: 16px;
}
svg.railroad-diagram text.label {
    text-anchor: start;
}
svg.railroad-diagram text.comment {
    font: italic 12px monospace;
}
svg.railroad-diagram g.non-terminal text {
    /*font-style: italic;*/
}
svg.railroad-diagram rect {
    stroke-width: 3;
    stroke: black;
    fill: hsl(120,100%,90%);
}
svg.railroad-diagram rect.group-box {
    stroke: gray;
    stroke-dasharray: 10 5;
    fill: none;
}
svg.railroad-diagram path.diagram-text {
    stroke-width: 3;
    stroke: black;
    fill: white;
    cursor: help;
}
svg.railroad-diagram g.diagram-text:hover path.diagram-text {
    fill: #eee;
}

]]></style>

<g transform="translate(.5 .5)">
<g>
<path d="M20 60v20m10 -20v20m-10 -10h20"></path>
</g>
<g>
<path d="M40 70h0"></path>
<path d="M222 70h0"></path>
<path d="M40 70a10 10 0 0 0 10 -10v-19a10 10 0 0 1 10 -10"></path>
<g>
<path d="M60 31h0"></path>
<path d="M202 31h0"></path>
<path d="M60 31h10"></path>
<g class="non-terminal">
<path d="M70 31h0"></path>
<path d="M192 31h0"></path>
<rect x="70" y="20" width="122" height="22"></rect>
<text x="131" y="35">ContentChars</text>
</g>
<path d="M192 31h10"></path>
<path d="M70 31a10 10 0 0 0 -10 10v0a10 10 0 0 0 10 10"></path>
<g>
<path d="M70 51h122"></path>
</g>
<path d="M192 51a10 10 0 0 0 10 -10v0a10 10 0 0 0 -10 -10"></path>
</g>
<path d="M202 31a10 10 0 0 1 10 10v19a10 10 0 0 0 10 10"></path>
<path d="M40 70h20"></path>
<g class="non-terminal">
<path d="M60 70h18.5"></path>
<path d="M183.5 70h18.5"></path>
<rect x="78.5" y="59" width="105" height="22"></rect>
<a xlink:href="/reference/syntax/#syntax-for-stringhole"><text x="131" y="74">StringHole</text>
</a>
</g>
<path d="M202 70h20"></path>
<path d="M40 70a10 10 0 0 1 10 10v10a10 10 0 0 0 10 10"></path>
<g class="non-terminal">
<path d="M60 100h18.5"></path>
<path d="M183.5 100h18.5"></path>
<rect x="78.5" y="89" width="105" height="22"></rect>
<a xlink:href="/reference/syntax/#syntax-for-unicoderun"><text x="131" y="104">UnicodeRun</text>
</a>
</g>
<path d="M202 100a10 10 0 0 0 10 -10v-10a10 10 0 0 1 10 -10"></path>
</g>
<path d="M 222 70 h 20 m -10 -10 v 20 m 10 -20 v 20"></path>
</g>
</svg>
