<svg class="railroad-diagram" width="376" height="62" viewBox="0 0 376 62" role="img" xmlns="http://www.w3.org/2000/svg" version="1.1" xmlns:xlink="http://www.w3.org/1999/xlink"><title>Member &#58;&#61; Expr &#34;&#91;&#34; RawCommaOp &#34;&#93;&#34;</title>
<style><![CDATA[
svg.railroad-diagram {
    background-color: hsl(30,20%,95%);
}
svg.railroad-diagram path {
    stroke-width: 3;
    stroke: black;
    fill: rgba(0,0,0,0);
}
svg.railroad-diagram text {
    font: bold 14px monospace;
    text-anchor: middle;
    white-space: pre;
}
svg.railroad-diagram text.diagram-text {
    font-size: 12px;
}
svg.railroad-diagram text.diagram-arrow {
    font-size: 16px;
}
svg.railroad-diagram text.label {
    text-anchor: start;
}
svg.railroad-diagram text.comment {
    font: italic 12px monospace;
}
svg.railroad-diagram g.non-terminal text {
    /*font-style: italic;*/
}
svg.railroad-diagram rect {
    stroke-width: 3;
    stroke: black;
    fill: hsl(120,100%,90%);
}
svg.railroad-diagram rect.group-box {
    stroke: gray;
    stroke-dasharray: 10 5;
    fill: none;
}
svg.railroad-diagram path.diagram-text {
    stroke-width: 3;
    stroke: black;
    fill: white;
    cursor: help;
}
svg.railroad-diagram g.diagram-text:hover path.diagram-text {
    fill: #eee;
}

]]></style>

<g transform="translate(.5 .5)">
<g>
<path d="M20 21v20m10 -20v20m-10 -10h20"></path>
</g>
<path d="M40 31h10"></path>
<g>
<path d="M50 31h0"></path>
<path d="M326 31h0"></path>
<g class="non-terminal">
<path d="M50 31h0"></path>
<path d="M104 31h0"></path>
<rect x="50" y="20" width="54" height="22"></rect>
<a xlink:href="/reference/syntax/#syntax-for-expr"><text x="77" y="35">Expr</text>
</a>
</g>
<path d="M104 31h10"></path>
<path d="M114 31h10"></path>
<g class="terminal">
<path d="M124 31h0"></path>
<path d="M152.5 31h0"></path>
<rect x="124" y="20" width="28.5" height="22" rx="10" ry="10"></rect>
<text x="138.25" y="35">&#91;</text>
</g>
<path d="M152.5 31h10"></path>
<path d="M162.5 31h10"></path>
<g class="non-terminal">
<path d="M172.5 31h0"></path>
<path d="M277.5 31h0"></path>
<rect x="172.5" y="20" width="105" height="22"></rect>
<a xlink:href="/reference/syntax/#syntax-for-rawcommaop"><text x="225" y="35">RawCommaOp</text>
</a>
</g>
<path d="M277.5 31h10"></path>
<path d="M287.5 31h10"></path>
<g class="terminal">
<path d="M297.5 31h0"></path>
<path d="M326 31h0"></path>
<rect x="297.5" y="20" width="28.5" height="22" rx="10" ry="10"></rect>
<text x="311.75" y="35">&#93;</text>
</g>
</g>
<path d="M326 31h10"></path>
<path d="M 336 31 h 20 m -10 -10 v 20 m 10 -20 v 20"></path>
</g>
</svg>
