<svg class="railroad-diagram" width="284.5" height="152" viewBox="0 0 284.5 152" role="img" xmlns="http://www.w3.org/2000/svg" version="1.1" xmlns:xlink="http://www.w3.org/1999/xlink"><title>TopLevelNoGarbageNoComment &#58;&#61; DecoratedTopLevel &#124; Let &#124; Stmt &#124; QuasiHole</title>
<style><![CDATA[
svg.railroad-diagram {
    background-color: hsl(30,20%,95%);
}
svg.railroad-diagram path {
    stroke-width: 3;
    stroke: black;
    fill: rgba(0,0,0,0);
}
svg.railroad-diagram text {
    font: bold 14px monospace;
    text-anchor: middle;
    white-space: pre;
}
svg.railroad-diagram text.diagram-text {
    font-size: 12px;
}
svg.railroad-diagram text.diagram-arrow {
    font-size: 16px;
}
svg.railroad-diagram text.label {
    text-anchor: start;
}
svg.railroad-diagram text.comment {
    font: italic 12px monospace;
}
svg.railroad-diagram g.non-terminal text {
    /*font-style: italic;*/
}
svg.railroad-diagram rect {
    stroke-width: 3;
    stroke: black;
    fill: hsl(120,100%,90%);
}
svg.railroad-diagram rect.group-box {
    stroke: gray;
    stroke-dasharray: 10 5;
    fill: none;
}
svg.railroad-diagram path.diagram-text {
    stroke-width: 3;
    stroke: black;
    fill: white;
    cursor: help;
}
svg.railroad-diagram g.diagram-text:hover path.diagram-text {
    fill: #eee;
}

]]></style>

<g transform="translate(.5 .5)">
<g>
<path d="M20 81v20m10 -20v20m-10 -10h20"></path>
</g>
<g>
<path d="M40 91h0"></path>
<path d="M244.5 91h0"></path>
<path d="M40 91a10 10 0 0 0 10 -10v-10a10 10 0 0 1 10 -10"></path>
<g class="non-terminal">
<path d="M60 61h59.5"></path>
<path d="M165 61h59.5"></path>
<rect x="119.5" y="50" width="45.5" height="22"></rect>
<a xlink:href="/reference/syntax/#syntax-for-let"><text x="142.25" y="65">Let</text>
</a>
</g>
<path d="M224.5 61a10 10 0 0 1 10 10v10a10 10 0 0 0 10 10"></path>
<path d="M40 91a10 10 0 0 0 10 -10v-40a10 10 0 0 1 10 -10"></path>
<g class="non-terminal">
<path d="M60 31h0"></path>
<path d="M224.5 31h0"></path>
<rect x="60" y="20" width="164.5" height="22"></rect>
<a xlink:href="/reference/syntax/#syntax-for-decoratedtoplevel"><text x="142.25" y="35">DecoratedTopLevel</text>
</a>
</g>
<path d="M224.5 31a10 10 0 0 1 10 10v40a10 10 0 0 0 10 10"></path>
<path d="M40 91h20"></path>
<g class="non-terminal">
<path d="M60 91h55.25"></path>
<path d="M169.25 91h55.25"></path>
<rect x="115.25" y="80" width="54" height="22"></rect>
<a xlink:href="/reference/syntax/#syntax-for-stmt"><text x="142.25" y="95">Stmt</text>
</a>
</g>
<path d="M224.5 91h20"></path>
<path d="M40 91a10 10 0 0 1 10 10v10a10 10 0 0 0 10 10"></path>
<g class="non-terminal">
<path d="M60 121h34"></path>
<path d="M190.5 121h34"></path>
<rect x="94" y="110" width="96.5" height="22"></rect>
<a xlink:href="/reference/syntax/#syntax-for-quasihole"><text x="142.25" y="125">QuasiHole</text>
</a>
</g>
<path d="M224.5 121a10 10 0 0 0 10 -10v-10a10 10 0 0 1 10 -10"></path>
</g>
<path d="M 244.5 91 h 20 m -10 -10 v 20 m 10 -20 v 20"></path>
</g>
</svg>
