<svg class="railroad-diagram" width="792" height="118" viewBox="0 0 792 118" role="img" xmlns="http://www.w3.org/2000/svg" version="1.1" xmlns:xlink="http://www.w3.org/1999/xlink"><title>DeclMulti &#58;&#61; &#34;&#91;&#34; &#40;LetNested &#34;&#44;&#34; &#40;LetNested &#40;&#34;&#44;&#34; LetNested&#41;&#42; &#34;&#44;&#34;&#63;&#41;&#63; &#124; LetNested&#41; &#34;&#93;&#34;</title>
<style><![CDATA[
svg.railroad-diagram {
    background-color: hsl(30,20%,95%);
}
svg.railroad-diagram path {
    stroke-width: 3;
    stroke: black;
    fill: rgba(0,0,0,0);
}
svg.railroad-diagram text {
    font: bold 14px monospace;
    text-anchor: middle;
    white-space: pre;
}
svg.railroad-diagram text.diagram-text {
    font-size: 12px;
}
svg.railroad-diagram text.diagram-arrow {
    font-size: 16px;
}
svg.railroad-diagram text.label {
    text-anchor: start;
}
svg.railroad-diagram text.comment {
    font: italic 12px monospace;
}
svg.railroad-diagram g.non-terminal text {
    /*font-style: italic;*/
}
svg.railroad-diagram rect {
    stroke-width: 3;
    stroke: black;
    fill: hsl(120,100%,90%);
}
svg.railroad-diagram rect.group-box {
    stroke: gray;
    stroke-dasharray: 10 5;
    fill: none;
}
svg.railroad-diagram path.diagram-text {
    stroke-width: 3;
    stroke: black;
    fill: white;
    cursor: help;
}
svg.railroad-diagram g.diagram-text:hover path.diagram-text {
    fill: #eee;
}

]]></style>

<g transform="translate(.5 .5)">
<g>
<path d="M20 77v20m10 -20v20m-10 -10h20"></path>
</g>
<path d="M40 87h10"></path>
<g>
<path d="M50 87h0"></path>
<path d="M742 87h0"></path>
<g class="terminal">
<path d="M50 87h0"></path>
<path d="M78.5 87h0"></path>
<rect x="50" y="76" width="28.5" height="22" rx="10" ry="10"></rect>
<text x="64.25" y="91">&#91;</text>
</g>
<path d="M78.5 87h10"></path>
<g>
<path d="M88.5 87h0"></path>
<path d="M703.5 87h0"></path>
<path d="M88.5 87a10 10 0 0 0 10 -10v-19a10 10 0 0 1 10 -10"></path>
<g>
<path d="M108.5 48h0"></path>
<path d="M683.5 48h0"></path>
<g class="non-terminal">
<path d="M108.5 48h0"></path>
<path d="M205 48h0"></path>
<rect x="108.5" y="37" width="96.5" height="22"></rect>
<a xlink:href="/reference/syntax/#syntax-for-letnested"><text x="156.75" y="52">LetNested</text>
</a>
</g>
<path d="M205 48h10"></path>
<path d="M215 48h10"></path>
<g class="terminal">
<path d="M225 48h0"></path>
<path d="M253.5 48h0"></path>
<rect x="225" y="37" width="28.5" height="22" rx="10" ry="10"></rect>
<text x="239.25" y="52">,</text>
</g>
<path d="M253.5 48h10"></path>
<g>
<path d="M263.5 48h0"></path>
<path d="M683.5 48h0"></path>
<path d="M263.5 48a10 10 0 0 0 10 -10v-8a10 10 0 0 1 10 -10"></path>
<g>
<path d="M283.5 20h380"></path>
</g>
<path d="M663.5 20a10 10 0 0 1 10 10v8a10 10 0 0 0 10 10"></path>
<path d="M263.5 48h20"></path>
<g>
<path d="M283.5 48h0"></path>
<path d="M663.5 48h0"></path>
<g class="non-terminal">
<path d="M283.5 48h0"></path>
<path d="M380 48h0"></path>
<rect x="283.5" y="37" width="96.5" height="22"></rect>
<a xlink:href="/reference/syntax/#syntax-for-letnested"><text x="331.75" y="52">LetNested</text>
</a>
</g>
<path d="M380 48h10"></path>
<g>
<path d="M390 48h0"></path>
<path d="M595 48h0"></path>
<path d="M390 48a10 10 0 0 0 10 -10v0a10 10 0 0 1 10 -10"></path>
<g>
<path d="M410 28h165"></path>
</g>
<path d="M575 28a10 10 0 0 1 10 10v0a10 10 0 0 0 10 10"></path>
<path d="M390 48h20"></path>
<g>
<path d="M410 48h0"></path>
<path d="M575 48h0"></path>
<path d="M410 48h10"></path>
<g>
<path d="M420 48h0"></path>
<path d="M565 48h0"></path>
<g class="terminal">
<path d="M420 48h0"></path>
<path d="M448.5 48h0"></path>
<rect x="420" y="37" width="28.5" height="22" rx="10" ry="10"></rect>
<text x="434.25" y="52">,</text>
</g>
<path d="M448.5 48h10"></path>
<path d="M458.5 48h10"></path>
<g class="non-terminal">
<path d="M468.5 48h0"></path>
<path d="M565 48h0"></path>
<rect x="468.5" y="37" width="96.5" height="22"></rect>
<a xlink:href="/reference/syntax/#syntax-for-letnested"><text x="516.75" y="52">LetNested</text>
</a>
</g>
</g>
<path d="M565 48h10"></path>
<path d="M420 48a10 10 0 0 0 -10 10v0a10 10 0 0 0 10 10"></path>
<g>
<path d="M420 68h145"></path>
</g>
<path d="M565 68a10 10 0 0 0 10 -10v0a10 10 0 0 0 -10 -10"></path>
</g>
<path d="M575 48h20"></path>
</g>
<g>
<path d="M595 48h0"></path>
<path d="M663.5 48h0"></path>
<path d="M595 48a10 10 0 0 0 10 -10v0a10 10 0 0 1 10 -10"></path>
<g>
<path d="M615 28h28.5"></path>
</g>
<path d="M643.5 28a10 10 0 0 1 10 10v0a10 10 0 0 0 10 10"></path>
<path d="M595 48h20"></path>
<g class="terminal">
<path d="M615 48h0"></path>
<path d="M643.5 48h0"></path>
<rect x="615" y="37" width="28.5" height="22" rx="10" ry="10"></rect>
<text x="629.25" y="52">,</text>
</g>
<path d="M643.5 48h20"></path>
</g>
</g>
<path d="M663.5 48h20"></path>
</g>
</g>
<path d="M683.5 48a10 10 0 0 1 10 10v19a10 10 0 0 0 10 10"></path>
<path d="M88.5 87h20"></path>
<g class="non-terminal">
<path d="M108.5 87h239.25"></path>
<path d="M444.25 87h239.25"></path>
<rect x="347.75" y="76" width="96.5" height="22"></rect>
<a xlink:href="/reference/syntax/#syntax-for-letnested"><text x="396" y="91">LetNested</text>
</a>
</g>
<path d="M683.5 87h20"></path>
</g>
<path d="M703.5 87h10"></path>
<g class="terminal">
<path d="M713.5 87h0"></path>
<path d="M742 87h0"></path>
<rect x="713.5" y="76" width="28.5" height="22" rx="10" ry="10"></rect>
<text x="727.75" y="91">&#93;</text>
</g>
</g>
<path d="M742 87h10"></path>
<path d="M 752 87 h 20 m -10 -10 v 20 m 10 -20 v 20"></path>
</g>
</svg>
