<svg class="railroad-diagram" width="453" height="92" viewBox="0 0 453 92" role="img" xmlns="http://www.w3.org/2000/svg" version="1.1" xmlns:xlink="http://www.w3.org/1999/xlink"><title>List &#58;&#61; &#34;&#91;&#34; &#40;Type &#34;&#59;&#34; ListContent &#124; ListContent&#41; &#34;&#93;&#34;</title>
<style><![CDATA[
svg.railroad-diagram {
    background-color: hsl(30,20%,95%);
}
svg.railroad-diagram path {
    stroke-width: 3;
    stroke: black;
    fill: rgba(0,0,0,0);
}
svg.railroad-diagram text {
    font: bold 14px monospace;
    text-anchor: middle;
    white-space: pre;
}
svg.railroad-diagram text.diagram-text {
    font-size: 12px;
}
svg.railroad-diagram text.diagram-arrow {
    font-size: 16px;
}
svg.railroad-diagram text.label {
    text-anchor: start;
}
svg.railroad-diagram text.comment {
    font: italic 12px monospace;
}
svg.railroad-diagram g.non-terminal text {
    /*font-style: italic;*/
}
svg.railroad-diagram rect {
    stroke-width: 3;
    stroke: black;
    fill: hsl(120,100%,90%);
}
svg.railroad-diagram rect.group-box {
    stroke: gray;
    stroke-dasharray: 10 5;
    fill: none;
}
svg.railroad-diagram path.diagram-text {
    stroke-width: 3;
    stroke: black;
    fill: white;
    cursor: help;
}
svg.railroad-diagram g.diagram-text:hover path.diagram-text {
    fill: #eee;
}

]]></style>

<g transform="translate(.5 .5)">
<g>
<path d="M20 51v20m10 -20v20m-10 -10h20"></path>
</g>
<path d="M40 61h10"></path>
<g>
<path d="M50 61h0"></path>
<path d="M403 61h0"></path>
<g class="terminal">
<path d="M50 61h0"></path>
<path d="M78.5 61h0"></path>
<rect x="50" y="50" width="28.5" height="22" rx="10" ry="10"></rect>
<text x="64.25" y="65">&#91;</text>
</g>
<path d="M78.5 61h10"></path>
<g>
<path d="M88.5 61h0"></path>
<path d="M364.5 61h0"></path>
<path d="M88.5 61a10 10 0 0 0 10 -10v-10a10 10 0 0 1 10 -10"></path>
<g>
<path d="M108.5 31h0"></path>
<path d="M344.5 31h0"></path>
<g class="non-terminal">
<path d="M108.5 31h0"></path>
<path d="M162.5 31h0"></path>
<rect x="108.5" y="20" width="54" height="22"></rect>
<a xlink:href="/reference/syntax/#syntax-for-type"><text x="135.5" y="35">Type</text>
</a>
</g>
<path d="M162.5 31h10"></path>
<path d="M172.5 31h10"></path>
<g class="terminal">
<path d="M182.5 31h0"></path>
<path d="M211 31h0"></path>
<rect x="182.5" y="20" width="28.5" height="22" rx="10" ry="10"></rect>
<text x="196.75" y="35">;</text>
</g>
<path d="M211 31h10"></path>
<path d="M221 31h10"></path>
<g class="non-terminal">
<path d="M231 31h0"></path>
<path d="M344.5 31h0"></path>
<rect x="231" y="20" width="113.5" height="22"></rect>
<a xlink:href="/reference/syntax/#syntax-for-listcontent"><text x="287.75" y="35">ListContent</text>
</a>
</g>
</g>
<path d="M344.5 31a10 10 0 0 1 10 10v10a10 10 0 0 0 10 10"></path>
<path d="M88.5 61h20"></path>
<g class="non-terminal">
<path d="M108.5 61h61.25"></path>
<path d="M283.25 61h61.25"></path>
<rect x="169.75" y="50" width="113.5" height="22"></rect>
<a xlink:href="/reference/syntax/#syntax-for-listcontent"><text x="226.5" y="65">ListContent</text>
</a>
</g>
<path d="M344.5 61h20"></path>
</g>
<path d="M364.5 61h10"></path>
<g class="terminal">
<path d="M374.5 61h0"></path>
<path d="M403 61h0"></path>
<rect x="374.5" y="50" width="28.5" height="22" rx="10" ry="10"></rect>
<text x="388.75" y="65">&#93;</text>
</g>
</g>
<path d="M403 61h10"></path>
<path d="M 413 61 h 20 m -10 -10 v 20 m 10 -20 v 20"></path>
</g>
</svg>
