<svg class="railroad-diagram" width="458.5" height="150" viewBox="0 0 458.5 150" role="img" xmlns="http://www.w3.org/2000/svg" version="1.1" xmlns:xlink="http://www.w3.org/1999/xlink"><title>UnicodeRunRaw &#58;&#61; &#34;&#92;&#92;u&#123;&#34; &#40;UnicodeRunPartRaw&#42; &#124; UnicodeRunPartRaw &#124; &#40;&#41; &#124; Garbage&#41; &#34;&#125;&#34;</title>
<style><![CDATA[
svg.railroad-diagram {
    background-color: hsl(30,20%,95%);
}
svg.railroad-diagram path {
    stroke-width: 3;
    stroke: black;
    fill: rgba(0,0,0,0);
}
svg.railroad-diagram text {
    font: bold 14px monospace;
    text-anchor: middle;
    white-space: pre;
}
svg.railroad-diagram text.diagram-text {
    font-size: 12px;
}
svg.railroad-diagram text.diagram-arrow {
    font-size: 16px;
}
svg.railroad-diagram text.label {
    text-anchor: start;
}
svg.railroad-diagram text.comment {
    font: italic 12px monospace;
}
svg.railroad-diagram g.non-terminal text {
    /*font-style: italic;*/
}
svg.railroad-diagram rect {
    stroke-width: 3;
    stroke: black;
    fill: hsl(120,100%,90%);
}
svg.railroad-diagram rect.group-box {
    stroke: gray;
    stroke-dasharray: 10 5;
    fill: none;
}
svg.railroad-diagram path.diagram-text {
    stroke-width: 3;
    stroke: black;
    fill: white;
    cursor: help;
}
svg.railroad-diagram g.diagram-text:hover path.diagram-text {
    fill: #eee;
}

]]></style>

<g transform="translate(.5 .5)">
<g>
<path d="M20 89v20m10 -20v20m-10 -10h20"></path>
</g>
<path d="M40 99h10"></path>
<g>
<path d="M50 99h0"></path>
<path d="M408.5 99h0"></path>
<g class="terminal">
<path d="M50 99h0"></path>
<path d="M95.5 99h0"></path>
<rect x="50" y="88" width="45.5" height="22" rx="10" ry="10"></rect>
<text x="72.75" y="103">\u{</text>
</g>
<path d="M95.5 99h10"></path>
<g>
<path d="M105.5 99h0"></path>
<path d="M370 99h0"></path>
<path d="M105.5 99a10 10 0 0 0 10 -10v0a10 10 0 0 1 10 -10"></path>
<g class="non-terminal">
<path d="M125.5 79h30"></path>
<path d="M320 79h30"></path>
<rect x="155.5" y="68" width="164.5" height="22"></rect>
<a xlink:href="/reference/syntax/#syntax-for-unicoderunpartraw"><text x="237.75" y="83">UnicodeRunPartRaw</text>
</a>
</g>
<path d="M350 79a10 10 0 0 1 10 10v0a10 10 0 0 0 10 10"></path>
<path d="M105.5 99a10 10 0 0 0 10 -10v-39a10 10 0 0 1 10 -10"></path>
<g>
<path d="M125.5 40h0"></path>
<path d="M350 40h0"></path>
<path d="M125.5 40a10 10 0 0 0 10 -10v0a10 10 0 0 1 10 -10"></path>
<g>
<path d="M145.5 20h184.5"></path>
</g>
<path d="M330 20a10 10 0 0 1 10 10v0a10 10 0 0 0 10 10"></path>
<path d="M125.5 40h20"></path>
<g>
<path d="M145.5 40h0"></path>
<path d="M330 40h0"></path>
<path d="M145.5 40h10"></path>
<g class="non-terminal">
<path d="M155.5 40h0"></path>
<path d="M320 40h0"></path>
<rect x="155.5" y="29" width="164.5" height="22"></rect>
<a xlink:href="/reference/syntax/#syntax-for-unicoderunpartraw"><text x="237.75" y="44">UnicodeRunPartRaw</text>
</a>
</g>
<path d="M320 40h10"></path>
<path d="M155.5 40a10 10 0 0 0 -10 10v0a10 10 0 0 0 10 10"></path>
<g>
<path d="M155.5 60h164.5"></path>
</g>
<path d="M320 60a10 10 0 0 0 10 -10v0a10 10 0 0 0 -10 -10"></path>
</g>
<path d="M330 40h20"></path>
</g>
<path d="M350 40a10 10 0 0 1 10 10v39a10 10 0 0 0 10 10"></path>
<path d="M105.5 99h20"></path>
<g>
<path d="M125.5 99h224.5"></path>
</g>
<path d="M350 99h20"></path>
<path d="M105.5 99a10 10 0 0 1 10 10v0a10 10 0 0 0 10 10"></path>
<g class="non-terminal">
<path d="M125.5 119h72.5"></path>
<path d="M277.5 119h72.5"></path>
<rect x="198" y="108" width="79.5" height="22"></rect>
<a xlink:href="/reference/syntax/#syntax-for-garbage"><text x="237.75" y="123">Garbage</text>
</a>
</g>
<path d="M350 119a10 10 0 0 0 10 -10v0a10 10 0 0 1 10 -10"></path>
</g>
<path d="M370 99h10"></path>
<g class="terminal">
<path d="M380 99h0"></path>
<path d="M408.5 99h0"></path>
<rect x="380" y="88" width="28.5" height="22" rx="10" ry="10"></rect>
<text x="394.25" y="103">}</text>
</g>
</g>
<path d="M408.5 99h10"></path>
<path d="M 418.5 99 h 20 m -10 -10 v 20 m 10 -20 v 20"></path>
</g>
</svg>
