<svg class="railroad-diagram" width="690.5" height="178" viewBox="0 0 690.5 178" role="img" xmlns="http://www.w3.org/2000/svg" version="1.1" xmlns:xlink="http://www.w3.org/1999/xlink"><title>UnicodeRun &#58;&#61; &#34;&#92;&#92;u&#123;&#34; &#40;&#40;UnicodeRunPart &#40;&#34;&#44;&#34; UnicodeRunPart&#41;&#42;&#41;&#63; &#124; UnicodeRunPart &#124; Garbage&#41; &#34;&#125;&#34; &#124; &#34;&#92;&#92;u&#123;&#34; &#34;&#125;&#34;</title>
<style><![CDATA[
svg.railroad-diagram {
    background-color: hsl(30,20%,95%);
}
svg.railroad-diagram path {
    stroke-width: 3;
    stroke: black;
    fill: rgba(0,0,0,0);
}
svg.railroad-diagram text {
    font: bold 14px monospace;
    text-anchor: middle;
    white-space: pre;
}
svg.railroad-diagram text.diagram-text {
    font-size: 12px;
}
svg.railroad-diagram text.diagram-arrow {
    font-size: 16px;
}
svg.railroad-diagram text.label {
    text-anchor: start;
}
svg.railroad-diagram text.comment {
    font: italic 12px monospace;
}
svg.railroad-diagram g.non-terminal text {
    /*font-style: italic;*/
}
svg.railroad-diagram rect {
    stroke-width: 3;
    stroke: black;
    fill: hsl(120,100%,90%);
}
svg.railroad-diagram rect.group-box {
    stroke: gray;
    stroke-dasharray: 10 5;
    fill: none;
}
svg.railroad-diagram path.diagram-text {
    stroke-width: 3;
    stroke: black;
    fill: white;
    cursor: help;
}
svg.railroad-diagram g.diagram-text:hover path.diagram-text {
    fill: #eee;
}

]]></style>

<g transform="translate(.5 .5)">
<g>
<path d="M20 137v20m10 -20v20m-10 -10h20"></path>
</g>
<g>
<path d="M40 147h0"></path>
<path d="M650.5 147h0"></path>
<path d="M40 147a10 10 0 0 0 10 -10v-40a10 10 0 0 1 10 -10"></path>
<g>
<path d="M60 87h0"></path>
<path d="M630.5 87h0"></path>
<g class="terminal">
<path d="M60 87h0"></path>
<path d="M105.5 87h0"></path>
<rect x="60" y="76" width="45.5" height="22" rx="10" ry="10"></rect>
<text x="82.75" y="91">\u{</text>
</g>
<path d="M105.5 87h10"></path>
<g>
<path d="M115.5 87h0"></path>
<path d="M592 87h0"></path>
<path d="M115.5 87a10 10 0 0 0 10 -10v-19a10 10 0 0 1 10 -10"></path>
<g>
<path d="M135.5 48h0"></path>
<path d="M572 48h0"></path>
<path d="M135.5 48a10 10 0 0 0 10 -10v-8a10 10 0 0 1 10 -10"></path>
<g>
<path d="M155.5 20h396.5"></path>
</g>
<path d="M552 20a10 10 0 0 1 10 10v8a10 10 0 0 0 10 10"></path>
<path d="M135.5 48h20"></path>
<g>
<path d="M155.5 48h0"></path>
<path d="M552 48h0"></path>
<g class="non-terminal">
<path d="M155.5 48h0"></path>
<path d="M294.5 48h0"></path>
<rect x="155.5" y="37" width="139" height="22"></rect>
<a xlink:href="/reference/syntax/#syntax-for-unicoderunpart"><text x="225" y="52">UnicodeRunPart</text>
</a>
</g>
<path d="M294.5 48h10"></path>
<g>
<path d="M304.5 48h0"></path>
<path d="M552 48h0"></path>
<path d="M304.5 48a10 10 0 0 0 10 -10v0a10 10 0 0 1 10 -10"></path>
<g>
<path d="M324.5 28h207.5"></path>
</g>
<path d="M532 28a10 10 0 0 1 10 10v0a10 10 0 0 0 10 10"></path>
<path d="M304.5 48h20"></path>
<g>
<path d="M324.5 48h0"></path>
<path d="M532 48h0"></path>
<path d="M324.5 48h10"></path>
<g>
<path d="M334.5 48h0"></path>
<path d="M522 48h0"></path>
<g class="terminal">
<path d="M334.5 48h0"></path>
<path d="M363 48h0"></path>
<rect x="334.5" y="37" width="28.5" height="22" rx="10" ry="10"></rect>
<text x="348.75" y="52">,</text>
</g>
<path d="M363 48h10"></path>
<path d="M373 48h10"></path>
<g class="non-terminal">
<path d="M383 48h0"></path>
<path d="M522 48h0"></path>
<rect x="383" y="37" width="139" height="22"></rect>
<a xlink:href="/reference/syntax/#syntax-for-unicoderunpart"><text x="452.5" y="52">UnicodeRunPart</text>
</a>
</g>
</g>
<path d="M522 48h10"></path>
<path d="M334.5 48a10 10 0 0 0 -10 10v0a10 10 0 0 0 10 10"></path>
<g>
<path d="M334.5 68h187.5"></path>
</g>
<path d="M522 68a10 10 0 0 0 10 -10v0a10 10 0 0 0 -10 -10"></path>
</g>
<path d="M532 48h20"></path>
</g>
</g>
<path d="M552 48h20"></path>
</g>
<path d="M572 48a10 10 0 0 1 10 10v19a10 10 0 0 0 10 10"></path>
<path d="M115.5 87h20"></path>
<g class="non-terminal">
<path d="M135.5 87h148.75"></path>
<path d="M423.25 87h148.75"></path>
<rect x="284.25" y="76" width="139" height="22"></rect>
<a xlink:href="/reference/syntax/#syntax-for-unicoderunpart"><text x="353.75" y="91">UnicodeRunPart</text>
</a>
</g>
<path d="M572 87h20"></path>
<path d="M115.5 87a10 10 0 0 1 10 10v10a10 10 0 0 0 10 10"></path>
<g class="non-terminal">
<path d="M135.5 117h178.5"></path>
<path d="M393.5 117h178.5"></path>
<rect x="314" y="106" width="79.5" height="22"></rect>
<a xlink:href="/reference/syntax/#syntax-for-garbage"><text x="353.75" y="121">Garbage</text>
</a>
</g>
<path d="M572 117a10 10 0 0 0 10 -10v-10a10 10 0 0 1 10 -10"></path>
</g>
<path d="M592 87h10"></path>
<g class="terminal">
<path d="M602 87h0"></path>
<path d="M630.5 87h0"></path>
<rect x="602" y="76" width="28.5" height="22" rx="10" ry="10"></rect>
<text x="616.25" y="91">}</text>
</g>
</g>
<path d="M630.5 87a10 10 0 0 1 10 10v40a10 10 0 0 0 10 10"></path>
<path d="M40 147h20"></path>
<g>
<path d="M60 147h238.25"></path>
<path d="M392.25 147h238.25"></path>
<g class="terminal">
<path d="M298.25 147h0"></path>
<path d="M343.75 147h0"></path>
<rect x="298.25" y="136" width="45.5" height="22" rx="10" ry="10"></rect>
<text x="321" y="151">\u{</text>
</g>
<path d="M343.75 147h10"></path>
<path d="M353.75 147h10"></path>
<g class="terminal">
<path d="M363.75 147h0"></path>
<path d="M392.25 147h0"></path>
<rect x="363.75" y="136" width="28.5" height="22" rx="10" ry="10"></rect>
<text x="378" y="151">}</text>
</g>
</g>
<path d="M630.5 147h20"></path>
</g>
<path d="M 650.5 147 h 20 m -10 -10 v 20 m 10 -20 v 20"></path>
</g>
</svg>
