<svg class="railroad-diagram" width="327.5" height="109" viewBox="0 0 327.5 109" role="img" xmlns="http://www.w3.org/2000/svg" version="1.1" xmlns:xlink="http://www.w3.org/1999/xlink"><title>TopLevels &#58;&#61; &#40;TopLevelsInSemi &#124; TopLevel&#41;&#42;</title>
<style><![CDATA[
svg.railroad-diagram {
    background-color: hsl(30,20%,95%);
}
svg.railroad-diagram path {
    stroke-width: 3;
    stroke: black;
    fill: rgba(0,0,0,0);
}
svg.railroad-diagram text {
    font: bold 14px monospace;
    text-anchor: middle;
    white-space: pre;
}
svg.railroad-diagram text.diagram-text {
    font-size: 12px;
}
svg.railroad-diagram text.diagram-arrow {
    font-size: 16px;
}
svg.railroad-diagram text.label {
    text-anchor: start;
}
svg.railroad-diagram text.comment {
    font: italic 12px monospace;
}
svg.railroad-diagram g.non-terminal text {
    /*font-style: italic;*/
}
svg.railroad-diagram rect {
    stroke-width: 3;
    stroke: black;
    fill: hsl(120,100%,90%);
}
svg.railroad-diagram rect.group-box {
    stroke: gray;
    stroke-dasharray: 10 5;
    fill: none;
}
svg.railroad-diagram path.diagram-text {
    stroke-width: 3;
    stroke: black;
    fill: white;
    cursor: help;
}
svg.railroad-diagram g.diagram-text:hover path.diagram-text {
    fill: #eee;
}

]]></style>

<g transform="translate(.5 .5)">
<g>
<path d="M20 59v20m10 -20v20m-10 -10h20"></path>
</g>
<g>
<path d="M40 69h0"></path>
<path d="M287.5 69h0"></path>
<path d="M40 69a10 10 0 0 0 10 -10v-29a10 10 0 0 1 10 -10"></path>
<g>
<path d="M60 20h207.5"></path>
</g>
<path d="M267.5 20a10 10 0 0 1 10 10v29a10 10 0 0 0 10 10"></path>
<path d="M40 69h20"></path>
<g>
<path d="M60 69h0"></path>
<path d="M267.5 69h0"></path>
<path d="M60 69h10"></path>
<g>
<path d="M70 69h0"></path>
<path d="M257.5 69h0"></path>
<path d="M70 69a10 10 0 0 0 10 -10v-10a10 10 0 0 1 10 -10"></path>
<g class="non-terminal">
<path d="M90 39h0"></path>
<path d="M237.5 39h0"></path>
<rect x="90" y="28" width="147.5" height="22"></rect>
<a xlink:href="/reference/syntax/#syntax-for-toplevelsinsemi"><text x="163.75" y="43">TopLevelsInSemi</text>
</a>
</g>
<path d="M237.5 39a10 10 0 0 1 10 10v10a10 10 0 0 0 10 10"></path>
<path d="M70 69h20"></path>
<g class="non-terminal">
<path d="M90 69h29.75"></path>
<path d="M207.75 69h29.75"></path>
<rect x="119.75" y="58" width="88" height="22"></rect>
<a xlink:href="/reference/syntax/#syntax-for-toplevel"><text x="163.75" y="73">TopLevel</text>
</a>
</g>
<path d="M237.5 69h20"></path>
</g>
<path d="M257.5 69h10"></path>
<path d="M70 69a10 10 0 0 0 -10 10v0a10 10 0 0 0 10 10"></path>
<g>
<path d="M70 89h187.5"></path>
</g>
<path d="M257.5 89a10 10 0 0 0 10 -10v0a10 10 0 0 0 -10 -10"></path>
</g>
<path d="M267.5 69h20"></path>
</g>
<path d="M 287.5 69 h 20 m -10 -10 v 20 m 10 -20 v 20"></path>
</g>
</svg>
