<svg class="railroad-diagram" width="676" height="242" viewBox="0 0 676 242" role="img" xmlns="http://www.w3.org/2000/svg" version="1.1" xmlns:xlink="http://www.w3.org/1999/xlink"><title>Arg &#58;&#61; &#34;&#64;&#34; &#40;Expr &#34;&#40;&#34; TopLevelNoGarbageNoComment &#34;&#41;&#34; Arg &#124; Expr Arg&#41; &#124; &#40;&#40;&#41; &#124; &#40;Disallowed&#58; &#40;Disallowed&#58; &#34;let&#34;&#41;&#41;&#41; &#40;ArgNoInit &#34;&#61;&#34; Expr &#124; ArgNoInit &#124; &#34;&#46;&#46;&#46;&#34; &#124; LetArg&#41; &#124; Garbage</title>
<style><![CDATA[
svg.railroad-diagram {
    background-color: hsl(30,20%,95%);
}
svg.railroad-diagram path {
    stroke-width: 3;
    stroke: black;
    fill: rgba(0,0,0,0);
}
svg.railroad-diagram text {
    font: bold 14px monospace;
    text-anchor: middle;
    white-space: pre;
}
svg.railroad-diagram text.diagram-text {
    font-size: 12px;
}
svg.railroad-diagram text.diagram-arrow {
    font-size: 16px;
}
svg.railroad-diagram text.label {
    text-anchor: start;
}
svg.railroad-diagram text.comment {
    font: italic 12px monospace;
}
svg.railroad-diagram g.non-terminal text {
    /*font-style: italic;*/
}
svg.railroad-diagram rect {
    stroke-width: 3;
    stroke: black;
    fill: hsl(120,100%,90%);
}
svg.railroad-diagram rect.group-box {
    stroke: gray;
    stroke-dasharray: 10 5;
    fill: none;
}
svg.railroad-diagram path.diagram-text {
    stroke-width: 3;
    stroke: black;
    fill: white;
    cursor: help;
}
svg.railroad-diagram g.diagram-text:hover path.diagram-text {
    fill: #eee;
}

]]></style>

<g transform="translate(.5 .5)">
<g>
<path d="M20 141v20m10 -20v20m-10 -10h20"></path>
</g>
<g>
<path d="M40 151h0"></path>
<path d="M636 151h0"></path>
<path d="M40 151a10 10 0 0 0 10 -10v-70a10 10 0 0 1 10 -10"></path>
<g>
<path d="M60 61h0"></path>
<path d="M616 61h0"></path>
<g class="terminal">
<path d="M60 61h0"></path>
<path d="M88.5 61h0"></path>
<rect x="60" y="50" width="28.5" height="22" rx="10" ry="10"></rect>
<text x="74.25" y="65">@</text>
</g>
<path d="M88.5 61h10"></path>
<g>
<path d="M98.5 61h0"></path>
<path d="M616 61h0"></path>
<path d="M98.5 61a10 10 0 0 0 10 -10v-10a10 10 0 0 1 10 -10"></path>
<g>
<path d="M118.5 31h0"></path>
<path d="M596 31h0"></path>
<g class="non-terminal">
<path d="M118.5 31h0"></path>
<path d="M172.5 31h0"></path>
<rect x="118.5" y="20" width="54" height="22"></rect>
<a xlink:href="/reference/syntax/#syntax-for-expr"><text x="145.5" y="35">Expr</text>
</a>
</g>
<path d="M172.5 31h10"></path>
<path d="M182.5 31h10"></path>
<g class="terminal">
<path d="M192.5 31h0"></path>
<path d="M221 31h0"></path>
<rect x="192.5" y="20" width="28.5" height="22" rx="10" ry="10"></rect>
<text x="206.75" y="35">(</text>
</g>
<path d="M221 31h10"></path>
<path d="M231 31h10"></path>
<g class="non-terminal">
<path d="M241 31h0"></path>
<path d="M482 31h0"></path>
<rect x="241" y="20" width="241" height="22"></rect>
<a xlink:href="/reference/syntax/#syntax-for-toplevelnogarbagenocomment"><text x="361.5" y="35">TopLevelNoGarbageNoComment</text>
</a>
</g>
<path d="M482 31h10"></path>
<path d="M492 31h10"></path>
<g class="terminal">
<path d="M502 31h0"></path>
<path d="M530.5 31h0"></path>
<rect x="502" y="20" width="28.5" height="22" rx="10" ry="10"></rect>
<text x="516.25" y="35">)</text>
</g>
<path d="M530.5 31h10"></path>
<path d="M540.5 31h10"></path>
<g class="non-terminal">
<path d="M550.5 31h0"></path>
<path d="M596 31h0"></path>
<rect x="550.5" y="20" width="45.5" height="22"></rect>
<a xlink:href="/reference/syntax/#syntax-for-arg"><text x="573.25" y="35">Arg</text>
</a>
</g>
</g>
<path d="M596 31a10 10 0 0 1 10 10v10a10 10 0 0 0 10 10"></path>
<path d="M98.5 61h20"></path>
<g>
<path d="M118.5 61h179"></path>
<path d="M417 61h179"></path>
<g class="non-terminal">
<path d="M297.5 61h0"></path>
<path d="M351.5 61h0"></path>
<rect x="297.5" y="50" width="54" height="22"></rect>
<a xlink:href="/reference/syntax/#syntax-for-expr"><text x="324.5" y="65">Expr</text>
</a>
</g>
<path d="M351.5 61h10"></path>
<path d="M361.5 61h10"></path>
<g class="non-terminal">
<path d="M371.5 61h0"></path>
<path d="M417 61h0"></path>
<rect x="371.5" y="50" width="45.5" height="22"></rect>
<a xlink:href="/reference/syntax/#syntax-for-arg"><text x="394.25" y="65">Arg</text>
</a>
</g>
</g>
<path d="M596 61h20"></path>
</g>
</g>
<path d="M616 61a10 10 0 0 1 10 10v70a10 10 0 0 0 10 10"></path>
<path d="M40 151h20"></path>
<g>
<path d="M60 151h78.5"></path>
<path d="M537.5 151h78.5"></path>
<g>
<path d="M138.5 151h0"></path>
<path d="M278.5 151h0"></path>
<path d="M138.5 151a10 10 0 0 0 10 -10v-47a10 10 0 0 1 10 -10"></path>
<g>
<path d="M158.5 84h100"></path>
</g>
<path d="M258.5 84a10 10 0 0 1 10 10v47a10 10 0 0 0 10 10"></path>
<path d="M138.5 151h20"></path>
<g>
<path d="M158.5 151h0"></path>
<path d="M258.5 151h0"></path>
<rect x="158.5" y="108" width="100" height="70" rx="10" ry="10" class="group-box"></rect>
<g>
<path d="M158.5 151h10"></path>
<path d="M248.5 151h10"></path>
<rect x="168.5" y="132" width="80" height="38" rx="10" ry="10" class="group-box"></rect>
<g class="terminal">
<path d="M168.5 151h17.25"></path>
<path d="M231.25 151h17.25"></path>
<rect x="185.75" y="140" width="45.5" height="22" rx="10" ry="10"></rect>
<text x="208.5" y="155">let</text>
</g>
<g>
<path d="M168.5 124h0"></path>
<path d="M248.5 124h0"></path>
<text x="208.5" y="129" class="comment">Disallowed</text>
</g>
</g>
<g>
<path d="M158.5 100h0"></path>
<path d="M238.5 100h0"></path>
<text x="198.5" y="105" class="comment">Disallowed</text>
</g>
</g>
<path d="M258.5 151h20"></path>
</g>
<g>
<path d="M278.5 151h0"></path>
<path d="M537.5 151h0"></path>
<path d="M278.5 151a10 10 0 0 0 10 -10v-10a10 10 0 0 1 10 -10"></path>
<g class="non-terminal">
<path d="M298.5 121h61.25"></path>
<path d="M456.25 121h61.25"></path>
<rect x="359.75" y="110" width="96.5" height="22"></rect>
<a xlink:href="/reference/syntax/#syntax-for-argnoinit"><text x="408" y="125">ArgNoInit</text>
</a>
</g>
<path d="M517.5 121a10 10 0 0 1 10 10v10a10 10 0 0 0 10 10"></path>
<path d="M278.5 151a10 10 0 0 0 10 -10v-40a10 10 0 0 1 10 -10"></path>
<g>
<path d="M298.5 91h0"></path>
<path d="M517.5 91h0"></path>
<g class="non-terminal">
<path d="M298.5 91h0"></path>
<path d="M395 91h0"></path>
<rect x="298.5" y="80" width="96.5" height="22"></rect>
<a xlink:href="/reference/syntax/#syntax-for-argnoinit"><text x="346.75" y="95">ArgNoInit</text>
</a>
</g>
<path d="M395 91h10"></path>
<path d="M405 91h10"></path>
<g class="terminal">
<path d="M415 91h0"></path>
<path d="M443.5 91h0"></path>
<rect x="415" y="80" width="28.5" height="22" rx="10" ry="10"></rect>
<text x="429.25" y="95">=</text>
</g>
<path d="M443.5 91h10"></path>
<path d="M453.5 91h10"></path>
<g class="non-terminal">
<path d="M463.5 91h0"></path>
<path d="M517.5 91h0"></path>
<rect x="463.5" y="80" width="54" height="22"></rect>
<a xlink:href="/reference/syntax/#syntax-for-expr"><text x="490.5" y="95">Expr</text>
</a>
</g>
</g>
<path d="M517.5 91a10 10 0 0 1 10 10v40a10 10 0 0 0 10 10"></path>
<path d="M278.5 151h20"></path>
<g class="terminal">
<path d="M298.5 151h86.75"></path>
<path d="M430.75 151h86.75"></path>
<rect x="385.25" y="140" width="45.5" height="22" rx="10" ry="10"></rect>
<text x="408" y="155">...</text>
</g>
<path d="M517.5 151h20"></path>
<path d="M278.5 151a10 10 0 0 1 10 10v10a10 10 0 0 0 10 10"></path>
<g class="non-terminal">
<path d="M298.5 181h74"></path>
<path d="M443.5 181h74"></path>
<rect x="372.5" y="170" width="71" height="22"></rect>
<a xlink:href="/reference/syntax/#syntax-for-letarg"><text x="408" y="185">LetArg</text>
</a>
</g>
<path d="M517.5 181a10 10 0 0 0 10 -10v-10a10 10 0 0 1 10 -10"></path>
</g>
</g>
<path d="M616 151h20"></path>
<path d="M40 151a10 10 0 0 1 10 10v40a10 10 0 0 0 10 10"></path>
<g class="non-terminal">
<path d="M60 211h238.25"></path>
<path d="M377.75 211h238.25"></path>
<rect x="298.25" y="200" width="79.5" height="22"></rect>
<a xlink:href="/reference/syntax/#syntax-for-garbage"><text x="338" y="215">Garbage</text>
</a>
</g>
<path d="M616 211a10 10 0 0 0 10 -10v-40a10 10 0 0 1 10 -10"></path>
</g>
<path d="M 636 151 h 20 m -10 -10 v 20 m 10 -20 v 20"></path>
</g>
</svg>
