<?xml version="1.0" encoding="UTF-8" standalone="no"?>
<svg
   xmlns:osb="http://www.openswatchbook.org/uri/2009/osb"
   xmlns:dc="http://purl.org/dc/elements/1.1/"
   xmlns:cc="http://creativecommons.org/ns#"
   xmlns:rdf="http://www.w3.org/1999/02/22-rdf-syntax-ns#"
   xmlns:svg="http://www.w3.org/2000/svg"
   xmlns="http://www.w3.org/2000/svg"
   xmlns:xlink="http://www.w3.org/1999/xlink"
   xmlns:sodipodi="http://sodipodi.sourceforge.net/DTD/sodipodi-0.dtd"
   xmlns:inkscape="http://www.inkscape.org/namespaces/inkscape"
   width="1024px"
   height="1024px"
   viewBox="0 0 1024 1024"
   version="1.1"
   id="SVGRoot"
   sodipodi:docname="temporary-logo-transparent-pathified2.svg"
   inkscape:version="1.0.2 (e86c8708, 2021-01-15)">
  <style>
      #stop1441   { stop-color:#af23ac }
      .logofilled {       fill:#af23ac }
    @media (prefers-color-scheme: dark) {
      #stop1441   { stop-color:#e784e5 }
      .logofilled {       fill:#e784e5 }
    }
  </style>
  <defs
     id="defs603">
    <rect
       x="-66"
       y="-144"
       width="110"
       height="124"
       id="rect1479" />
    <rect
       x="440"
       y="146"
       width="128"
       height="112"
       id="rect1473" />
    <rect
       x="20"
       y="24"
       width="950"
       height="948"
       id="rect1449" />
    <linearGradient
       id="linearGradient1443"
       osb:paint="solid">
      <stop
         style="stop-opacity:1;"
         offset="0"
         id="stop1441" />
    </linearGradient>
    <linearGradient
       inkscape:collect="always"
       xlink:href="#linearGradient1443"
       id="linearGradient1445"
       x1="20"
       y1="513"
       x2="1000"
       y2="513"
       gradientUnits="userSpaceOnUse" />
  </defs>
  <sodipodi:namedview
     id="base"
     pagecolor="#ffffff"
     bordercolor="#666666"
     borderopacity="1.0"
     inkscape:pageopacity="0.0"
     inkscape:pageshadow="2"
     inkscape:zoom="0.5"
     inkscape:cx="311.72908"
     inkscape:cy="560"
     inkscape:document-units="px"
     inkscape:current-layer="layer1"
     inkscape:document-rotation="0"
     showgrid="false"
     inkscape:window-width="1252"
     inkscape:window-height="943"
     inkscape:window-x="0"
     inkscape:window-y="25"
     inkscape:window-maximized="0" />
  <metadata
     id="metadata606">
    <rdf:RDF>
      <cc:Work
         rdf:about="">
        <dc:format>image/svg+xml</dc:format>
        <dc:type
           rdf:resource="http://purl.org/dc/dcmitype/StillImage" />
        <dc:title></dc:title>
      </cc:Work>
    </rdf:RDF>
  </metadata>
  <g
     inkscape:label="Layer 1"
     inkscape:groupmode="layer"
     id="layer1">
    <g
       id="rect616"
       style="opacity:1"
       inkscape:export-xdpi="96"
       inkscape:export-ydpi="96">
      <path
         style="color:#000000;font-style:normal;font-variant:normal;font-weight:normal;font-stretch:normal;font-size:medium;line-height:normal;font-family:sans-serif;font-variant-ligatures:normal;font-variant-position:normal;font-variant-caps:normal;font-variant-numeric:normal;font-variant-alternates:normal;font-variant-east-asian:normal;font-feature-settings:normal;font-variation-settings:normal;text-indent:0;text-align:start;text-decoration:none;text-decoration-line:none;text-decoration-style:solid;text-decoration-color:#000000;letter-spacing:normal;word-spacing:normal;text-transform:none;writing-mode:lr-tb;direction:ltr;text-orientation:mixed;dominant-baseline:auto;baseline-shift:baseline;text-anchor:start;white-space:normal;shape-padding:0;shape-margin:0;inline-size:0;clip-rule:nonzero;display:inline;overflow:visible;visibility:visible;isolation:auto;mix-blend-mode:normal;color-interpolation:sRGB;color-interpolation-filters:linearRGB;solid-color:#000000;solid-opacity:1;vector-effect:none;fill:#fa5cef;fill-opacity:0;fill-rule:evenodd;stroke:none;stroke-width:32;stroke-linecap:butt;stroke-linejoin:bevel;stroke-miterlimit:4;stroke-dasharray:none;stroke-dashoffset:0;stroke-opacity:1.0;color-rendering:auto;image-rendering:auto;shape-rendering:auto;text-rendering:auto;enable-background:accumulate;stop-color:#000000;stop-opacity:1;"
         d="m 20,24 h 980 v 978 H 20 Z"
         id="path895" />
      <path
         style="color:#000000;font-style:normal;font-variant:normal;font-weight:normal;font-stretch:normal;font-size:medium;line-height:normal;font-family:sans-serif;font-variant-ligatures:normal;font-variant-position:normal;font-variant-caps:normal;font-variant-numeric:normal;font-variant-alternates:normal;font-variant-east-asian:normal;font-feature-settings:normal;font-variation-settings:normal;text-indent:0;text-align:start;text-decoration:none;text-decoration-line:none;text-decoration-style:solid;text-decoration-color:#000000;letter-spacing:normal;word-spacing:normal;text-transform:none;writing-mode:lr-tb;direction:ltr;text-orientation:mixed;dominant-baseline:auto;baseline-shift:baseline;text-anchor:start;white-space:normal;shape-padding:0;shape-margin:0;inline-size:0;clip-rule:nonzero;display:inline;overflow:visible;visibility:visible;isolation:auto;mix-blend-mode:normal;color-interpolation:sRGB;color-interpolation-filters:linearRGB;solid-color:#000000;solid-opacity:1;vector-effect:none;fill:url(#linearGradient1445);fill-opacity:1;fill-rule:evenodd;stroke:none;stroke-linecap:butt;stroke-linejoin:bevel;stroke-miterlimit:4;stroke-dasharray:none;stroke-dashoffset:0;stroke-opacity:1.0;color-rendering:auto;image-rendering:auto;shape-rendering:auto;text-rendering:auto;enable-background:accumulate;stop-color:#000000;stop-opacity:1;"
         d="M 20 8 L 4 24 L 4 1002 L 20 1018 L 1000 1018 L 1016 1002 L 1016 24 L 1000 8 L 20 8 z M 36 40 L 984 40 L 984 986 L 36 986 L 36 40 z "
         id="path897" />
    </g>
    <g
       aria-label="/tmp"
       transform="matrix(9.7798365,-3.2973193,4.5757012,24.546539,-410.05066,-478.34997)"
       id="text1447" class="logofilled"
       style="font-style:normal;font-variant:normal;font-weight:normal;font-stretch:normal;font-size:40px;line-height:1.25;font-family:Futura;-inkscape-font-specification:Futura;white-space:pre;shape-inside:url(#rect1449);fill-opacity:1;stroke:none">
      <path
         d="M 20.195312,59.907012 35.273437,29.379668 h 3.496094 L 23.710937,59.907012 Z"
         style="font-style:normal;font-variant:normal;font-weight:normal;font-stretch:normal;font-family:Rockwell;-inkscape-font-specification:Rockwell;fill-opacity:1"
         id="path924" class="logofilled" />
      <path
         d="m 50.78125,38.891387 v 3.613281 h -3.75 v 10.761719 q 0,1.679687 0.351562,2.1875 0.371094,0.488281 1.25,0.488281 1.074219,0 2.148438,-0.371094 v 3.652344 q -1.875,0.546875 -3.027344,0.546875 -2.539062,0 -3.652344,-1.269531 -1.113281,-1.289063 -1.113281,-4.394532 V 42.504668 H 40.3125 v -3.613281 h 2.675781 v -3.105469 l 4.042969,-3.691406 v 6.796875 z"
         style="font-style:normal;font-variant:normal;font-weight:normal;font-stretch:normal;font-family:Rockwell;-inkscape-font-specification:Rockwell;fill-opacity:1"
         id="path926" class="logofilled" />
      <path
         d="M 56.640625,55.82498 V 42.504668 h -3.457031 v -3.613281 h 7.480468 v 2.597656 q 3.613282,-2.871094 7.089844,-2.871094 3.554688,0 4.882813,3.203125 3.945312,-3.203125 7.441406,-3.203125 2.480469,0 3.945312,1.464844 1.484375,1.464844 1.484375,4.492187 v 11.25 h 3.59375 v 3.59375 H 81.503906 V 46.410918 q 0,-1.347656 -0.136719,-2.1875 -0.136718,-0.839844 -0.722656,-1.425781 -0.566406,-0.585938 -1.816406,-0.585938 -1.113281,0 -2.597656,0.664063 -1.484375,0.664062 -3.125,1.992187 V 55.82498 h 3.476562 v 3.59375 H 69.0625 V 45.903105 q 0,-1.972656 -0.605469,-2.832031 -0.585937,-0.859375 -1.953125,-0.859375 -2.226562,0 -5.839844,2.65625 V 55.82498 h 3.613282 v 3.59375 H 52.949219 v -3.59375 z"
         style="font-style:normal;font-variant:normal;font-weight:normal;font-stretch:normal;font-family:Rockwell;-inkscape-font-specification:Rockwell;fill-opacity:1"
         id="path928" class="logofilled" />
      <path
         d="m 115.17578,49.26248 q 0,2.871094 -1.32812,5.371094 -1.32813,2.5 -3.63282,3.945313 -2.28515,1.445312 -5.07812,1.445312 -4.12109,0 -7.207033,-3.164062 v 8.164062 h 4.003903 v 3.59375 H 90.175781 v -3.59375 h 3.710938 V 42.504668 h -3.4375 v -3.613281 h 7.480468 v 3.28125 q 1.523438,-1.796875 3.359373,-2.675782 1.83594,-0.878906 3.92578,-0.878906 2.91016,0 5.17579,1.445313 2.26562,1.425781 3.51562,3.867187 1.26953,2.441406 1.26953,5.332031 z m -10.09765,7.070313 q 1.67968,0 3.02734,-0.976563 1.34766,-0.976562 2.10937,-2.65625 0.76172,-1.679687 0.76172,-3.554687 0,-1.894531 -0.83984,-3.476563 -0.83984,-1.601562 -2.30469,-2.539062 -1.46484,-0.957031 -3.30078,-0.957031 -1.91406,0 -3.4375,1.015625 -1.523438,0.996093 -2.363281,2.65625 -0.839844,1.660156 -0.839844,3.652343 0,3.203125 2.011719,5.019532 2.031246,1.816406 5.175786,1.816406 z"
         style="font-style:normal;font-variant:normal;font-weight:normal;font-stretch:normal;font-family:Rockwell;-inkscape-font-specification:Rockwell;fill-opacity:1"
         id="path930" class="logofilled" />
    </g>
    <g
       id="text1477"
       style="font-style:normal;font-weight:normal;font-size:40px;line-height:1.25;font-family:sans-serif;white-space:pre;shape-inside:url(#rect1479);fill:#000000;fill-opacity:1;stroke:none" />
    <g
       aria-label="★"
       transform="matrix(0.99406295,-0.22037845,0.21257118,0.95884661,0,0)"
       id="text1485" class="logofilled"
       style="font-style:normal;font-weight:normal;font-size:182.294px;line-height:1.25;font-family:sans-serif;fill-opacity:1;stroke:none;stroke-width:4.55735">
      <path
         d="m 373.60995,265.23879 33.82408,-2.84834 q 14.24172,-1.15714 14.59776,-1.15714 4.45054,0 4.45054,3.82746 0,1.51318 -0.89011,2.40329 -0.8901,0.8011 -13.61864,8.90108 l -28.48344,18.2472 18.2472,45.75152 q 0.35605,0.71209 0.35605,2.13626 0,1.33516 -0.97912,2.31428 -0.97912,0.97912 -2.13626,0.97912 -1.06813,0 -2.22527,-0.71209 -1.15714,-0.80109 -12.55051,-10.59228 l -25.27905,-21.89664 -24.92301,21.5406 q -11.74942,10.14723 -12.90656,10.94832 -1.06813,0.71209 -2.13626,0.71209 -1.24615,0 -2.31428,-0.97912 -0.97912,-1.06813 -0.97912,-2.31428 0,-0.8011 5.07362,-13.52963 l 13.52963,-34.35815 -29.0175,-18.60325 q -12.28349,-7.83294 -13.17359,-8.63404 -0.8011,-0.8011 -0.8011,-2.31428 0,-3.91647 4.53955,-3.91647 0.35604,0 12.4615,1.06813 l 35.87133,3.02636 8.09998,-34.44715 q 3.11538,-13.44063 3.82746,-14.77579 0.8011,-1.33516 2.84835,-1.33516 2.13625,0 2.84834,1.51318 0.71209,1.42417 4.09449,15.93293 z"
         style="fill-opacity:1;stroke-width:4.55735"
         id="path917" class="logofilled" />
    </g>
  </g>
</svg>
