<svg class="railroad-diagram" width="550" height="101" viewBox="0 0 550 101" role="img" xmlns="http://www.w3.org/2000/svg" version="1.1" xmlns:xlink="http://www.w3.org/1999/xlink"><title>BlockLambdaSupers &#58;&#61; &#40;&#34;extends&#34; &#124; &#34;implements&#34;&#41; Type &#40;&#34;&#44;&#34; Type&#41;&#42; &#34;&#44;&#34;&#63;</title>
<style><![CDATA[
svg.railroad-diagram {
    background-color: hsl(30,20%,95%);
}
svg.railroad-diagram path {
    stroke-width: 3;
    stroke: black;
    fill: rgba(0,0,0,0);
}
svg.railroad-diagram text {
    font: bold 14px monospace;
    text-anchor: middle;
    white-space: pre;
}
svg.railroad-diagram text.diagram-text {
    font-size: 12px;
}
svg.railroad-diagram text.diagram-arrow {
    font-size: 16px;
}
svg.railroad-diagram text.label {
    text-anchor: start;
}
svg.railroad-diagram text.comment {
    font: italic 12px monospace;
}
svg.railroad-diagram g.non-terminal text {
    /*font-style: italic;*/
}
svg.railroad-diagram rect {
    stroke-width: 3;
    stroke: black;
    fill: hsl(120,100%,90%);
}
svg.railroad-diagram rect.group-box {
    stroke: gray;
    stroke-dasharray: 10 5;
    fill: none;
}
svg.railroad-diagram path.diagram-text {
    stroke-width: 3;
    stroke: black;
    fill: white;
    cursor: help;
}
svg.railroad-diagram g.diagram-text:hover path.diagram-text {
    fill: #eee;
}

]]></style>

<g transform="translate(.5 .5)">
<g>
<path d="M20 51v20m10 -20v20m-10 -10h20"></path>
</g>
<path d="M40 61h10"></path>
<g>
<path d="M50 61h0"></path>
<path d="M500 61h0"></path>
<g>
<path d="M50 61h0"></path>
<path d="M195 61h0"></path>
<path d="M50 61a10 10 0 0 0 10 -10v-10a10 10 0 0 1 10 -10"></path>
<g class="terminal">
<path d="M70 31h12.75"></path>
<path d="M162.25 31h12.75"></path>
<rect x="82.75" y="20" width="79.5" height="22" rx="10" ry="10"></rect>
<text x="122.5" y="35">extends</text>
</g>
<path d="M175 31a10 10 0 0 1 10 10v10a10 10 0 0 0 10 10"></path>
<path d="M50 61h20"></path>
<g class="terminal">
<path d="M70 61h0"></path>
<path d="M175 61h0"></path>
<rect x="70" y="50" width="105" height="22" rx="10" ry="10"></rect>
<text x="122.5" y="65">implements</text>
</g>
<path d="M175 61h20"></path>
</g>
<path d="M195 61h10"></path>
<g class="non-terminal">
<path d="M205 61h0"></path>
<path d="M259 61h0"></path>
<rect x="205" y="50" width="54" height="22"></rect>
<a xlink:href="/reference/syntax/#syntax-for-type"><text x="232" y="65">Type</text>
</a>
</g>
<path d="M259 61h10"></path>
<g>
<path d="M269 61h0"></path>
<path d="M431.5 61h0"></path>
<path d="M269 61a10 10 0 0 0 10 -10v0a10 10 0 0 1 10 -10"></path>
<g>
<path d="M289 41h122.5"></path>
</g>
<path d="M411.5 41a10 10 0 0 1 10 10v0a10 10 0 0 0 10 10"></path>
<path d="M269 61h20"></path>
<g>
<path d="M289 61h0"></path>
<path d="M411.5 61h0"></path>
<path d="M289 61h10"></path>
<g>
<path d="M299 61h0"></path>
<path d="M401.5 61h0"></path>
<g class="terminal">
<path d="M299 61h0"></path>
<path d="M327.5 61h0"></path>
<rect x="299" y="50" width="28.5" height="22" rx="10" ry="10"></rect>
<text x="313.25" y="65">,</text>
</g>
<path d="M327.5 61h10"></path>
<path d="M337.5 61h10"></path>
<g class="non-terminal">
<path d="M347.5 61h0"></path>
<path d="M401.5 61h0"></path>
<rect x="347.5" y="50" width="54" height="22"></rect>
<a xlink:href="/reference/syntax/#syntax-for-type"><text x="374.5" y="65">Type</text>
</a>
</g>
</g>
<path d="M401.5 61h10"></path>
<path d="M299 61a10 10 0 0 0 -10 10v0a10 10 0 0 0 10 10"></path>
<g>
<path d="M299 81h102.5"></path>
</g>
<path d="M401.5 81a10 10 0 0 0 10 -10v0a10 10 0 0 0 -10 -10"></path>
</g>
<path d="M411.5 61h20"></path>
</g>
<g>
<path d="M431.5 61h0"></path>
<path d="M500 61h0"></path>
<path d="M431.5 61a10 10 0 0 0 10 -10v0a10 10 0 0 1 10 -10"></path>
<g>
<path d="M451.5 41h28.5"></path>
</g>
<path d="M480 41a10 10 0 0 1 10 10v0a10 10 0 0 0 10 10"></path>
<path d="M431.5 61h20"></path>
<g class="terminal">
<path d="M451.5 61h0"></path>
<path d="M480 61h0"></path>
<rect x="451.5" y="50" width="28.5" height="22" rx="10" ry="10"></rect>
<text x="465.75" y="65">,</text>
</g>
<path d="M480 61h20"></path>
</g>
</g>
<path d="M500 61h10"></path>
<path d="M 510 61 h 20 m -10 -10 v 20 m 10 -20 v 20"></path>
</g>
</svg>
