<svg class="railroad-diagram" width="358.5" height="122" viewBox="0 0 358.5 122" role="img" xmlns="http://www.w3.org/2000/svg" version="1.1" xmlns:xlink="http://www.w3.org/1999/xlink"><title>MatchCase &#58;&#61; &#34;is&#34; Expr &#124; &#34;case&#34; BalancedTokenList &#124; Expr</title>
<style><![CDATA[
svg.railroad-diagram {
    background-color: hsl(30,20%,95%);
}
svg.railroad-diagram path {
    stroke-width: 3;
    stroke: black;
    fill: rgba(0,0,0,0);
}
svg.railroad-diagram text {
    font: bold 14px monospace;
    text-anchor: middle;
    white-space: pre;
}
svg.railroad-diagram text.diagram-text {
    font-size: 12px;
}
svg.railroad-diagram text.diagram-arrow {
    font-size: 16px;
}
svg.railroad-diagram text.label {
    text-anchor: start;
}
svg.railroad-diagram text.comment {
    font: italic 12px monospace;
}
svg.railroad-diagram g.non-terminal text {
    /*font-style: italic;*/
}
svg.railroad-diagram rect {
    stroke-width: 3;
    stroke: black;
    fill: hsl(120,100%,90%);
}
svg.railroad-diagram rect.group-box {
    stroke: gray;
    stroke-dasharray: 10 5;
    fill: none;
}
svg.railroad-diagram path.diagram-text {
    stroke-width: 3;
    stroke: black;
    fill: white;
    cursor: help;
}
svg.railroad-diagram g.diagram-text:hover path.diagram-text {
    fill: #eee;
}

]]></style>

<g transform="translate(.5 .5)">
<g>
<path d="M20 51v20m10 -20v20m-10 -10h20"></path>
</g>
<g>
<path d="M40 61h0"></path>
<path d="M318.5 61h0"></path>
<path d="M40 61a10 10 0 0 0 10 -10v-10a10 10 0 0 1 10 -10"></path>
<g>
<path d="M60 31h63.75"></path>
<path d="M234.75 31h63.75"></path>
<g class="terminal">
<path d="M123.75 31h0"></path>
<path d="M160.75 31h0"></path>
<rect x="123.75" y="20" width="37" height="22" rx="10" ry="10"></rect>
<text x="142.25" y="35">is</text>
</g>
<path d="M160.75 31h10"></path>
<path d="M170.75 31h10"></path>
<g class="non-terminal">
<path d="M180.75 31h0"></path>
<path d="M234.75 31h0"></path>
<rect x="180.75" y="20" width="54" height="22"></rect>
<a xlink:href="/reference/syntax/#syntax-for-expr"><text x="207.75" y="35">Expr</text>
</a>
</g>
</g>
<path d="M298.5 31a10 10 0 0 1 10 10v10a10 10 0 0 0 10 10"></path>
<path d="M40 61h20"></path>
<g>
<path d="M60 61h0"></path>
<path d="M298.5 61h0"></path>
<g class="terminal">
<path d="M60 61h0"></path>
<path d="M114 61h0"></path>
<rect x="60" y="50" width="54" height="22" rx="10" ry="10"></rect>
<text x="87" y="65">case</text>
</g>
<path d="M114 61h10"></path>
<path d="M124 61h10"></path>
<g class="non-terminal">
<path d="M134 61h0"></path>
<path d="M298.5 61h0"></path>
<rect x="134" y="50" width="164.5" height="22"></rect>
<a xlink:href="/reference/syntax/#syntax-for-balancedtokenlist"><text x="216.25" y="65">BalancedTokenList</text>
</a>
</g>
</g>
<path d="M298.5 61h20"></path>
<path d="M40 61a10 10 0 0 1 10 10v10a10 10 0 0 0 10 10"></path>
<g class="non-terminal">
<path d="M60 91h92.25"></path>
<path d="M206.25 91h92.25"></path>
<rect x="152.25" y="80" width="54" height="22"></rect>
<a xlink:href="/reference/syntax/#syntax-for-expr"><text x="179.25" y="95">Expr</text>
</a>
</g>
<path d="M298.5 91a10 10 0 0 0 10 -10v-10a10 10 0 0 1 10 -10"></path>
</g>
<path d="M 318.5 61 h 20 m -10 -10 v 20 m 10 -20 v 20"></path>
</g>
</svg>
