<svg class="railroad-diagram" width="439" height="140" viewBox="0 0 439 140" role="img" xmlns="http://www.w3.org/2000/svg" version="1.1" xmlns:xlink="http://www.w3.org/1999/xlink"><title>BlockLambdaSignature &#58;&#61; &#34;&#40;&#34; Formals&#63; &#34;&#41;&#34; &#34;&#58;&#34; Type &#124; &#34;&#40;&#34; &#40;&#34;&#46;&#46;&#46;&#34; &#124; Formals&#63;&#41; &#34;&#41;&#34;</title>
<style><![CDATA[
svg.railroad-diagram {
    background-color: hsl(30,20%,95%);
}
svg.railroad-diagram path {
    stroke-width: 3;
    stroke: black;
    fill: rgba(0,0,0,0);
}
svg.railroad-diagram text {
    font: bold 14px monospace;
    text-anchor: middle;
    white-space: pre;
}
svg.railroad-diagram text.diagram-text {
    font-size: 12px;
}
svg.railroad-diagram text.diagram-arrow {
    font-size: 16px;
}
svg.railroad-diagram text.label {
    text-anchor: start;
}
svg.railroad-diagram text.comment {
    font: italic 12px monospace;
}
svg.railroad-diagram g.non-terminal text {
    /*font-style: italic;*/
}
svg.railroad-diagram rect {
    stroke-width: 3;
    stroke: black;
    fill: hsl(120,100%,90%);
}
svg.railroad-diagram rect.group-box {
    stroke: gray;
    stroke-dasharray: 10 5;
    fill: none;
}
svg.railroad-diagram path.diagram-text {
    stroke-width: 3;
    stroke: black;
    fill: white;
    cursor: help;
}
svg.railroad-diagram g.diagram-text:hover path.diagram-text {
    fill: #eee;
}

]]></style>

<g transform="translate(.5 .5)">
<g>
<path d="M20 99v20m10 -20v20m-10 -10h20"></path>
</g>
<g>
<path d="M40 109h0"></path>
<path d="M399 109h0"></path>
<path d="M40 109a10 10 0 0 0 10 -10v-49a10 10 0 0 1 10 -10"></path>
<g>
<path d="M60 40h0"></path>
<path d="M379 40h0"></path>
<g class="terminal">
<path d="M60 40h0"></path>
<path d="M88.5 40h0"></path>
<rect x="60" y="29" width="28.5" height="22" rx="10" ry="10"></rect>
<text x="74.25" y="44">(</text>
</g>
<path d="M88.5 40h10"></path>
<g>
<path d="M98.5 40h0"></path>
<path d="M218 40h0"></path>
<path d="M98.5 40a10 10 0 0 0 10 -10v0a10 10 0 0 1 10 -10"></path>
<g>
<path d="M118.5 20h79.5"></path>
</g>
<path d="M198 20a10 10 0 0 1 10 10v0a10 10 0 0 0 10 10"></path>
<path d="M98.5 40h20"></path>
<g class="non-terminal">
<path d="M118.5 40h0"></path>
<path d="M198 40h0"></path>
<rect x="118.5" y="29" width="79.5" height="22"></rect>
<a xlink:href="/reference/syntax/#syntax-for-formals"><text x="158.25" y="44">Formals</text>
</a>
</g>
<path d="M198 40h20"></path>
</g>
<path d="M218 40h10"></path>
<g class="terminal">
<path d="M228 40h0"></path>
<path d="M256.5 40h0"></path>
<rect x="228" y="29" width="28.5" height="22" rx="10" ry="10"></rect>
<text x="242.25" y="44">)</text>
</g>
<path d="M256.5 40h10"></path>
<path d="M266.5 40h10"></path>
<g class="terminal">
<path d="M276.5 40h0"></path>
<path d="M305 40h0"></path>
<rect x="276.5" y="29" width="28.5" height="22" rx="10" ry="10"></rect>
<text x="290.75" y="44">:</text>
</g>
<path d="M305 40h10"></path>
<path d="M315 40h10"></path>
<g class="non-terminal">
<path d="M325 40h0"></path>
<path d="M379 40h0"></path>
<rect x="325" y="29" width="54" height="22"></rect>
<a xlink:href="/reference/syntax/#syntax-for-type"><text x="352" y="44">Type</text>
</a>
</g>
</g>
<path d="M379 40a10 10 0 0 1 10 10v49a10 10 0 0 0 10 10"></path>
<path d="M40 109h20"></path>
<g>
<path d="M60 109h41.25"></path>
<path d="M337.75 109h41.25"></path>
<g class="terminal">
<path d="M101.25 109h0"></path>
<path d="M129.75 109h0"></path>
<rect x="101.25" y="98" width="28.5" height="22" rx="10" ry="10"></rect>
<text x="115.5" y="113">(</text>
</g>
<path d="M129.75 109h10"></path>
<g>
<path d="M139.75 109h0"></path>
<path d="M299.25 109h0"></path>
<path d="M139.75 109a10 10 0 0 0 10 -10v-19a10 10 0 0 1 10 -10"></path>
<g class="terminal">
<path d="M159.75 70h37"></path>
<path d="M242.25 70h37"></path>
<rect x="196.75" y="59" width="45.5" height="22" rx="10" ry="10"></rect>
<text x="219.5" y="74">...</text>
</g>
<path d="M279.25 70a10 10 0 0 1 10 10v19a10 10 0 0 0 10 10"></path>
<path d="M139.75 109h20"></path>
<g>
<path d="M159.75 109h0"></path>
<path d="M279.25 109h0"></path>
<path d="M159.75 109a10 10 0 0 0 10 -10v0a10 10 0 0 1 10 -10"></path>
<g>
<path d="M179.75 89h79.5"></path>
</g>
<path d="M259.25 89a10 10 0 0 1 10 10v0a10 10 0 0 0 10 10"></path>
<path d="M159.75 109h20"></path>
<g class="non-terminal">
<path d="M179.75 109h0"></path>
<path d="M259.25 109h0"></path>
<rect x="179.75" y="98" width="79.5" height="22"></rect>
<a xlink:href="/reference/syntax/#syntax-for-formals"><text x="219.5" y="113">Formals</text>
</a>
</g>
<path d="M259.25 109h20"></path>
</g>
<path d="M279.25 109h20"></path>
</g>
<path d="M299.25 109h10"></path>
<g class="terminal">
<path d="M309.25 109h0"></path>
<path d="M337.75 109h0"></path>
<rect x="309.25" y="98" width="28.5" height="22" rx="10" ry="10"></rect>
<text x="323.5" y="113">)</text>
</g>
</g>
<path d="M379 109h20"></path>
</g>
<path d="M 399 109 h 20 m -10 -10 v 20 m 10 -20 v 20"></path>
</g>
</svg>
