<svg class="railroad-diagram" width="355" height="94" viewBox="0 0 355 94" role="img" xmlns="http://www.w3.org/2000/svg" version="1.1" xmlns:xlink="http://www.w3.org/1999/xlink"><title>InfixOp &#58;&#61; &#40;Infix operators but not &#96;callJoin&#58;&#96;&#58; InfixOperators&#41;</title>
<style><![CDATA[
svg.railroad-diagram {
    background-color: hsl(30,20%,95%);
}
svg.railroad-diagram path {
    stroke-width: 3;
    stroke: black;
    fill: rgba(0,0,0,0);
}
svg.railroad-diagram text {
    font: bold 14px monospace;
    text-anchor: middle;
    white-space: pre;
}
svg.railroad-diagram text.diagram-text {
    font-size: 12px;
}
svg.railroad-diagram text.diagram-arrow {
    font-size: 16px;
}
svg.railroad-diagram text.label {
    text-anchor: start;
}
svg.railroad-diagram text.comment {
    font: italic 12px monospace;
}
svg.railroad-diagram g.non-terminal text {
    /*font-style: italic;*/
}
svg.railroad-diagram rect {
    stroke-width: 3;
    stroke: black;
    fill: hsl(120,100%,90%);
}
svg.railroad-diagram rect.group-box {
    stroke: gray;
    stroke-dasharray: 10 5;
    fill: none;
}
svg.railroad-diagram path.diagram-text {
    stroke-width: 3;
    stroke: black;
    fill: white;
    cursor: help;
}
svg.railroad-diagram g.diagram-text:hover path.diagram-text {
    fill: #eee;
}

]]></style>

<g transform="translate(.5 .5)">
<g>
<path d="M20 45v20m10 -20v20m-10 -10h20"></path>
</g>
<path d="M40 55h10"></path>
<g>
<path d="M50 55h0"></path>
<path d="M305 55h0"></path>
<rect x="50" y="36" width="255" height="38" rx="10" ry="10" class="group-box"></rect>
<g class="non-terminal">
<path d="M50 55h58"></path>
<path d="M247 55h58"></path>
<rect x="108" y="44" width="139" height="22"></rect>
<text x="177.5" y="59">InfixOperators</text>
</g>
<g>
<path d="M50 28h0"></path>
<path d="M305 28h0"></path>
<text x="177.5" y="33" class="comment">Infix operators but not &#96;callJoin:&#96;</text>
</g>
</g>
<path d="M305 55h10"></path>
<path d="M 315 55 h 20 m -10 -10 v 20 m 10 -20 v 20"></path>
</g>
</svg>
