<svg class="railroad-diagram" width="578" height="887" viewBox="0 0 578 887" role="img" xmlns="http://www.w3.org/2000/svg" version="1.1" xmlns:xlink="http://www.w3.org/1999/xlink"><title>Expr &#58;&#61; QuasiTree &#124; QuasiAst &#124; QuasiHole &#124; Jump &#124; AwaitReturnThrowYield &#124; Id &#124; TypeArgumentName &#124; SymbolLiteral &#124; List &#124; New &#124; Prefix &#124; SpecialDot &#124; RegularDot &#124; Call &#124; StringLiteral &#124; &#34;&#40;&#34; &#40;&#40;Disallowed&#58; &#40;&#41;&#41; TopLevelNoGarbageNoComment &#124; Garbage&#41; &#34;&#41;&#34; &#124; OfExpr &#124; Throws &#124; Infix &#124; Postfix &#124; Member &#124; Specialize &#124; Literal &#124; RegExp &#124; Obj &#124; RawBlock &#124; &#34;&#40;&#34; Garbage</title>
<style><![CDATA[
svg.railroad-diagram {
    background-color: hsl(30,20%,95%);
}
svg.railroad-diagram path {
    stroke-width: 3;
    stroke: black;
    fill: rgba(0,0,0,0);
}
svg.railroad-diagram text {
    font: bold 14px monospace;
    text-anchor: middle;
    white-space: pre;
}
svg.railroad-diagram text.diagram-text {
    font-size: 12px;
}
svg.railroad-diagram text.diagram-arrow {
    font-size: 16px;
}
svg.railroad-diagram text.label {
    text-anchor: start;
}
svg.railroad-diagram text.comment {
    font: italic 12px monospace;
}
svg.railroad-diagram g.non-terminal text {
    /*font-style: italic;*/
}
svg.railroad-diagram rect {
    stroke-width: 3;
    stroke: black;
    fill: hsl(120,100%,90%);
}
svg.railroad-diagram rect.group-box {
    stroke: gray;
    stroke-dasharray: 10 5;
    fill: none;
}
svg.railroad-diagram path.diagram-text {
    stroke-width: 3;
    stroke: black;
    fill: white;
    cursor: help;
}
svg.railroad-diagram g.diagram-text:hover path.diagram-text {
    fill: #eee;
}

]]></style>

<g transform="translate(.5 .5)">
<g>
<path d="M20 411v20m10 -20v20m-10 -10h20"></path>
</g>
<g>
<path d="M40 421h0"></path>
<path d="M538 421h0"></path>
<path d="M40 421a10 10 0 0 0 10 -10v-10a10 10 0 0 1 10 -10"></path>
<g class="non-terminal">
<path d="M60 391h176.5"></path>
<path d="M341.5 391h176.5"></path>
<rect x="236.5" y="380" width="105" height="22"></rect>
<a xlink:href="/reference/syntax/#syntax-for-regulardot"><text x="289" y="395">RegularDot</text>
</a>
</g>
<path d="M518 391a10 10 0 0 1 10 10v10a10 10 0 0 0 10 10"></path>
<path d="M40 421a10 10 0 0 0 10 -10v-40a10 10 0 0 1 10 -10"></path>
<g class="non-terminal">
<path d="M60 361h176.5"></path>
<path d="M341.5 361h176.5"></path>
<rect x="236.5" y="350" width="105" height="22"></rect>
<a xlink:href="/reference/syntax/#syntax-for-specialdot"><text x="289" y="365">SpecialDot</text>
</a>
</g>
<path d="M518 361a10 10 0 0 1 10 10v40a10 10 0 0 0 10 10"></path>
<path d="M40 421a10 10 0 0 0 10 -10v-70a10 10 0 0 1 10 -10"></path>
<g class="non-terminal">
<path d="M60 331h193.5"></path>
<path d="M324.5 331h193.5"></path>
<rect x="253.5" y="320" width="71" height="22"></rect>
<a xlink:href="/reference/syntax/#syntax-for-prefix"><text x="289" y="335">Prefix</text>
</a>
</g>
<path d="M518 331a10 10 0 0 1 10 10v70a10 10 0 0 0 10 10"></path>
<path d="M40 421a10 10 0 0 0 10 -10v-100a10 10 0 0 1 10 -10"></path>
<g class="non-terminal">
<path d="M60 301h206.25"></path>
<path d="M311.75 301h206.25"></path>
<rect x="266.25" y="290" width="45.5" height="22"></rect>
<a xlink:href="/reference/syntax/#syntax-for-new"><text x="289" y="305">New</text>
</a>
</g>
<path d="M518 301a10 10 0 0 1 10 10v100a10 10 0 0 0 10 10"></path>
<path d="M40 421a10 10 0 0 0 10 -10v-130a10 10 0 0 1 10 -10"></path>
<g class="non-terminal">
<path d="M60 271h202"></path>
<path d="M316 271h202"></path>
<rect x="262" y="260" width="54" height="22"></rect>
<a xlink:href="/reference/syntax/#syntax-for-list"><text x="289" y="275">List</text>
</a>
</g>
<path d="M518 271a10 10 0 0 1 10 10v130a10 10 0 0 0 10 10"></path>
<path d="M40 421a10 10 0 0 0 10 -10v-160a10 10 0 0 1 10 -10"></path>
<g class="non-terminal">
<path d="M60 241h163.75"></path>
<path d="M354.25 241h163.75"></path>
<rect x="223.75" y="230" width="130.5" height="22"></rect>
<a xlink:href="/reference/syntax/#syntax-for-symbolliteral"><text x="289" y="245">SymbolLiteral</text>
</a>
</g>
<path d="M518 241a10 10 0 0 1 10 10v160a10 10 0 0 0 10 10"></path>
<path d="M40 421a10 10 0 0 0 10 -10v-190a10 10 0 0 1 10 -10"></path>
<g class="non-terminal">
<path d="M60 211h151"></path>
<path d="M367 211h151"></path>
<rect x="211" y="200" width="156" height="22"></rect>
<a xlink:href="/reference/syntax/#syntax-for-typeargumentname"><text x="289" y="215">TypeArgumentName</text>
</a>
</g>
<path d="M518 211a10 10 0 0 1 10 10v190a10 10 0 0 0 10 10"></path>
<path d="M40 421a10 10 0 0 0 10 -10v-220a10 10 0 0 1 10 -10"></path>
<g class="non-terminal">
<path d="M60 181h210.5"></path>
<path d="M307.5 181h210.5"></path>
<rect x="270.5" y="170" width="37" height="22"></rect>
<a xlink:href="/reference/syntax/#syntax-for-id"><text x="289" y="185">Id</text>
</a>
</g>
<path d="M518 181a10 10 0 0 1 10 10v220a10 10 0 0 0 10 10"></path>
<path d="M40 421a10 10 0 0 0 10 -10v-250a10 10 0 0 1 10 -10"></path>
<g class="non-terminal">
<path d="M60 151h129.75"></path>
<path d="M388.25 151h129.75"></path>
<rect x="189.75" y="140" width="198.5" height="22"></rect>
<a xlink:href="/reference/syntax/#syntax-for-awaitreturnthrowyield"><text x="289" y="155">AwaitReturnThrowYield</text>
</a>
</g>
<path d="M518 151a10 10 0 0 1 10 10v250a10 10 0 0 0 10 10"></path>
<path d="M40 421a10 10 0 0 0 10 -10v-280a10 10 0 0 1 10 -10"></path>
<g class="non-terminal">
<path d="M60 121h202"></path>
<path d="M316 121h202"></path>
<rect x="262" y="110" width="54" height="22"></rect>
<a xlink:href="/reference/syntax/#syntax-for-jump"><text x="289" y="125">Jump</text>
</a>
</g>
<path d="M518 121a10 10 0 0 1 10 10v280a10 10 0 0 0 10 10"></path>
<path d="M40 421a10 10 0 0 0 10 -10v-310a10 10 0 0 1 10 -10"></path>
<g class="non-terminal">
<path d="M60 91h180.75"></path>
<path d="M337.25 91h180.75"></path>
<rect x="240.75" y="80" width="96.5" height="22"></rect>
<a xlink:href="/reference/syntax/#syntax-for-quasihole"><text x="289" y="95">QuasiHole</text>
</a>
</g>
<path d="M518 91a10 10 0 0 1 10 10v310a10 10 0 0 0 10 10"></path>
<path d="M40 421a10 10 0 0 0 10 -10v-340a10 10 0 0 1 10 -10"></path>
<g class="non-terminal">
<path d="M60 61h185"></path>
<path d="M333 61h185"></path>
<rect x="245" y="50" width="88" height="22"></rect>
<a xlink:href="/reference/syntax/#syntax-for-quasiast"><text x="289" y="65">QuasiAst</text>
</a>
</g>
<path d="M518 61a10 10 0 0 1 10 10v340a10 10 0 0 0 10 10"></path>
<path d="M40 421a10 10 0 0 0 10 -10v-370a10 10 0 0 1 10 -10"></path>
<g class="non-terminal">
<path d="M60 31h180.75"></path>
<path d="M337.25 31h180.75"></path>
<rect x="240.75" y="20" width="96.5" height="22"></rect>
<a xlink:href="/reference/syntax/#syntax-for-quasitree"><text x="289" y="35">QuasiTree</text>
</a>
</g>
<path d="M518 31a10 10 0 0 1 10 10v370a10 10 0 0 0 10 10"></path>
<path d="M40 421h20"></path>
<g class="non-terminal">
<path d="M60 421h202"></path>
<path d="M316 421h202"></path>
<rect x="262" y="410" width="54" height="22"></rect>
<a xlink:href="/reference/syntax/#syntax-for-call"><text x="289" y="425">Call</text>
</a>
</g>
<path d="M518 421h20"></path>
<path d="M40 421a10 10 0 0 1 10 10v10a10 10 0 0 0 10 10"></path>
<g class="non-terminal">
<path d="M60 451h163.75"></path>
<path d="M354.25 451h163.75"></path>
<rect x="223.75" y="440" width="130.5" height="22"></rect>
<a xlink:href="/reference/syntax/#syntax-for-stringliteral"><text x="289" y="455">StringLiteral</text>
</a>
</g>
<path d="M518 451a10 10 0 0 0 10 -10v-10a10 10 0 0 1 10 -10"></path>
<path d="M40 421a10 10 0 0 1 10 10v85a10 10 0 0 0 10 10"></path>
<g>
<path d="M60 526h0"></path>
<path d="M518 526h0"></path>
<g class="terminal">
<path d="M60 526h0"></path>
<path d="M88.5 526h0"></path>
<rect x="60" y="515" width="28.5" height="22" rx="10" ry="10"></rect>
<text x="74.25" y="530">(</text>
</g>
<path d="M88.5 526h10"></path>
<g>
<path d="M98.5 526h0"></path>
<path d="M479.5 526h0"></path>
<path d="M98.5 526a10 10 0 0 0 10 -10v-10a10 10 0 0 1 10 -10"></path>
<g>
<path d="M118.5 496h0"></path>
<path d="M459.5 496h0"></path>
<g>
<path d="M118.5 496h0"></path>
<path d="M198.5 496h0"></path>
<rect x="118.5" y="486" width="80" height="20" rx="10" ry="10" class="group-box"></rect>
<g>
<path d="M118.5 496h80"></path>
</g>
<g>
<path d="M118.5 478h0"></path>
<path d="M198.5 478h0"></path>
<text x="158.5" y="483" class="comment">Disallowed</text>
</g>
</g>
<path d="M198.5 496h10"></path>
<path d="M208.5 496h10"></path>
<g class="non-terminal">
<path d="M218.5 496h0"></path>
<path d="M459.5 496h0"></path>
<rect x="218.5" y="485" width="241" height="22"></rect>
<a xlink:href="/reference/syntax/#syntax-for-toplevelnogarbagenocomment"><text x="339" y="500">TopLevelNoGarbageNoComment</text>
</a>
</g>
</g>
<path d="M459.5 496a10 10 0 0 1 10 10v10a10 10 0 0 0 10 10"></path>
<path d="M98.5 526h20"></path>
<g class="non-terminal">
<path d="M118.5 526h130.75"></path>
<path d="M328.75 526h130.75"></path>
<rect x="249.25" y="515" width="79.5" height="22"></rect>
<a xlink:href="/reference/syntax/#syntax-for-garbage"><text x="289" y="530">Garbage</text>
</a>
</g>
<path d="M459.5 526h20"></path>
</g>
<path d="M479.5 526h10"></path>
<g class="terminal">
<path d="M489.5 526h0"></path>
<path d="M518 526h0"></path>
<rect x="489.5" y="515" width="28.5" height="22" rx="10" ry="10"></rect>
<text x="503.75" y="530">)</text>
</g>
</g>
<path d="M518 526a10 10 0 0 0 10 -10v-85a10 10 0 0 1 10 -10"></path>
<path d="M40 421a10 10 0 0 1 10 10v115a10 10 0 0 0 10 10"></path>
<g class="non-terminal">
<path d="M60 556h193.5"></path>
<path d="M324.5 556h193.5"></path>
<rect x="253.5" y="545" width="71" height="22"></rect>
<a xlink:href="/reference/syntax/#syntax-for-ofexpr"><text x="289" y="560">OfExpr</text>
</a>
</g>
<path d="M518 556a10 10 0 0 0 10 -10v-115a10 10 0 0 1 10 -10"></path>
<path d="M40 421a10 10 0 0 1 10 10v145a10 10 0 0 0 10 10"></path>
<g class="non-terminal">
<path d="M60 586h193.5"></path>
<path d="M324.5 586h193.5"></path>
<rect x="253.5" y="575" width="71" height="22"></rect>
<a xlink:href="/reference/syntax/#syntax-for-throws"><text x="289" y="590">Throws</text>
</a>
</g>
<path d="M518 586a10 10 0 0 0 10 -10v-145a10 10 0 0 1 10 -10"></path>
<path d="M40 421a10 10 0 0 1 10 10v175a10 10 0 0 0 10 10"></path>
<g class="non-terminal">
<path d="M60 616h197.75"></path>
<path d="M320.25 616h197.75"></path>
<rect x="257.75" y="605" width="62.5" height="22"></rect>
<a xlink:href="/reference/syntax/#syntax-for-infix"><text x="289" y="620">Infix</text>
</a>
</g>
<path d="M518 616a10 10 0 0 0 10 -10v-175a10 10 0 0 1 10 -10"></path>
<path d="M40 421a10 10 0 0 1 10 10v205a10 10 0 0 0 10 10"></path>
<g class="non-terminal">
<path d="M60 646h189.25"></path>
<path d="M328.75 646h189.25"></path>
<rect x="249.25" y="635" width="79.5" height="22"></rect>
<a xlink:href="/reference/syntax/#syntax-for-postfix"><text x="289" y="650">Postfix</text>
</a>
</g>
<path d="M518 646a10 10 0 0 0 10 -10v-205a10 10 0 0 1 10 -10"></path>
<path d="M40 421a10 10 0 0 1 10 10v235a10 10 0 0 0 10 10"></path>
<g class="non-terminal">
<path d="M60 676h193.5"></path>
<path d="M324.5 676h193.5"></path>
<rect x="253.5" y="665" width="71" height="22"></rect>
<a xlink:href="/reference/syntax/#syntax-for-member"><text x="289" y="680">Member</text>
</a>
</g>
<path d="M518 676a10 10 0 0 0 10 -10v-235a10 10 0 0 1 10 -10"></path>
<path d="M40 421a10 10 0 0 1 10 10v265a10 10 0 0 0 10 10"></path>
<g class="non-terminal">
<path d="M60 706h176.5"></path>
<path d="M341.5 706h176.5"></path>
<rect x="236.5" y="695" width="105" height="22"></rect>
<a xlink:href="/reference/syntax/#syntax-for-specialize"><text x="289" y="710">Specialize</text>
</a>
</g>
<path d="M518 706a10 10 0 0 0 10 -10v-265a10 10 0 0 1 10 -10"></path>
<path d="M40 421a10 10 0 0 1 10 10v295a10 10 0 0 0 10 10"></path>
<g class="non-terminal">
<path d="M60 736h189.25"></path>
<path d="M328.75 736h189.25"></path>
<rect x="249.25" y="725" width="79.5" height="22"></rect>
<a xlink:href="/reference/syntax/#syntax-for-literal"><text x="289" y="740">Literal</text>
</a>
</g>
<path d="M518 736a10 10 0 0 0 10 -10v-295a10 10 0 0 1 10 -10"></path>
<path d="M40 421a10 10 0 0 1 10 10v325a10 10 0 0 0 10 10"></path>
<g class="non-terminal">
<path d="M60 766h193.5"></path>
<path d="M324.5 766h193.5"></path>
<rect x="253.5" y="755" width="71" height="22"></rect>
<a xlink:href="/reference/syntax/#syntax-for-regexp"><text x="289" y="770">RegExp</text>
</a>
</g>
<path d="M518 766a10 10 0 0 0 10 -10v-325a10 10 0 0 1 10 -10"></path>
<path d="M40 421a10 10 0 0 1 10 10v355a10 10 0 0 0 10 10"></path>
<g class="non-terminal">
<path d="M60 796h206.25"></path>
<path d="M311.75 796h206.25"></path>
<rect x="266.25" y="785" width="45.5" height="22"></rect>
<a xlink:href="/reference/syntax/#syntax-for-obj"><text x="289" y="800">Obj</text>
</a>
</g>
<path d="M518 796a10 10 0 0 0 10 -10v-355a10 10 0 0 1 10 -10"></path>
<path d="M40 421a10 10 0 0 1 10 10v385a10 10 0 0 0 10 10"></path>
<g class="non-terminal">
<path d="M60 826h185"></path>
<path d="M333 826h185"></path>
<rect x="245" y="815" width="88" height="22"></rect>
<a xlink:href="/reference/syntax/#syntax-for-rawblock"><text x="289" y="830">RawBlock</text>
</a>
</g>
<path d="M518 826a10 10 0 0 0 10 -10v-385a10 10 0 0 1 10 -10"></path>
<path d="M40 421a10 10 0 0 1 10 10v415a10 10 0 0 0 10 10"></path>
<g>
<path d="M60 856h165"></path>
<path d="M353 856h165"></path>
<g class="terminal">
<path d="M225 856h0"></path>
<path d="M253.5 856h0"></path>
<rect x="225" y="845" width="28.5" height="22" rx="10" ry="10"></rect>
<text x="239.25" y="860">(</text>
</g>
<path d="M253.5 856h10"></path>
<path d="M263.5 856h10"></path>
<g class="non-terminal">
<path d="M273.5 856h0"></path>
<path d="M353 856h0"></path>
<rect x="273.5" y="845" width="79.5" height="22"></rect>
<a xlink:href="/reference/syntax/#syntax-for-garbage"><text x="313.25" y="860">Garbage</text>
</a>
</g>
</g>
<path d="M518 856a10 10 0 0 0 10 -10v-415a10 10 0 0 1 10 -10"></path>
</g>
<path d="M 538 421 h 20 m -10 -10 v 20 m 10 -20 v 20"></path>
</g>
</svg>
