<svg class="railroad-diagram" width="242" height="131" viewBox="0 0 242 131" role="img" xmlns="http://www.w3.org/2000/svg" version="1.1" xmlns:xlink="http://www.w3.org/1999/xlink"><title>ListContent &#58;&#61; ListElements &#124; ListElement &#124; Garbage&#63;</title>
<style><![CDATA[
svg.railroad-diagram {
    background-color: hsl(30,20%,95%);
}
svg.railroad-diagram path {
    stroke-width: 3;
    stroke: black;
    fill: rgba(0,0,0,0);
}
svg.railroad-diagram text {
    font: bold 14px monospace;
    text-anchor: middle;
    white-space: pre;
}
svg.railroad-diagram text.diagram-text {
    font-size: 12px;
}
svg.railroad-diagram text.diagram-arrow {
    font-size: 16px;
}
svg.railroad-diagram text.label {
    text-anchor: start;
}
svg.railroad-diagram text.comment {
    font: italic 12px monospace;
}
svg.railroad-diagram g.non-terminal text {
    /*font-style: italic;*/
}
svg.railroad-diagram rect {
    stroke-width: 3;
    stroke: black;
    fill: hsl(120,100%,90%);
}
svg.railroad-diagram rect.group-box {
    stroke: gray;
    stroke-dasharray: 10 5;
    fill: none;
}
svg.railroad-diagram path.diagram-text {
    stroke-width: 3;
    stroke: black;
    fill: white;
    cursor: help;
}
svg.railroad-diagram g.diagram-text:hover path.diagram-text {
    fill: #eee;
}

]]></style>

<g transform="translate(.5 .5)">
<g>
<path d="M20 51v20m10 -20v20m-10 -10h20"></path>
</g>
<g>
<path d="M40 61h0"></path>
<path d="M202 61h0"></path>
<path d="M40 61a10 10 0 0 0 10 -10v-10a10 10 0 0 1 10 -10"></path>
<g class="non-terminal">
<path d="M60 31h0"></path>
<path d="M182 31h0"></path>
<rect x="60" y="20" width="122" height="22"></rect>
<a xlink:href="/reference/syntax/#syntax-for-listelements"><text x="121" y="35">ListElements</text>
</a>
</g>
<path d="M182 31a10 10 0 0 1 10 10v10a10 10 0 0 0 10 10"></path>
<path d="M40 61h20"></path>
<g class="non-terminal">
<path d="M60 61h4.25"></path>
<path d="M177.75 61h4.25"></path>
<rect x="64.25" y="50" width="113.5" height="22"></rect>
<a xlink:href="/reference/syntax/#syntax-for-listelement"><text x="121" y="65">ListElement</text>
</a>
</g>
<path d="M182 61h20"></path>
<path d="M40 61a10 10 0 0 1 10 10v19a10 10 0 0 0 10 10"></path>
<g>
<path d="M60 100h1.25"></path>
<path d="M180.75 100h1.25"></path>
<path d="M61.25 100a10 10 0 0 0 10 -10v0a10 10 0 0 1 10 -10"></path>
<g>
<path d="M81.25 80h79.5"></path>
</g>
<path d="M160.75 80a10 10 0 0 1 10 10v0a10 10 0 0 0 10 10"></path>
<path d="M61.25 100h20"></path>
<g class="non-terminal">
<path d="M81.25 100h0"></path>
<path d="M160.75 100h0"></path>
<rect x="81.25" y="89" width="79.5" height="22"></rect>
<a xlink:href="/reference/syntax/#syntax-for-garbage"><text x="121" y="104">Garbage</text>
</a>
</g>
<path d="M160.75 100h20"></path>
</g>
<path d="M182 100a10 10 0 0 0 10 -10v-19a10 10 0 0 1 10 -10"></path>
</g>
<path d="M 202 61 h 20 m -10 -10 v 20 m 10 -20 v 20"></path>
</g>
</svg>
