<svg class="railroad-diagram" width="687" height="80" viewBox="0 0 687 80" role="img" xmlns="http://www.w3.org/2000/svg" version="1.1" xmlns:xlink="http://www.w3.org/1999/xlink"><title>Throws &#58;&#61; Type &#34;throws&#34; FailureMode &#40;&#34;&#124;&#34; FailureModeSecondary&#41;&#42;</title>
<style><![CDATA[
svg.railroad-diagram {
    background-color: hsl(30,20%,95%);
}
svg.railroad-diagram path {
    stroke-width: 3;
    stroke: black;
    fill: rgba(0,0,0,0);
}
svg.railroad-diagram text {
    font: bold 14px monospace;
    text-anchor: middle;
    white-space: pre;
}
svg.railroad-diagram text.diagram-text {
    font-size: 12px;
}
svg.railroad-diagram text.diagram-arrow {
    font-size: 16px;
}
svg.railroad-diagram text.label {
    text-anchor: start;
}
svg.railroad-diagram text.comment {
    font: italic 12px monospace;
}
svg.railroad-diagram g.non-terminal text {
    /*font-style: italic;*/
}
svg.railroad-diagram rect {
    stroke-width: 3;
    stroke: black;
    fill: hsl(120,100%,90%);
}
svg.railroad-diagram rect.group-box {
    stroke: gray;
    stroke-dasharray: 10 5;
    fill: none;
}
svg.railroad-diagram path.diagram-text {
    stroke-width: 3;
    stroke: black;
    fill: white;
    cursor: help;
}
svg.railroad-diagram g.diagram-text:hover path.diagram-text {
    fill: #eee;
}

]]></style>

<g transform="translate(.5 .5)">
<g>
<path d="M20 30v20m10 -20v20m-10 -10h20"></path>
</g>
<path d="M40 40h10"></path>
<g>
<path d="M50 40h0"></path>
<path d="M637 40h0"></path>
<g class="non-terminal">
<path d="M50 40h0"></path>
<path d="M104 40h0"></path>
<rect x="50" y="29" width="54" height="22"></rect>
<a xlink:href="/reference/syntax/#syntax-for-type"><text x="77" y="44">Type</text>
</a>
</g>
<path d="M104 40h10"></path>
<path d="M114 40h10"></path>
<g class="terminal">
<path d="M124 40h0"></path>
<path d="M195 40h0"></path>
<rect x="124" y="29" width="71" height="22" rx="10" ry="10"></rect>
<text x="159.5" y="44">throws</text>
</g>
<path d="M195 40h10"></path>
<path d="M205 40h10"></path>
<g class="non-terminal">
<path d="M215 40h0"></path>
<path d="M328.5 40h0"></path>
<rect x="215" y="29" width="113.5" height="22"></rect>
<a xlink:href="/reference/syntax/#syntax-for-failuremode"><text x="271.75" y="44">FailureMode</text>
</a>
</g>
<path d="M328.5 40h10"></path>
<g>
<path d="M338.5 40h0"></path>
<path d="M637 40h0"></path>
<path d="M338.5 40a10 10 0 0 0 10 -10v0a10 10 0 0 1 10 -10"></path>
<g>
<path d="M358.5 20h258.5"></path>
</g>
<path d="M617 20a10 10 0 0 1 10 10v0a10 10 0 0 0 10 10"></path>
<path d="M338.5 40h20"></path>
<g>
<path d="M358.5 40h0"></path>
<path d="M617 40h0"></path>
<path d="M358.5 40h10"></path>
<g>
<path d="M368.5 40h0"></path>
<path d="M607 40h0"></path>
<g class="terminal">
<path d="M368.5 40h0"></path>
<path d="M397 40h0"></path>
<rect x="368.5" y="29" width="28.5" height="22" rx="10" ry="10"></rect>
<text x="382.75" y="44">|</text>
</g>
<path d="M397 40h10"></path>
<path d="M407 40h10"></path>
<g class="non-terminal">
<path d="M417 40h0"></path>
<path d="M607 40h0"></path>
<rect x="417" y="29" width="190" height="22"></rect>
<a xlink:href="/reference/syntax/#syntax-for-failuremodesecondary"><text x="512" y="44">FailureModeSecondary</text>
</a>
</g>
</g>
<path d="M607 40h10"></path>
<path d="M368.5 40a10 10 0 0 0 -10 10v0a10 10 0 0 0 10 10"></path>
<g>
<path d="M368.5 60h238.5"></path>
</g>
<path d="M607 60a10 10 0 0 0 10 -10v0a10 10 0 0 0 -10 -10"></path>
</g>
<path d="M617 40h20"></path>
</g>
</g>
<path d="M637 40h10"></path>
<path d="M 647 40 h 20 m -10 -10 v 20 m 10 -20 v 20"></path>
</g>
</svg>
