<svg class="railroad-diagram" width="274" height="80" viewBox="0 0 274 80" role="img" xmlns="http://www.w3.org/2000/svg" version="1.1" xmlns:xlink="http://www.w3.org/1999/xlink"><title>TrailingSemi &#58;&#61; &#34;&#59;&#34;&#63; Nop&#42;</title>
<style><![CDATA[
svg.railroad-diagram {
    background-color: hsl(30,20%,95%);
}
svg.railroad-diagram path {
    stroke-width: 3;
    stroke: black;
    fill: rgba(0,0,0,0);
}
svg.railroad-diagram text {
    font: bold 14px monospace;
    text-anchor: middle;
    white-space: pre;
}
svg.railroad-diagram text.diagram-text {
    font-size: 12px;
}
svg.railroad-diagram text.diagram-arrow {
    font-size: 16px;
}
svg.railroad-diagram text.label {
    text-anchor: start;
}
svg.railroad-diagram text.comment {
    font: italic 12px monospace;
}
svg.railroad-diagram g.non-terminal text {
    /*font-style: italic;*/
}
svg.railroad-diagram rect {
    stroke-width: 3;
    stroke: black;
    fill: hsl(120,100%,90%);
}
svg.railroad-diagram rect.group-box {
    stroke: gray;
    stroke-dasharray: 10 5;
    fill: none;
}
svg.railroad-diagram path.diagram-text {
    stroke-width: 3;
    stroke: black;
    fill: white;
    cursor: help;
}
svg.railroad-diagram g.diagram-text:hover path.diagram-text {
    fill: #eee;
}

]]></style>

<g transform="translate(.5 .5)">
<g>
<path d="M20 30v20m10 -20v20m-10 -10h20"></path>
</g>
<path d="M40 40h10"></path>
<g>
<path d="M50 40h0"></path>
<path d="M224 40h0"></path>
<g>
<path d="M50 40h0"></path>
<path d="M118.5 40h0"></path>
<path d="M50 40a10 10 0 0 0 10 -10v0a10 10 0 0 1 10 -10"></path>
<g>
<path d="M70 20h28.5"></path>
</g>
<path d="M98.5 20a10 10 0 0 1 10 10v0a10 10 0 0 0 10 10"></path>
<path d="M50 40h20"></path>
<g class="terminal">
<path d="M70 40h0"></path>
<path d="M98.5 40h0"></path>
<rect x="70" y="29" width="28.5" height="22" rx="10" ry="10"></rect>
<text x="84.25" y="44">;</text>
</g>
<path d="M98.5 40h20"></path>
</g>
<g>
<path d="M118.5 40h0"></path>
<path d="M224 40h0"></path>
<path d="M118.5 40a10 10 0 0 0 10 -10v0a10 10 0 0 1 10 -10"></path>
<g>
<path d="M138.5 20h65.5"></path>
</g>
<path d="M204 20a10 10 0 0 1 10 10v0a10 10 0 0 0 10 10"></path>
<path d="M118.5 40h20"></path>
<g>
<path d="M138.5 40h0"></path>
<path d="M204 40h0"></path>
<path d="M138.5 40h10"></path>
<g class="non-terminal">
<path d="M148.5 40h0"></path>
<path d="M194 40h0"></path>
<rect x="148.5" y="29" width="45.5" height="22"></rect>
<a xlink:href="/reference/syntax/#syntax-for-nop"><text x="171.25" y="44">Nop</text>
</a>
</g>
<path d="M194 40h10"></path>
<path d="M148.5 40a10 10 0 0 0 -10 10v0a10 10 0 0 0 10 10"></path>
<g>
<path d="M148.5 60h45.5"></path>
</g>
<path d="M194 60a10 10 0 0 0 10 -10v0a10 10 0 0 0 -10 -10"></path>
</g>
<path d="M204 40h20"></path>
</g>
</g>
<path d="M224 40h10"></path>
<path d="M 234 40 h 20 m -10 -10 v 20 m 10 -20 v 20"></path>
</g>
</svg>
