<svg class="railroad-diagram" width="384" height="92" viewBox="0 0 384 92" role="img" xmlns="http://www.w3.org/2000/svg" version="1.1" xmlns:xlink="http://www.w3.org/1999/xlink"><title>CallHead &#58;&#61; CalleeAndArgs BlockLambda &#124; CalleeAndRequiredArgs</title>
<style><![CDATA[
svg.railroad-diagram {
    background-color: hsl(30,20%,95%);
}
svg.railroad-diagram path {
    stroke-width: 3;
    stroke: black;
    fill: rgba(0,0,0,0);
}
svg.railroad-diagram text {
    font: bold 14px monospace;
    text-anchor: middle;
    white-space: pre;
}
svg.railroad-diagram text.diagram-text {
    font-size: 12px;
}
svg.railroad-diagram text.diagram-arrow {
    font-size: 16px;
}
svg.railroad-diagram text.label {
    text-anchor: start;
}
svg.railroad-diagram text.comment {
    font: italic 12px monospace;
}
svg.railroad-diagram g.non-terminal text {
    /*font-style: italic;*/
}
svg.railroad-diagram rect {
    stroke-width: 3;
    stroke: black;
    fill: hsl(120,100%,90%);
}
svg.railroad-diagram rect.group-box {
    stroke: gray;
    stroke-dasharray: 10 5;
    fill: none;
}
svg.railroad-diagram path.diagram-text {
    stroke-width: 3;
    stroke: black;
    fill: white;
    cursor: help;
}
svg.railroad-diagram g.diagram-text:hover path.diagram-text {
    fill: #eee;
}

]]></style>

<g transform="translate(.5 .5)">
<g>
<path d="M20 51v20m10 -20v20m-10 -10h20"></path>
</g>
<g>
<path d="M40 61h0"></path>
<path d="M344 61h0"></path>
<path d="M40 61a10 10 0 0 0 10 -10v-10a10 10 0 0 1 10 -10"></path>
<g>
<path d="M60 31h0"></path>
<path d="M324 31h0"></path>
<g class="non-terminal">
<path d="M60 31h0"></path>
<path d="M190.5 31h0"></path>
<rect x="60" y="20" width="130.5" height="22"></rect>
<a xlink:href="/reference/syntax/#syntax-for-calleeandargs"><text x="125.25" y="35">CalleeAndArgs</text>
</a>
</g>
<path d="M190.5 31h10"></path>
<path d="M200.5 31h10"></path>
<g class="non-terminal">
<path d="M210.5 31h0"></path>
<path d="M324 31h0"></path>
<rect x="210.5" y="20" width="113.5" height="22"></rect>
<a xlink:href="/reference/syntax/#syntax-for-blocklambda"><text x="267.25" y="35">BlockLambda</text>
</a>
</g>
</g>
<path d="M324 31a10 10 0 0 1 10 10v10a10 10 0 0 0 10 10"></path>
<path d="M40 61h20"></path>
<g class="non-terminal">
<path d="M60 61h32.75"></path>
<path d="M291.25 61h32.75"></path>
<rect x="92.75" y="50" width="198.5" height="22"></rect>
<a xlink:href="/reference/syntax/#syntax-for-calleeandrequiredargs"><text x="192" y="65">CalleeAndRequiredArgs</text>
</a>
</g>
<path d="M324 61h20"></path>
</g>
<path d="M 344 61 h 20 m -10 -10 v 20 m 10 -20 v 20"></path>
</g>
</svg>
