<svg class="railroad-diagram" width="421.5" height="92" viewBox="0 0 421.5 92" role="img" xmlns="http://www.w3.org/2000/svg" version="1.1" xmlns:xlink="http://www.w3.org/1999/xlink"><title>LabeledStmt &#58;&#61; &#40;LeftLabel &#124; QuasiHole&#41; &#34;&#58;&#34; &#40;Call &#124; StmtBlock&#41;</title>
<style><![CDATA[
svg.railroad-diagram {
    background-color: hsl(30,20%,95%);
}
svg.railroad-diagram path {
    stroke-width: 3;
    stroke: black;
    fill: rgba(0,0,0,0);
}
svg.railroad-diagram text {
    font: bold 14px monospace;
    text-anchor: middle;
    white-space: pre;
}
svg.railroad-diagram text.diagram-text {
    font-size: 12px;
}
svg.railroad-diagram text.diagram-arrow {
    font-size: 16px;
}
svg.railroad-diagram text.label {
    text-anchor: start;
}
svg.railroad-diagram text.comment {
    font: italic 12px monospace;
}
svg.railroad-diagram g.non-terminal text {
    /*font-style: italic;*/
}
svg.railroad-diagram rect {
    stroke-width: 3;
    stroke: black;
    fill: hsl(120,100%,90%);
}
svg.railroad-diagram rect.group-box {
    stroke: gray;
    stroke-dasharray: 10 5;
    fill: none;
}
svg.railroad-diagram path.diagram-text {
    stroke-width: 3;
    stroke: black;
    fill: white;
    cursor: help;
}
svg.railroad-diagram g.diagram-text:hover path.diagram-text {
    fill: #eee;
}

]]></style>

<g transform="translate(.5 .5)">
<g>
<path d="M20 51v20m10 -20v20m-10 -10h20"></path>
</g>
<path d="M40 61h10"></path>
<g>
<path d="M50 61h0"></path>
<path d="M371.5 61h0"></path>
<g>
<path d="M50 61h0"></path>
<path d="M186.5 61h0"></path>
<path d="M50 61a10 10 0 0 0 10 -10v-10a10 10 0 0 1 10 -10"></path>
<g class="non-terminal">
<path d="M70 31h0"></path>
<path d="M166.5 31h0"></path>
<rect x="70" y="20" width="96.5" height="22"></rect>
<a xlink:href="/reference/syntax/#syntax-for-leftlabel"><text x="118.25" y="35">LeftLabel</text>
</a>
</g>
<path d="M166.5 31a10 10 0 0 1 10 10v10a10 10 0 0 0 10 10"></path>
<path d="M50 61h20"></path>
<g class="non-terminal">
<path d="M70 61h0"></path>
<path d="M166.5 61h0"></path>
<rect x="70" y="50" width="96.5" height="22"></rect>
<a xlink:href="/reference/syntax/#syntax-for-quasihole"><text x="118.25" y="65">QuasiHole</text>
</a>
</g>
<path d="M166.5 61h20"></path>
</g>
<path d="M186.5 61h10"></path>
<g class="terminal">
<path d="M196.5 61h0"></path>
<path d="M225 61h0"></path>
<rect x="196.5" y="50" width="28.5" height="22" rx="10" ry="10"></rect>
<text x="210.75" y="65">:</text>
</g>
<path d="M225 61h10"></path>
<g>
<path d="M235 61h0"></path>
<path d="M371.5 61h0"></path>
<path d="M235 61a10 10 0 0 0 10 -10v-10a10 10 0 0 1 10 -10"></path>
<g class="non-terminal">
<path d="M255 31h21.25"></path>
<path d="M330.25 31h21.25"></path>
<rect x="276.25" y="20" width="54" height="22"></rect>
<a xlink:href="/reference/syntax/#syntax-for-call"><text x="303.25" y="35">Call</text>
</a>
</g>
<path d="M351.5 31a10 10 0 0 1 10 10v10a10 10 0 0 0 10 10"></path>
<path d="M235 61h20"></path>
<g class="non-terminal">
<path d="M255 61h0"></path>
<path d="M351.5 61h0"></path>
<rect x="255" y="50" width="96.5" height="22"></rect>
<a xlink:href="/reference/syntax/#syntax-for-stmtblock"><text x="303.25" y="65">StmtBlock</text>
</a>
</g>
<path d="M351.5 61h20"></path>
</g>
</g>
<path d="M371.5 61h10"></path>
<path d="M 381.5 61 h 20 m -10 -10 v 20 m 10 -20 v 20"></path>
</g>
</svg>
