<svg class="railroad-diagram" width="390" height="154" viewBox="0 0 390 154" role="img" xmlns="http://www.w3.org/2000/svg" version="1.1" xmlns:xlink="http://www.w3.org/1999/xlink"><title>SpecialDot &#58;&#61; &#34;builtins&#34; &#34;&#46;&#34; BuiltinName &#124; &#34;this&#34; &#124; &#40;Lookahead&#58; &#34;super&#34;&#41; Garbage</title>
<style><![CDATA[
svg.railroad-diagram {
    background-color: hsl(30,20%,95%);
}
svg.railroad-diagram path {
    stroke-width: 3;
    stroke: black;
    fill: rgba(0,0,0,0);
}
svg.railroad-diagram text {
    font: bold 14px monospace;
    text-anchor: middle;
    white-space: pre;
}
svg.railroad-diagram text.diagram-text {
    font-size: 12px;
}
svg.railroad-diagram text.diagram-arrow {
    font-size: 16px;
}
svg.railroad-diagram text.label {
    text-anchor: start;
}
svg.railroad-diagram text.comment {
    font: italic 12px monospace;
}
svg.railroad-diagram g.non-terminal text {
    /*font-style: italic;*/
}
svg.railroad-diagram rect {
    stroke-width: 3;
    stroke: black;
    fill: hsl(120,100%,90%);
}
svg.railroad-diagram rect.group-box {
    stroke: gray;
    stroke-dasharray: 10 5;
    fill: none;
}
svg.railroad-diagram path.diagram-text {
    stroke-width: 3;
    stroke: black;
    fill: white;
    cursor: help;
}
svg.railroad-diagram g.diagram-text:hover path.diagram-text {
    fill: #eee;
}

]]></style>

<g transform="translate(.5 .5)">
<g>
<path d="M20 51v20m10 -20v20m-10 -10h20"></path>
</g>
<g>
<path d="M40 61h0"></path>
<path d="M350 61h0"></path>
<path d="M40 61a10 10 0 0 0 10 -10v-10a10 10 0 0 1 10 -10"></path>
<g>
<path d="M60 31h0"></path>
<path d="M330 31h0"></path>
<g class="terminal">
<path d="M60 31h0"></path>
<path d="M148 31h0"></path>
<rect x="60" y="20" width="88" height="22" rx="10" ry="10"></rect>
<text x="104" y="35">builtins</text>
</g>
<path d="M148 31h10"></path>
<path d="M158 31h10"></path>
<g class="terminal">
<path d="M168 31h0"></path>
<path d="M196.5 31h0"></path>
<rect x="168" y="20" width="28.5" height="22" rx="10" ry="10"></rect>
<text x="182.25" y="35">.</text>
</g>
<path d="M196.5 31h10"></path>
<path d="M206.5 31h10"></path>
<g class="non-terminal">
<path d="M216.5 31h0"></path>
<path d="M330 31h0"></path>
<rect x="216.5" y="20" width="113.5" height="22"></rect>
<text x="273.25" y="35">BuiltinName</text>
</g>
</g>
<path d="M330 31a10 10 0 0 1 10 10v10a10 10 0 0 0 10 10"></path>
<path d="M40 61h20"></path>
<g class="terminal">
<path d="M60 61h108"></path>
<path d="M222 61h108"></path>
<rect x="168" y="50" width="54" height="22" rx="10" ry="10"></rect>
<text x="195" y="65">this</text>
</g>
<path d="M330 61h20"></path>
<path d="M40 61a10 10 0 0 1 10 10v34a10 10 0 0 0 10 10"></path>
<g>
<path d="M60 115h44"></path>
<path d="M286 115h44"></path>
<g>
<path d="M104 115h0"></path>
<path d="M186.5 115h0"></path>
<rect x="104" y="96" width="82.5" height="38" rx="10" ry="10" class="group-box"></rect>
<g class="terminal">
<path d="M104 115h10"></path>
<path d="M176.5 115h10"></path>
<rect x="114" y="104" width="62.5" height="22" rx="10" ry="10"></rect>
<text x="145.25" y="119">super</text>
</g>
<g>
<path d="M104 88h0"></path>
<path d="M177 88h0"></path>
<text x="140.5" y="93" class="comment">Lookahead</text>
</g>
</g>
<path d="M186.5 115h10"></path>
<path d="M196.5 115h10"></path>
<g class="non-terminal">
<path d="M206.5 115h0"></path>
<path d="M286 115h0"></path>
<rect x="206.5" y="104" width="79.5" height="22"></rect>
<a xlink:href="/reference/syntax/#syntax-for-garbage"><text x="246.25" y="119">Garbage</text>
</a>
</g>
</g>
<path d="M330 115a10 10 0 0 0 10 -10v-34a10 10 0 0 1 10 -10"></path>
</g>
<path d="M 350 61 h 20 m -10 -10 v 20 m 10 -20 v 20"></path>
</g>
</svg>
