<svg class="railroad-diagram" width="384" height="272" viewBox="0 0 384 272" role="img" xmlns="http://www.w3.org/2000/svg" version="1.1" xmlns:xlink="http://www.w3.org/1999/xlink"><title>LetNested &#58;&#61; DeclName &#124; &#34;&#46;&#46;&#46;&#34; &#124; DeclMulti &#124; DeclMultiNamed &#124; LetNested DeclInit &#124; LetNested DeclMultiNested &#124; LetNested &#34;as&#34; DeclName &#124; LetNested DeclTypeNested</title>
<style><![CDATA[
svg.railroad-diagram {
    background-color: hsl(30,20%,95%);
}
svg.railroad-diagram path {
    stroke-width: 3;
    stroke: black;
    fill: rgba(0,0,0,0);
}
svg.railroad-diagram text {
    font: bold 14px monospace;
    text-anchor: middle;
    white-space: pre;
}
svg.railroad-diagram text.diagram-text {
    font-size: 12px;
}
svg.railroad-diagram text.diagram-arrow {
    font-size: 16px;
}
svg.railroad-diagram text.label {
    text-anchor: start;
}
svg.railroad-diagram text.comment {
    font: italic 12px monospace;
}
svg.railroad-diagram g.non-terminal text {
    /*font-style: italic;*/
}
svg.railroad-diagram rect {
    stroke-width: 3;
    stroke: black;
    fill: hsl(120,100%,90%);
}
svg.railroad-diagram rect.group-box {
    stroke: gray;
    stroke-dasharray: 10 5;
    fill: none;
}
svg.railroad-diagram path.diagram-text {
    stroke-width: 3;
    stroke: black;
    fill: white;
    cursor: help;
}
svg.railroad-diagram g.diagram-text:hover path.diagram-text {
    fill: #eee;
}

]]></style>

<g transform="translate(.5 .5)">
<g>
<path d="M20 141v20m10 -20v20m-10 -10h20"></path>
</g>
<g>
<path d="M40 151h0"></path>
<path d="M344 151h0"></path>
<path d="M40 151a10 10 0 0 0 10 -10v-10a10 10 0 0 1 10 -10"></path>
<g class="non-terminal">
<path d="M60 121h62.5"></path>
<path d="M261.5 121h62.5"></path>
<rect x="122.5" y="110" width="139" height="22"></rect>
<a xlink:href="/reference/syntax/#syntax-for-declmultinamed"><text x="192" y="125">DeclMultiNamed</text>
</a>
</g>
<path d="M324 121a10 10 0 0 1 10 10v10a10 10 0 0 0 10 10"></path>
<path d="M40 151a10 10 0 0 0 10 -10v-40a10 10 0 0 1 10 -10"></path>
<g class="non-terminal">
<path d="M60 91h83.75"></path>
<path d="M240.25 91h83.75"></path>
<rect x="143.75" y="80" width="96.5" height="22"></rect>
<a xlink:href="/reference/syntax/#syntax-for-declmulti"><text x="192" y="95">DeclMulti</text>
</a>
</g>
<path d="M324 91a10 10 0 0 1 10 10v40a10 10 0 0 0 10 10"></path>
<path d="M40 151a10 10 0 0 0 10 -10v-70a10 10 0 0 1 10 -10"></path>
<g class="terminal">
<path d="M60 61h109.25"></path>
<path d="M214.75 61h109.25"></path>
<rect x="169.25" y="50" width="45.5" height="22" rx="10" ry="10"></rect>
<text x="192" y="65">...</text>
</g>
<path d="M324 61a10 10 0 0 1 10 10v70a10 10 0 0 0 10 10"></path>
<path d="M40 151a10 10 0 0 0 10 -10v-100a10 10 0 0 1 10 -10"></path>
<g class="non-terminal">
<path d="M60 31h88"></path>
<path d="M236 31h88"></path>
<rect x="148" y="20" width="88" height="22"></rect>
<a xlink:href="/reference/syntax/#syntax-for-declname"><text x="192" y="35">DeclName</text>
</a>
</g>
<path d="M324 31a10 10 0 0 1 10 10v100a10 10 0 0 0 10 10"></path>
<path d="M40 151h20"></path>
<g>
<path d="M60 151h29.75"></path>
<path d="M294.25 151h29.75"></path>
<g class="non-terminal">
<path d="M89.75 151h0"></path>
<path d="M186.25 151h0"></path>
<rect x="89.75" y="140" width="96.5" height="22"></rect>
<a xlink:href="/reference/syntax/#syntax-for-letnested"><text x="138" y="155">LetNested</text>
</a>
</g>
<path d="M186.25 151h10"></path>
<path d="M196.25 151h10"></path>
<g class="non-terminal">
<path d="M206.25 151h0"></path>
<path d="M294.25 151h0"></path>
<rect x="206.25" y="140" width="88" height="22"></rect>
<a xlink:href="/reference/syntax/#syntax-for-declinit"><text x="250.25" y="155">DeclInit</text>
</a>
</g>
</g>
<path d="M324 151h20"></path>
<path d="M40 151a10 10 0 0 1 10 10v10a10 10 0 0 0 10 10"></path>
<g>
<path d="M60 181h0"></path>
<path d="M324 181h0"></path>
<g class="non-terminal">
<path d="M60 181h0"></path>
<path d="M156.5 181h0"></path>
<rect x="60" y="170" width="96.5" height="22"></rect>
<a xlink:href="/reference/syntax/#syntax-for-letnested"><text x="108.25" y="185">LetNested</text>
</a>
</g>
<path d="M156.5 181h10"></path>
<path d="M166.5 181h10"></path>
<g class="non-terminal">
<path d="M176.5 181h0"></path>
<path d="M324 181h0"></path>
<rect x="176.5" y="170" width="147.5" height="22"></rect>
<a xlink:href="/reference/syntax/#syntax-for-declmultinested"><text x="250.25" y="185">DeclMultiNested</text>
</a>
</g>
</g>
<path d="M324 181a10 10 0 0 0 10 -10v-10a10 10 0 0 1 10 -10"></path>
<path d="M40 151a10 10 0 0 1 10 10v40a10 10 0 0 0 10 10"></path>
<g>
<path d="M60 211h1.25"></path>
<path d="M322.75 211h1.25"></path>
<g class="non-terminal">
<path d="M61.25 211h0"></path>
<path d="M157.75 211h0"></path>
<rect x="61.25" y="200" width="96.5" height="22"></rect>
<a xlink:href="/reference/syntax/#syntax-for-letnested"><text x="109.5" y="215">LetNested</text>
</a>
</g>
<path d="M157.75 211h10"></path>
<path d="M167.75 211h10"></path>
<g class="terminal">
<path d="M177.75 211h0"></path>
<path d="M214.75 211h0"></path>
<rect x="177.75" y="200" width="37" height="22" rx="10" ry="10"></rect>
<text x="196.25" y="215">as</text>
</g>
<path d="M214.75 211h10"></path>
<path d="M224.75 211h10"></path>
<g class="non-terminal">
<path d="M234.75 211h0"></path>
<path d="M322.75 211h0"></path>
<rect x="234.75" y="200" width="88" height="22"></rect>
<a xlink:href="/reference/syntax/#syntax-for-declname"><text x="278.75" y="215">DeclName</text>
</a>
</g>
</g>
<path d="M324 211a10 10 0 0 0 10 -10v-40a10 10 0 0 1 10 -10"></path>
<path d="M40 151a10 10 0 0 1 10 10v70a10 10 0 0 0 10 10"></path>
<g>
<path d="M60 241h4.25"></path>
<path d="M319.75 241h4.25"></path>
<g class="non-terminal">
<path d="M64.25 241h0"></path>
<path d="M160.75 241h0"></path>
<rect x="64.25" y="230" width="96.5" height="22"></rect>
<a xlink:href="/reference/syntax/#syntax-for-letnested"><text x="112.5" y="245">LetNested</text>
</a>
</g>
<path d="M160.75 241h10"></path>
<path d="M170.75 241h10"></path>
<g class="non-terminal">
<path d="M180.75 241h0"></path>
<path d="M319.75 241h0"></path>
<rect x="180.75" y="230" width="139" height="22"></rect>
<a xlink:href="/reference/syntax/#syntax-for-decltypenested"><text x="250.25" y="245">DeclTypeNested</text>
</a>
</g>
</g>
<path d="M324 241a10 10 0 0 0 10 -10v-70a10 10 0 0 1 10 -10"></path>
</g>
<path d="M 344 151 h 20 m -10 -10 v 20 m 10 -20 v 20"></path>
</g>
</svg>
