<svg class="railroad-diagram" width="438" height="148" viewBox="0 0 438 148" role="img" xmlns="http://www.w3.org/2000/svg" version="1.1" xmlns:xlink="http://www.w3.org/1999/xlink"><title>Args &#58;&#61; &#40;Arg &#40;&#34;&#44;&#34; Arg&#41;&#42;&#41;&#63; &#34;&#44;&#34;&#63; &#124; Arg &#124; Garbage</title>
<style><![CDATA[
svg.railroad-diagram {
    background-color: hsl(30,20%,95%);
}
svg.railroad-diagram path {
    stroke-width: 3;
    stroke: black;
    fill: rgba(0,0,0,0);
}
svg.railroad-diagram text {
    font: bold 14px monospace;
    text-anchor: middle;
    white-space: pre;
}
svg.railroad-diagram text.diagram-text {
    font-size: 12px;
}
svg.railroad-diagram text.diagram-arrow {
    font-size: 16px;
}
svg.railroad-diagram text.label {
    text-anchor: start;
}
svg.railroad-diagram text.comment {
    font: italic 12px monospace;
}
svg.railroad-diagram g.non-terminal text {
    /*font-style: italic;*/
}
svg.railroad-diagram rect {
    stroke-width: 3;
    stroke: black;
    fill: hsl(120,100%,90%);
}
svg.railroad-diagram rect.group-box {
    stroke: gray;
    stroke-dasharray: 10 5;
    fill: none;
}
svg.railroad-diagram path.diagram-text {
    stroke-width: 3;
    stroke: black;
    fill: white;
    cursor: help;
}
svg.railroad-diagram g.diagram-text:hover path.diagram-text {
    fill: #eee;
}

]]></style>

<g transform="translate(.5 .5)">
<g>
<path d="M20 77v20m10 -20v20m-10 -10h20"></path>
</g>
<g>
<path d="M40 87h0"></path>
<path d="M398 87h0"></path>
<path d="M40 87a10 10 0 0 0 10 -10v-19a10 10 0 0 1 10 -10"></path>
<g>
<path d="M60 48h0"></path>
<path d="M378 48h0"></path>
<g>
<path d="M60 48h0"></path>
<path d="M309.5 48h0"></path>
<path d="M60 48a10 10 0 0 0 10 -10v-8a10 10 0 0 1 10 -10"></path>
<g>
<path d="M80 20h209.5"></path>
</g>
<path d="M289.5 20a10 10 0 0 1 10 10v8a10 10 0 0 0 10 10"></path>
<path d="M60 48h20"></path>
<g>
<path d="M80 48h0"></path>
<path d="M289.5 48h0"></path>
<g class="non-terminal">
<path d="M80 48h0"></path>
<path d="M125.5 48h0"></path>
<rect x="80" y="37" width="45.5" height="22"></rect>
<a xlink:href="/reference/syntax/#syntax-for-arg"><text x="102.75" y="52">Arg</text>
</a>
</g>
<path d="M125.5 48h10"></path>
<g>
<path d="M135.5 48h0"></path>
<path d="M289.5 48h0"></path>
<path d="M135.5 48a10 10 0 0 0 10 -10v0a10 10 0 0 1 10 -10"></path>
<g>
<path d="M155.5 28h114"></path>
</g>
<path d="M269.5 28a10 10 0 0 1 10 10v0a10 10 0 0 0 10 10"></path>
<path d="M135.5 48h20"></path>
<g>
<path d="M155.5 48h0"></path>
<path d="M269.5 48h0"></path>
<path d="M155.5 48h10"></path>
<g>
<path d="M165.5 48h0"></path>
<path d="M259.5 48h0"></path>
<g class="terminal">
<path d="M165.5 48h0"></path>
<path d="M194 48h0"></path>
<rect x="165.5" y="37" width="28.5" height="22" rx="10" ry="10"></rect>
<text x="179.75" y="52">,</text>
</g>
<path d="M194 48h10"></path>
<path d="M204 48h10"></path>
<g class="non-terminal">
<path d="M214 48h0"></path>
<path d="M259.5 48h0"></path>
<rect x="214" y="37" width="45.5" height="22"></rect>
<a xlink:href="/reference/syntax/#syntax-for-arg"><text x="236.75" y="52">Arg</text>
</a>
</g>
</g>
<path d="M259.5 48h10"></path>
<path d="M165.5 48a10 10 0 0 0 -10 10v0a10 10 0 0 0 10 10"></path>
<g>
<path d="M165.5 68h94"></path>
</g>
<path d="M259.5 68a10 10 0 0 0 10 -10v0a10 10 0 0 0 -10 -10"></path>
</g>
<path d="M269.5 48h20"></path>
</g>
</g>
<path d="M289.5 48h20"></path>
</g>
<g>
<path d="M309.5 48h0"></path>
<path d="M378 48h0"></path>
<path d="M309.5 48a10 10 0 0 0 10 -10v0a10 10 0 0 1 10 -10"></path>
<g>
<path d="M329.5 28h28.5"></path>
</g>
<path d="M358 28a10 10 0 0 1 10 10v0a10 10 0 0 0 10 10"></path>
<path d="M309.5 48h20"></path>
<g class="terminal">
<path d="M329.5 48h0"></path>
<path d="M358 48h0"></path>
<rect x="329.5" y="37" width="28.5" height="22" rx="10" ry="10"></rect>
<text x="343.75" y="52">,</text>
</g>
<path d="M358 48h20"></path>
</g>
</g>
<path d="M378 48a10 10 0 0 1 10 10v19a10 10 0 0 0 10 10"></path>
<path d="M40 87h20"></path>
<g class="non-terminal">
<path d="M60 87h136.25"></path>
<path d="M241.75 87h136.25"></path>
<rect x="196.25" y="76" width="45.5" height="22"></rect>
<a xlink:href="/reference/syntax/#syntax-for-arg"><text x="219" y="91">Arg</text>
</a>
</g>
<path d="M378 87h20"></path>
<path d="M40 87a10 10 0 0 1 10 10v10a10 10 0 0 0 10 10"></path>
<g class="non-terminal">
<path d="M60 117h119.25"></path>
<path d="M258.75 117h119.25"></path>
<rect x="179.25" y="106" width="79.5" height="22"></rect>
<a xlink:href="/reference/syntax/#syntax-for-garbage"><text x="219" y="121">Garbage</text>
</a>
</g>
<path d="M378 117a10 10 0 0 0 10 -10v-10a10 10 0 0 1 10 -10"></path>
</g>
<path d="M 398 87 h 20 m -10 -10 v 20 m 10 -20 v 20"></path>
</g>
</svg>
