<svg class="railroad-diagram" width="232.5" height="92" viewBox="0 0 232.5 92" role="img" xmlns="http://www.w3.org/2000/svg" version="1.1" xmlns:xlink="http://www.w3.org/1999/xlink"><title>TypeArgumentName &#58;&#61; &#40;&#34;in&#34; &#124; &#34;out&#34;&#41; Id</title>
<style><![CDATA[
svg.railroad-diagram {
    background-color: hsl(30,20%,95%);
}
svg.railroad-diagram path {
    stroke-width: 3;
    stroke: black;
    fill: rgba(0,0,0,0);
}
svg.railroad-diagram text {
    font: bold 14px monospace;
    text-anchor: middle;
    white-space: pre;
}
svg.railroad-diagram text.diagram-text {
    font-size: 12px;
}
svg.railroad-diagram text.diagram-arrow {
    font-size: 16px;
}
svg.railroad-diagram text.label {
    text-anchor: start;
}
svg.railroad-diagram text.comment {
    font: italic 12px monospace;
}
svg.railroad-diagram g.non-terminal text {
    /*font-style: italic;*/
}
svg.railroad-diagram rect {
    stroke-width: 3;
    stroke: black;
    fill: hsl(120,100%,90%);
}
svg.railroad-diagram rect.group-box {
    stroke: gray;
    stroke-dasharray: 10 5;
    fill: none;
}
svg.railroad-diagram path.diagram-text {
    stroke-width: 3;
    stroke: black;
    fill: white;
    cursor: help;
}
svg.railroad-diagram g.diagram-text:hover path.diagram-text {
    fill: #eee;
}

]]></style>

<g transform="translate(.5 .5)">
<g>
<path d="M20 51v20m10 -20v20m-10 -10h20"></path>
</g>
<path d="M40 61h10"></path>
<g>
<path d="M50 61h0"></path>
<path d="M182.5 61h0"></path>
<g>
<path d="M50 61h0"></path>
<path d="M135.5 61h0"></path>
<path d="M50 61a10 10 0 0 0 10 -10v-10a10 10 0 0 1 10 -10"></path>
<g class="terminal">
<path d="M70 31h4.25"></path>
<path d="M111.25 31h4.25"></path>
<rect x="74.25" y="20" width="37" height="22" rx="10" ry="10"></rect>
<text x="92.75" y="35">in</text>
</g>
<path d="M115.5 31a10 10 0 0 1 10 10v10a10 10 0 0 0 10 10"></path>
<path d="M50 61h20"></path>
<g class="terminal">
<path d="M70 61h0"></path>
<path d="M115.5 61h0"></path>
<rect x="70" y="50" width="45.5" height="22" rx="10" ry="10"></rect>
<text x="92.75" y="65">out</text>
</g>
<path d="M115.5 61h20"></path>
</g>
<path d="M135.5 61h10"></path>
<g class="non-terminal">
<path d="M145.5 61h0"></path>
<path d="M182.5 61h0"></path>
<rect x="145.5" y="50" width="37" height="22"></rect>
<a xlink:href="/reference/syntax/#syntax-for-id"><text x="164" y="65">Id</text>
</a>
</g>
</g>
<path d="M182.5 61h10"></path>
<path d="M 192.5 61 h 20 m -10 -10 v 20 m 10 -20 v 20"></path>
</g>
</svg>
