<svg class="railroad-diagram" width="772" height="182" viewBox="0 0 772 182" role="img" xmlns="http://www.w3.org/2000/svg" version="1.1" xmlns:xlink="http://www.w3.org/1999/xlink"><title>CallTail &#58;&#61; &#40;CallJoiningWords CallArgs &#124; CallJoiningWords&#41; BlockLambda &#34;callJoin&#58;&#34; CallTail &#124; &#40;CallJoiningWords CallArgs &#124; CallJoiningWords&#41; BlockLambda &#124; CallJoiningWords CallArgs</title>
<style><![CDATA[
svg.railroad-diagram {
    background-color: hsl(30,20%,95%);
}
svg.railroad-diagram path {
    stroke-width: 3;
    stroke: black;
    fill: rgba(0,0,0,0);
}
svg.railroad-diagram text {
    font: bold 14px monospace;
    text-anchor: middle;
    white-space: pre;
}
svg.railroad-diagram text.diagram-text {
    font-size: 12px;
}
svg.railroad-diagram text.diagram-arrow {
    font-size: 16px;
}
svg.railroad-diagram text.label {
    text-anchor: start;
}
svg.railroad-diagram text.comment {
    font: italic 12px monospace;
}
svg.railroad-diagram g.non-terminal text {
    /*font-style: italic;*/
}
svg.railroad-diagram rect {
    stroke-width: 3;
    stroke: black;
    fill: hsl(120,100%,90%);
}
svg.railroad-diagram rect.group-box {
    stroke: gray;
    stroke-dasharray: 10 5;
    fill: none;
}
svg.railroad-diagram path.diagram-text {
    stroke-width: 3;
    stroke: black;
    fill: white;
    cursor: help;
}
svg.railroad-diagram g.diagram-text:hover path.diagram-text {
    fill: #eee;
}

]]></style>

<g transform="translate(.5 .5)">
<g>
<path d="M20 111v20m10 -20v20m-10 -10h20"></path>
</g>
<g>
<path d="M40 121h0"></path>
<path d="M732 121h0"></path>
<path d="M40 121a10 10 0 0 0 10 -10v-40a10 10 0 0 1 10 -10"></path>
<g>
<path d="M60 61h0"></path>
<path d="M712 61h0"></path>
<g>
<path d="M60 61h0"></path>
<path d="M364 61h0"></path>
<path d="M60 61a10 10 0 0 0 10 -10v-10a10 10 0 0 1 10 -10"></path>
<g>
<path d="M80 31h0"></path>
<path d="M344 31h0"></path>
<g class="non-terminal">
<path d="M80 31h0"></path>
<path d="M236 31h0"></path>
<rect x="80" y="20" width="156" height="22"></rect>
<a xlink:href="/reference/syntax/#syntax-for-calljoiningwords"><text x="158" y="35">CallJoiningWords</text>
</a>
</g>
<path d="M236 31h10"></path>
<path d="M246 31h10"></path>
<g class="non-terminal">
<path d="M256 31h0"></path>
<path d="M344 31h0"></path>
<rect x="256" y="20" width="88" height="22"></rect>
<a xlink:href="/reference/syntax/#syntax-for-callargs"><text x="300" y="35">CallArgs</text>
</a>
</g>
</g>
<path d="M344 31a10 10 0 0 1 10 10v10a10 10 0 0 0 10 10"></path>
<path d="M60 61h20"></path>
<g class="non-terminal">
<path d="M80 61h54"></path>
<path d="M290 61h54"></path>
<rect x="134" y="50" width="156" height="22"></rect>
<a xlink:href="/reference/syntax/#syntax-for-calljoiningwords"><text x="212" y="65">CallJoiningWords</text>
</a>
</g>
<path d="M344 61h20"></path>
</g>
<path d="M364 61h10"></path>
<g class="non-terminal">
<path d="M374 61h0"></path>
<path d="M487.5 61h0"></path>
<rect x="374" y="50" width="113.5" height="22"></rect>
<a xlink:href="/reference/syntax/#syntax-for-blocklambda"><text x="430.75" y="65">BlockLambda</text>
</a>
</g>
<path d="M487.5 61h10"></path>
<path d="M497.5 61h10"></path>
<g class="terminal">
<path d="M507.5 61h0"></path>
<path d="M604 61h0"></path>
<rect x="507.5" y="50" width="96.5" height="22" rx="10" ry="10"></rect>
<text x="555.75" y="65">callJoin:</text>
</g>
<path d="M604 61h10"></path>
<path d="M614 61h10"></path>
<g class="non-terminal">
<path d="M624 61h0"></path>
<path d="M712 61h0"></path>
<rect x="624" y="50" width="88" height="22"></rect>
<a xlink:href="/reference/syntax/#syntax-for-calltail"><text x="668" y="65">CallTail</text>
</a>
</g>
</g>
<path d="M712 61a10 10 0 0 1 10 10v40a10 10 0 0 0 10 10"></path>
<path d="M40 121h20"></path>
<g>
<path d="M60 121h112.25"></path>
<path d="M599.75 121h112.25"></path>
<g>
<path d="M172.25 121h0"></path>
<path d="M476.25 121h0"></path>
<path d="M172.25 121a10 10 0 0 0 10 -10v-10a10 10 0 0 1 10 -10"></path>
<g>
<path d="M192.25 91h0"></path>
<path d="M456.25 91h0"></path>
<g class="non-terminal">
<path d="M192.25 91h0"></path>
<path d="M348.25 91h0"></path>
<rect x="192.25" y="80" width="156" height="22"></rect>
<a xlink:href="/reference/syntax/#syntax-for-calljoiningwords"><text x="270.25" y="95">CallJoiningWords</text>
</a>
</g>
<path d="M348.25 91h10"></path>
<path d="M358.25 91h10"></path>
<g class="non-terminal">
<path d="M368.25 91h0"></path>
<path d="M456.25 91h0"></path>
<rect x="368.25" y="80" width="88" height="22"></rect>
<a xlink:href="/reference/syntax/#syntax-for-callargs"><text x="412.25" y="95">CallArgs</text>
</a>
</g>
</g>
<path d="M456.25 91a10 10 0 0 1 10 10v10a10 10 0 0 0 10 10"></path>
<path d="M172.25 121h20"></path>
<g class="non-terminal">
<path d="M192.25 121h54"></path>
<path d="M402.25 121h54"></path>
<rect x="246.25" y="110" width="156" height="22"></rect>
<a xlink:href="/reference/syntax/#syntax-for-calljoiningwords"><text x="324.25" y="125">CallJoiningWords</text>
</a>
</g>
<path d="M456.25 121h20"></path>
</g>
<path d="M476.25 121h10"></path>
<g class="non-terminal">
<path d="M486.25 121h0"></path>
<path d="M599.75 121h0"></path>
<rect x="486.25" y="110" width="113.5" height="22"></rect>
<a xlink:href="/reference/syntax/#syntax-for-blocklambda"><text x="543" y="125">BlockLambda</text>
</a>
</g>
</g>
<path d="M712 121h20"></path>
<path d="M40 121a10 10 0 0 1 10 10v10a10 10 0 0 0 10 10"></path>
<g>
<path d="M60 151h194"></path>
<path d="M518 151h194"></path>
<g class="non-terminal">
<path d="M254 151h0"></path>
<path d="M410 151h0"></path>
<rect x="254" y="140" width="156" height="22"></rect>
<a xlink:href="/reference/syntax/#syntax-for-calljoiningwords"><text x="332" y="155">CallJoiningWords</text>
</a>
</g>
<path d="M410 151h10"></path>
<path d="M420 151h10"></path>
<g class="non-terminal">
<path d="M430 151h0"></path>
<path d="M518 151h0"></path>
<rect x="430" y="140" width="88" height="22"></rect>
<a xlink:href="/reference/syntax/#syntax-for-callargs"><text x="474" y="155">CallArgs</text>
</a>
</g>
</g>
<path d="M712 151a10 10 0 0 0 10 -10v-10a10 10 0 0 1 10 -10"></path>
</g>
<path d="M 732 121 h 20 m -10 -10 v 20 m 10 -20 v 20"></path>
</g>
</svg>
