<svg class="railroad-diagram" width="534" height="152" viewBox="0 0 534 152" role="img" xmlns="http://www.w3.org/2000/svg" version="1.1" xmlns:xlink="http://www.w3.org/1999/xlink"><title>ArgNoInit &#58;&#61; Pattern &#34;&#58;&#34; Type &#124; &#40;Pattern &#34;&#58;&#34; Type &#124; Pattern&#41; &#34;supports&#34; Type &#124; Pattern</title>
<style><![CDATA[
svg.railroad-diagram {
    background-color: hsl(30,20%,95%);
}
svg.railroad-diagram path {
    stroke-width: 3;
    stroke: black;
    fill: rgba(0,0,0,0);
}
svg.railroad-diagram text {
    font: bold 14px monospace;
    text-anchor: middle;
    white-space: pre;
}
svg.railroad-diagram text.diagram-text {
    font-size: 12px;
}
svg.railroad-diagram text.diagram-arrow {
    font-size: 16px;
}
svg.railroad-diagram text.label {
    text-anchor: start;
}
svg.railroad-diagram text.comment {
    font: italic 12px monospace;
}
svg.railroad-diagram g.non-terminal text {
    /*font-style: italic;*/
}
svg.railroad-diagram rect {
    stroke-width: 3;
    stroke: black;
    fill: hsl(120,100%,90%);
}
svg.railroad-diagram rect.group-box {
    stroke: gray;
    stroke-dasharray: 10 5;
    fill: none;
}
svg.railroad-diagram path.diagram-text {
    stroke-width: 3;
    stroke: black;
    fill: white;
    cursor: help;
}
svg.railroad-diagram g.diagram-text:hover path.diagram-text {
    fill: #eee;
}

]]></style>

<g transform="translate(.5 .5)">
<g>
<path d="M20 81v20m10 -20v20m-10 -10h20"></path>
</g>
<g>
<path d="M40 91h0"></path>
<path d="M494 91h0"></path>
<path d="M40 91a10 10 0 0 0 10 -10v-40a10 10 0 0 1 10 -10"></path>
<g>
<path d="M60 31h106"></path>
<path d="M368 31h106"></path>
<g class="non-terminal">
<path d="M166 31h0"></path>
<path d="M245.5 31h0"></path>
<rect x="166" y="20" width="79.5" height="22"></rect>
<a xlink:href="/reference/syntax/#syntax-for-pattern"><text x="205.75" y="35">Pattern</text>
</a>
</g>
<path d="M245.5 31h10"></path>
<path d="M255.5 31h10"></path>
<g class="terminal">
<path d="M265.5 31h0"></path>
<path d="M294 31h0"></path>
<rect x="265.5" y="20" width="28.5" height="22" rx="10" ry="10"></rect>
<text x="279.75" y="35">:</text>
</g>
<path d="M294 31h10"></path>
<path d="M304 31h10"></path>
<g class="non-terminal">
<path d="M314 31h0"></path>
<path d="M368 31h0"></path>
<rect x="314" y="20" width="54" height="22"></rect>
<a xlink:href="/reference/syntax/#syntax-for-type"><text x="341" y="35">Type</text>
</a>
</g>
</g>
<path d="M474 31a10 10 0 0 1 10 10v40a10 10 0 0 0 10 10"></path>
<path d="M40 91h20"></path>
<g>
<path d="M60 91h0"></path>
<path d="M474 91h0"></path>
<g>
<path d="M60 91h0"></path>
<path d="M302 91h0"></path>
<path d="M60 91a10 10 0 0 0 10 -10v-10a10 10 0 0 1 10 -10"></path>
<g>
<path d="M80 61h0"></path>
<path d="M282 61h0"></path>
<g class="non-terminal">
<path d="M80 61h0"></path>
<path d="M159.5 61h0"></path>
<rect x="80" y="50" width="79.5" height="22"></rect>
<a xlink:href="/reference/syntax/#syntax-for-pattern"><text x="119.75" y="65">Pattern</text>
</a>
</g>
<path d="M159.5 61h10"></path>
<path d="M169.5 61h10"></path>
<g class="terminal">
<path d="M179.5 61h0"></path>
<path d="M208 61h0"></path>
<rect x="179.5" y="50" width="28.5" height="22" rx="10" ry="10"></rect>
<text x="193.75" y="65">:</text>
</g>
<path d="M208 61h10"></path>
<path d="M218 61h10"></path>
<g class="non-terminal">
<path d="M228 61h0"></path>
<path d="M282 61h0"></path>
<rect x="228" y="50" width="54" height="22"></rect>
<a xlink:href="/reference/syntax/#syntax-for-type"><text x="255" y="65">Type</text>
</a>
</g>
</g>
<path d="M282 61a10 10 0 0 1 10 10v10a10 10 0 0 0 10 10"></path>
<path d="M60 91h20"></path>
<g class="non-terminal">
<path d="M80 91h61.25"></path>
<path d="M220.75 91h61.25"></path>
<rect x="141.25" y="80" width="79.5" height="22"></rect>
<a xlink:href="/reference/syntax/#syntax-for-pattern"><text x="181" y="95">Pattern</text>
</a>
</g>
<path d="M282 91h20"></path>
</g>
<path d="M302 91h10"></path>
<g class="terminal">
<path d="M312 91h0"></path>
<path d="M400 91h0"></path>
<rect x="312" y="80" width="88" height="22" rx="10" ry="10"></rect>
<text x="356" y="95">supports</text>
</g>
<path d="M400 91h10"></path>
<path d="M410 91h10"></path>
<g class="non-terminal">
<path d="M420 91h0"></path>
<path d="M474 91h0"></path>
<rect x="420" y="80" width="54" height="22"></rect>
<a xlink:href="/reference/syntax/#syntax-for-type"><text x="447" y="95">Type</text>
</a>
</g>
</g>
<path d="M474 91h20"></path>
<path d="M40 91a10 10 0 0 1 10 10v10a10 10 0 0 0 10 10"></path>
<g class="non-terminal">
<path d="M60 121h167.25"></path>
<path d="M306.75 121h167.25"></path>
<rect x="227.25" y="110" width="79.5" height="22"></rect>
<a xlink:href="/reference/syntax/#syntax-for-pattern"><text x="267" y="125">Pattern</text>
</a>
</g>
<path d="M474 121a10 10 0 0 0 10 -10v-10a10 10 0 0 1 10 -10"></path>
</g>
<path d="M 494 91 h 20 m -10 -10 v 20 m 10 -20 v 20"></path>
</g>
</svg>
