<svg class="railroad-diagram" width="370" height="62" viewBox="0 0 370 62" role="img" xmlns="http://www.w3.org/2000/svg" version="1.1" xmlns:xlink="http://www.w3.org/1999/xlink"><title>JsonProperty &#58;&#61; JsonString &#34;&#58;&#34; JsonValue</title>
<style><![CDATA[
svg.railroad-diagram {
    background-color: hsl(30,20%,95%);
}
svg.railroad-diagram path {
    stroke-width: 3;
    stroke: black;
    fill: rgba(0,0,0,0);
}
svg.railroad-diagram text {
    font: bold 14px monospace;
    text-anchor: middle;
    white-space: pre;
}
svg.railroad-diagram text.diagram-text {
    font-size: 12px;
}
svg.railroad-diagram text.diagram-arrow {
    font-size: 16px;
}
svg.railroad-diagram text.label {
    text-anchor: start;
}
svg.railroad-diagram text.comment {
    font: italic 12px monospace;
}
svg.railroad-diagram g.non-terminal text {
    /*font-style: italic;*/
}
svg.railroad-diagram rect {
    stroke-width: 3;
    stroke: black;
    fill: hsl(120,100%,90%);
}
svg.railroad-diagram rect.group-box {
    stroke: gray;
    stroke-dasharray: 10 5;
    fill: none;
}
svg.railroad-diagram path.diagram-text {
    stroke-width: 3;
    stroke: black;
    fill: white;
    cursor: help;
}
svg.railroad-diagram g.diagram-text:hover path.diagram-text {
    fill: #eee;
}

]]></style>

<g transform="translate(.5 .5)">
<g>
<path d="M20 21v20m10 -20v20m-10 -10h20"></path>
</g>
<path d="M40 31h10"></path>
<g>
<path d="M50 31h0"></path>
<path d="M320 31h0"></path>
<g class="non-terminal">
<path d="M50 31h0"></path>
<path d="M155 31h0"></path>
<rect x="50" y="20" width="105" height="22"></rect>
<a xlink:href="/reference/syntax/#syntax-for-jsonstring"><text x="102.5" y="35">JsonString</text>
</a>
</g>
<path d="M155 31h10"></path>
<path d="M165 31h10"></path>
<g class="terminal">
<path d="M175 31h0"></path>
<path d="M203.5 31h0"></path>
<rect x="175" y="20" width="28.5" height="22" rx="10" ry="10"></rect>
<text x="189.25" y="35">:</text>
</g>
<path d="M203.5 31h10"></path>
<path d="M213.5 31h10"></path>
<g class="non-terminal">
<path d="M223.5 31h0"></path>
<path d="M320 31h0"></path>
<rect x="223.5" y="20" width="96.5" height="22"></rect>
<a xlink:href="/reference/syntax/#syntax-for-jsonvalue"><text x="271.75" y="35">JsonValue</text>
</a>
</g>
</g>
<path d="M320 31h10"></path>
<path d="M 330 31 h 20 m -10 -10 v 20 m 10 -20 v 20"></path>
</g>
</svg>
