<?xml version="1.0" encoding="UTF-8" standalone="no"?>
<svg
   id="Layer_19"
   data-name="Layer 19"
   viewBox="0 0 1010 285"
   version="1.1"
   sodipodi:docname="temper-logo-text-light.svg"
   inkscape:export-filename="inkscape\temper-logo-text-light-1400.png"
   inkscape:export-xdpi="128"
   inkscape:export-ydpi="128"
   inkscape:version="1.2.2 (732a01da63, 2022-12-09)"
   width="1010"
   height="285"
   xmlns:inkscape="http://www.inkscape.org/namespaces/inkscape"
   xmlns:sodipodi="http://sodipodi.sourceforge.net/DTD/sodipodi-0.dtd"
   xmlns="http://www.w3.org/2000/svg"
   xmlns:svg="http://www.w3.org/2000/svg">
  <sodipodi:namedview
     id="namedview54"
     pagecolor="#ffffff"
     bordercolor="#000000"
     borderopacity="0.25"
     inkscape:showpageshadow="2"
     inkscape:pageopacity="0.0"
     inkscape:pagecheckerboard="0"
     inkscape:deskcolor="#d1d1d1"
     showgrid="false"
     inkscape:zoom="2.0079167"
     inkscape:cx="424.3204"
     inkscape:cy="126.00125"
     inkscape:window-width="2560"
     inkscape:window-height="1476"
     inkscape:window-x="-12"
     inkscape:window-y="-12"
     inkscape:window-maximized="1"
     inkscape:current-layer="Layer_19" />
  <defs
     id="defs11">
    <style
       id="style9">
      .cls-1 {
        fill: #e8c4c4;
      }

      .cls-2 {
        fill: #fff;
      }

      .cls-3 {
        fill: #ce7777;
      }

      .cls-4 {
        fill: #2b3a55;
      }

      .cls-5 {
        opacity: .5;
      }

      @media (prefers-color-scheme: dark) {
         .cls-4 {
            fill: white;
         }
      }
    </style>
  </defs>
  <g
     id="g51"
     transform="matrix(1.2098482,0,0,1.2098482,-140.29069,-143.76823)">
    <g
       id="g27">
      <path
         class="cls-1"
         d="m 228.92,306.65 c -12.45,0 -24.73,-3.21 -35.72,-9.47 -1.02,-0.59 -3.88,-2.37 -5.02,-3.14 v 0 c 0,0 -68.09,-45.93 -68.09,-45.93 l 4.19,-6.22 c 4.2,-6.24 9.9,-11.45 16.46,-15.06 7.2,-3.97 15.38,-6.01 23.63,-5.88 4.14,0.06 7.45,3.47 7.39,7.61 -0.06,4.1 -3.41,7.39 -7.5,7.39 -0.04,0 -0.07,0 -0.11,0 -5.65,-0.06 -11.25,1.31 -16.18,4.03 -2.32,1.27 -4.44,2.8 -6.34,4.56 l 55.01,37.11 c 0.54,0.35 2.96,1.9 4.03,2.52 25.24,14.37 57.63,7.28 74.72,-16.03 v -0.74 l 2.21,-2.21 0.06,-0.06 0.53,-0.53 0.48,-0.3 c 1.21,-0.83 2.67,-1.32 4.24,-1.32 4.14,0 7.5,3.36 7.5,7.5 0,0.18 0,0.36 -0.02,0.54 v 2.8 l -1.81,1.66 c -10.29,14.83 -25.6,25.21 -43.2,29.29 -5.45,1.26 -10.96,1.88 -16.44,1.88 z"
         id="path15" />
      <path
         class="cls-1"
         d="m 336.79,306.65 c -5.47,0 -10.97,-0.62 -16.4,-1.88 -17.68,-4.08 -33.04,-14.53 -43.34,-29.45 l -1.69,-1.69 v -2.58 c -0.02,-0.19 -0.03,-0.38 -0.03,-0.57 0,-4.14 3.36,-7.5 7.5,-7.5 2.1,0 3.99,0.86 5.35,2.25 l 2.17,2.17 v 0.74 c 17.09,23.3 49.49,30.38 74.75,16 1.38,-0.8 2.62,-1.57 3.76,-2.33 l 55.25,-37.27 c -1.91,-1.76 -4.03,-3.29 -6.34,-4.55 -4.95,-2.73 -10.53,-4.11 -16.19,-4.04 -0.04,0 -0.07,0 -0.11,0 -4.09,0 -7.44,-3.29 -7.5,-7.39 -0.06,-4.14 3.25,-7.55 7.39,-7.61 8.28,-0.13 16.42,1.92 23.63,5.89 6.54,3.58 12.23,8.79 16.46,15.04 l 4.2,6.22 -68.4,46.14 c -1.43,0.96 -2.97,1.92 -4.7,2.92 -11.02,6.27 -23.32,9.48 -35.77,9.48 z"
         id="path17" />
      <path
         class="cls-3"
         d="m 252.43,285.6 c -6.28,0 -12.58,-0.82 -18.76,-2.47 -17.66,-4.72 -32.75,-15.8 -42.5,-31.2 -0.94,-1.46 -1.89,-3.09 -2.8,-4.8 l -38.74,-72.85 6.62,-3.52 c 6.64,-3.54 14.12,-5.46 21.61,-5.56 7.94,-0.12 15.81,1.78 22.83,5.48 0.38,0.19 0.74,0.39 1.09,0.6 3.53,2.16 4.65,6.78 2.49,10.31 -2.14,3.5 -6.69,4.63 -10.21,2.54 L 193.8,184 c -4.83,-2.56 -10.27,-3.87 -15.72,-3.79 -2.65,0.03 -5.23,0.38 -7.74,1.04 l 31.28,58.84 c 0.72,1.35 1.47,2.63 2.21,3.79 15.82,24.98 48.48,33.82 74.73,20.41 l 0.04,-0.03 0.72,-0.36 c 0.06,-0.03 0.12,-0.06 0.18,-0.09 l 1.51,-0.8 h 1.36 c 2.05,-0.15 4.13,0.53 5.72,2.05 3,2.86 3.12,7.6 0.26,10.6 -0.19,0.2 -0.39,0.38 -0.59,0.56 l -1.97,1.79 h -1.1 c -10.12,5.04 -21.14,7.6 -32.24,7.6 z"
         id="path19" />
      <path
         class="cls-3"
         d="m 313.3,285.61 c -11.1,0 -22.1,-2.56 -32.21,-7.59 h -1.4 l -2.28,-2.36 c -2.86,-3 -2.74,-7.75 0.26,-10.6 1.59,-1.52 3.68,-2.2 5.72,-2.05 h 2.7 l 1.36,1.42 c 26.2,13.23 58.7,4.35 74.45,-20.51 0.77,-1.2 1.52,-2.48 2.24,-3.84 l 31.27,-58.81 c -2.52,-0.66 -5.1,-1.02 -7.7,-1.06 -5.45,-0.08 -10.91,1.22 -15.77,3.8 l -0.26,0.13 c -3.53,2.08 -8.09,0.95 -10.22,-2.56 -2.15,-3.54 -1.03,-8.15 2.51,-10.31 0.34,-0.21 0.7,-0.4 1.08,-0.59 7.05,-3.71 14.97,-5.58 22.89,-5.47 7.46,0.11 14.91,2.03 21.54,5.56 l 6.62,3.52 -38.73,72.84 c -0.91,1.71 -1.86,3.34 -2.83,4.84 -9.73,15.36 -24.82,26.44 -42.47,31.16 -6.19,1.66 -12.5,2.48 -18.78,2.48 z"
         id="path21" />
      <path
         class="cls-4"
         d="m 282.89,350.25 c -4.14,0 -7.5,-3.36 -7.5,-7.5 V 197.77 c 0,-4.14 3.36,-7.5 7.5,-7.5 4.14,0 7.5,3.36 7.5,7.5 v 144.98 c 0,4.14 -3.36,7.5 -7.5,7.5 z"
         id="path23" />
      <path
         class="cls-4"
         d="m 282.89,277.98 c -39.98,0 -72.5,-32.52 -72.5,-72.5 v -82.5 h 7.5 c 26.19,0 47.5,21.31 47.5,47.5 v 50.24 c 0,4.14 -3.36,7.5 -7.5,7.5 -4.14,0 -7.5,-3.36 -7.5,-7.5 v -50.24 c 0,-15.34 -10.68,-28.23 -25,-31.63 v 66.63 c 0,31.71 25.79,57.5 57.5,57.5 31.71,0 57.5,-25.79 57.5,-57.5 v -66.63 c -14.32,3.39 -25,16.29 -25,31.63 v 50.24 c 0,4.14 -3.36,7.5 -7.5,7.5 -4.14,0 -7.5,-3.36 -7.5,-7.5 v -50.24 c 0,-26.19 21.31,-47.5 47.5,-47.5 h 7.5 v 82.5 c 0,39.98 -32.52,72.5 -72.5,72.5 z"
         id="path25" />
    </g>
    <g
       id="g41">
      <path
         class="cls-4"
         d="m 515.84,211.59 v 37.18 c 0,5.78 3.56,8.44 9.34,8.44 2.52,0 5.63,-0.59 8.89,-1.63 v 14.22 c -4.45,1.48 -8.89,2.22 -13.34,2.22 -12.3,0 -22.68,-6.37 -22.68,-21.92 v -38.51 h -11.86 v -14.07 h 11.86 v -15.26 l 17.79,-11.99 v 27.25 h 18.23 v 14.07 z"
         id="path29" />
      <path
         class="cls-4"
         d="m 605.97,239.88 h -50.1 c 0.74,9.63 6.67,16 18.23,16 6.52,0 12.45,-2.07 17.49,-7.85 l 12.3,10.81 c -8,8.89 -17.64,13.18 -29.94,13.18 -25.2,0 -35.87,-18.07 -35.87,-37.62 0,-19.55 10.38,-38.36 34.69,-38.36 22.68,0 33.65,16.74 33.65,37.03 0,2.22 -0.15,4.44 -0.44,6.81 z m -16.6,-14.07 c -0.3,-9.33 -7.41,-14.96 -16.75,-14.96 -10.82,0 -15.86,7.7 -16.9,14.96 z"
         id="path31" />
      <path
         class="cls-4"
         d="m 724.47,224.03 v 46.51 h -17.79 v -41.18 c 0,-5.78 -0.74,-17.77 -12.45,-17.77 -14.97,0 -14.38,16.44 -14.38,31.1 v 27.85 h -17.79 v -41.18 c 0,-5.78 -0.74,-17.77 -12.3,-17.77 -14.97,0 -14.53,16.44 -14.53,31.1 v 27.85 h -17.79 l -0.15,-73.02 h 17.2 v 9.18 c 4.74,-8.15 12.3,-10.66 19.57,-10.66 8,0 16.9,3.11 21.35,14.37 5.63,-10.96 14.08,-14.37 23.57,-14.37 17.64,0 25.5,13.33 25.5,27.99 z"
         id="path33" />
      <path
         class="cls-4"
         d="m 809.15,234.1 c 0,23.85 -12.9,37.92 -30.83,37.92 -8.3,0 -16.45,-3.41 -21.05,-8.89 v 37.62 H 739.48 V 197.51 h 17.79 v 7.26 c 5.04,-6.22 13.19,-8.74 21.05,-8.74 19.86,0 30.83,16.15 30.83,38.07 z m -17.79,-0.15 c 0,-14.37 -5.48,-22.37 -17.34,-22.37 -12.9,0 -18.38,9.33 -18.38,22.37 0,13.04 5.49,22.51 18.23,22.51 11.86,0 17.49,-8.29 17.49,-22.51 z"
         id="path35" />
      <path
         class="cls-4"
         d="m 883.88,239.88 h -50.1 c 0.74,9.63 6.67,16 18.23,16 6.52,0 12.45,-2.07 17.49,-7.85 l 12.3,10.81 c -8,8.89 -17.64,13.18 -29.94,13.18 -25.2,0 -35.87,-18.07 -35.87,-37.62 0,-19.55 10.38,-38.36 34.69,-38.36 22.68,0 33.65,16.74 33.65,37.03 0,2.22 -0.15,4.44 -0.44,6.81 z m -16.6,-14.07 c -0.3,-9.33 -7.41,-14.96 -16.75,-14.96 -10.82,0 -15.86,7.7 -16.9,14.96 z"
         id="path37" />
      <path
         class="cls-4"
         d="M 946.64,200.18 938.22,216 c -2.52,-1.63 -5.51,-2.63 -9.07,-2.63 -10.82,0 -16.16,6.67 -16.16,20.44 v 36.73 H 895.2 v -73.02 h 17.94 v 12.44 c 3.11,-9.04 11.27,-13.92 19.57,-13.92 4.89,0 9.19,1.19 13.93,4.15 z"
         id="path39" />
    </g>
    <g
       class="cls-5"
       id="g49">
      <g
         id="g47">
        <path
           class="cls-4"
           d="m 925.21,270.54 v -11.25 h -3.47 v -2.16 h 9.36 v 2.16 h -3.42 v 11.25 z"
           id="path43" />
        <path
           class="cls-4"
           d="m 932.51,270.54 v -13.41 h 2.34 l 5.02,6.82 h -1.12 l 4.91,-6.82 H 946 v 13.41 h -2.47 v -10.62 l 0.95,0.23 -5.09,6.79 h -0.29 l -4.97,-6.79 0.81,-0.23 v 10.62 h -2.45 z"
           id="path45" />
      </g>
    </g>
  </g>
</svg>
