<?xml version="1.0" encoding="UTF-8"?>
<svg id="Layer_19" data-name="Layer 19" xmlns="http://www.w3.org/2000/svg" viewBox="25 25 350 350">
  <defs>
    <style>
      .cls-1 {
        fill: #e8c4c4;
      }

      .cls-2 {
        fill: #2b3a55;
      }

      .cls-3 {
        fill: #ce7777;
      }

      .cls-4 {
        fill: #fff;
      }

      @media (prefers-color-scheme: dark) {
        .cls-2 {
          fill: #fff;
        }
        .cls-4 {
          fill: #2b3a55;
        }
      }
    </style>
  </defs>
  <rect class="cls-4" x="0" y="0" width="400" height="400" rx="200" ry="200"/>
  <path class="cls-1" d="m370.49,217.97c-4.54-6.72-10.66-12.32-17.69-16.17-7.75-4.27-16.5-6.47-25.4-6.33-4.45.07-8.01,3.73-7.94,8.18.06,4.41,3.66,7.95,8.06,7.95h.12c6.08-.08,12.08,1.41,17.4,4.34,2.48,1.36,4.76,3,6.81,4.89l-59.4,40.06c-1.22.82-2.55,1.65-4.04,2.51-27.16,15.46-61.98,7.85-80.36-17.2v-.8l-2.19-2.19c-1.47-1.56-3.52-2.56-5.83-2.56-.01,0-.02,0-.04,0,0,0-.02,0-.03,0-.07,0-.13.04-.2.04-.89.03-1.73.21-2.53.51-.37.14-.69.32-1.04.51-.24.13-.51.2-.73.36l-.51.32-.49.49c-.12.11-.22.22-.33.33l-2.18,2.19v.79c-18.38,25.06-53.2,32.68-80.33,17.23-1.15-.67-3.76-2.33-4.34-2.71l-59.13-39.89c2.05-1.89,4.33-3.53,6.82-4.9,5.3-2.92,11.33-4.4,17.4-4.33h.12c4.4,0,8-3.53,8.06-7.95.06-4.45-3.49-8.11-7.95-8.18-8.87-.14-17.66,2.06-25.4,6.33-7.06,3.87-13.18,9.47-17.7,16.18l-4.5,6.68,73.2,49.38h0c1.22.83,4.3,2.74,5.4,3.37,11.81,6.73,25.02,10.18,38.4,10.18,5.89,0,11.82-.67,17.67-2.02,15.8-3.66,29.66-12.25,40.31-24.19,10.66,11.95,24.54,20.54,40.34,24.19,5.84,1.35,11.75,2.02,17.63,2.02,13.38,0,26.61-3.46,38.45-10.2,1.86-1.07,3.52-2.1,5.05-3.14l73.53-49.6-4.51-6.68Z"/>
  <path class="cls-3" d="m336.1,141.51c-7.13-3.79-15.14-5.86-23.16-5.97-8.52-.12-17.03,1.9-24.61,5.88-.4.2-.79.41-1.16.63-3.8,2.31-5.01,7.27-2.7,11.08,2.3,3.77,7.19,4.99,10.99,2.75l.28-.14c5.22-2.77,11.09-4.17,16.95-4.08,2.79.04,5.57.43,8.27,1.14l-33.62,63.22c-.78,1.46-1.58,2.83-2.41,4.13-16.93,26.73-51.87,36.27-80.04,22.05l-1.46-1.52h-2.9c-.19-.02-.37.07-.56.07s-.37-.09-.56-.07h-1.46l-1.62.86c-.06.03-.13.07-.19.1l-.77.39-.04.04c-28.22,14.42-63.33,4.91-80.34-21.94-.8-1.25-1.6-2.63-2.38-4.08l-33.63-63.25c2.7-.71,5.48-1.08,8.32-1.12,5.85-.08,11.71,1.32,16.9,4.08l.28.14c3.79,2.24,8.68,1.03,10.98-2.74,2.32-3.8,1.13-8.76-2.67-11.09-.37-.22-.76-.44-1.17-.64-7.54-3.98-16-6.02-24.54-5.89-8.06.11-16.09,2.17-23.23,5.98l-7.11,3.79,41.64,78.31c.98,1.84,2,3.59,3.01,5.16,10.48,16.55,26.7,28.46,45.68,33.54,6.65,1.78,13.42,2.66,20.17,2.66,11.24,0,22.37-2.53,32.72-7.34,10.35,4.81,21.47,7.34,32.72,7.34,6.75,0,13.53-.88,20.19-2.66,18.97-5.08,35.2-16.99,45.65-33.5,1.04-1.62,2.06-3.36,3.04-5.21l41.64-78.3-7.12-3.79Z"/>
  <path class="cls-2" d="m269.9,90.15c-28.16,0-51.06,22.91-51.06,51.06v54c0,4.45,3.61,8.06,8.06,8.06s8.06-3.61,8.06-8.06v-54c0-16.49,11.48-30.35,26.87-34v71.62c0,31.32-23.5,57-53.75,61v-69.3c0-4.45-3.61-8.06-8.06-8.06s-8.06,3.61-8.06,8.06v69.3c-30.25-4-53.75-29.68-53.75-61v-71.62c15.39,3.65,26.87,17.51,26.87,34v54c0,4.45,3.61,8.06,8.06,8.06s8.06-3.61,8.06-8.06v-54c0-28.16-22.91-51.06-51.06-51.06h-8.06v88.69c0,40.25,30.67,73.47,69.87,77.52v70.04c0,4.45,3.61,8.06,8.06,8.06s8.06-3.61,8.06-8.06v-70.04c39.2-4.05,69.87-37.27,69.87-77.52v-88.69h-8.06Z"/>
</svg>
