<svg class="railroad-diagram" width="489" height="148" viewBox="0 0 489 148" role="img" xmlns="http://www.w3.org/2000/svg" version="1.1" xmlns:xlink="http://www.w3.org/1999/xlink"><title>Formals &#58;&#61; &#40;Formal &#40;&#34;&#44;&#34; Formal&#41;&#42;&#41;&#63; &#34;&#44;&#34;&#63; &#124; Formal &#124; Garbage</title>
<style><![CDATA[
svg.railroad-diagram {
    background-color: hsl(30,20%,95%);
}
svg.railroad-diagram path {
    stroke-width: 3;
    stroke: black;
    fill: rgba(0,0,0,0);
}
svg.railroad-diagram text {
    font: bold 14px monospace;
    text-anchor: middle;
    white-space: pre;
}
svg.railroad-diagram text.diagram-text {
    font-size: 12px;
}
svg.railroad-diagram text.diagram-arrow {
    font-size: 16px;
}
svg.railroad-diagram text.label {
    text-anchor: start;
}
svg.railroad-diagram text.comment {
    font: italic 12px monospace;
}
svg.railroad-diagram g.non-terminal text {
    /*font-style: italic;*/
}
svg.railroad-diagram rect {
    stroke-width: 3;
    stroke: black;
    fill: hsl(120,100%,90%);
}
svg.railroad-diagram rect.group-box {
    stroke: gray;
    stroke-dasharray: 10 5;
    fill: none;
}
svg.railroad-diagram path.diagram-text {
    stroke-width: 3;
    stroke: black;
    fill: white;
    cursor: help;
}
svg.railroad-diagram g.diagram-text:hover path.diagram-text {
    fill: #eee;
}

]]></style>

<g transform="translate(.5 .5)">
<g>
<path d="M20 77v20m10 -20v20m-10 -10h20"></path>
</g>
<g>
<path d="M40 87h0"></path>
<path d="M449 87h0"></path>
<path d="M40 87a10 10 0 0 0 10 -10v-19a10 10 0 0 1 10 -10"></path>
<g>
<path d="M60 48h0"></path>
<path d="M429 48h0"></path>
<g>
<path d="M60 48h0"></path>
<path d="M360.5 48h0"></path>
<path d="M60 48a10 10 0 0 0 10 -10v-8a10 10 0 0 1 10 -10"></path>
<g>
<path d="M80 20h260.5"></path>
</g>
<path d="M340.5 20a10 10 0 0 1 10 10v8a10 10 0 0 0 10 10"></path>
<path d="M60 48h20"></path>
<g>
<path d="M80 48h0"></path>
<path d="M340.5 48h0"></path>
<g class="non-terminal">
<path d="M80 48h0"></path>
<path d="M151 48h0"></path>
<rect x="80" y="37" width="71" height="22"></rect>
<a xlink:href="/reference/syntax/#syntax-for-formal"><text x="115.5" y="52">Formal</text>
</a>
</g>
<path d="M151 48h10"></path>
<g>
<path d="M161 48h0"></path>
<path d="M340.5 48h0"></path>
<path d="M161 48a10 10 0 0 0 10 -10v0a10 10 0 0 1 10 -10"></path>
<g>
<path d="M181 28h139.5"></path>
</g>
<path d="M320.5 28a10 10 0 0 1 10 10v0a10 10 0 0 0 10 10"></path>
<path d="M161 48h20"></path>
<g>
<path d="M181 48h0"></path>
<path d="M320.5 48h0"></path>
<path d="M181 48h10"></path>
<g>
<path d="M191 48h0"></path>
<path d="M310.5 48h0"></path>
<g class="terminal">
<path d="M191 48h0"></path>
<path d="M219.5 48h0"></path>
<rect x="191" y="37" width="28.5" height="22" rx="10" ry="10"></rect>
<text x="205.25" y="52">,</text>
</g>
<path d="M219.5 48h10"></path>
<path d="M229.5 48h10"></path>
<g class="non-terminal">
<path d="M239.5 48h0"></path>
<path d="M310.5 48h0"></path>
<rect x="239.5" y="37" width="71" height="22"></rect>
<a xlink:href="/reference/syntax/#syntax-for-formal"><text x="275" y="52">Formal</text>
</a>
</g>
</g>
<path d="M310.5 48h10"></path>
<path d="M191 48a10 10 0 0 0 -10 10v0a10 10 0 0 0 10 10"></path>
<g>
<path d="M191 68h119.5"></path>
</g>
<path d="M310.5 68a10 10 0 0 0 10 -10v0a10 10 0 0 0 -10 -10"></path>
</g>
<path d="M320.5 48h20"></path>
</g>
</g>
<path d="M340.5 48h20"></path>
</g>
<g>
<path d="M360.5 48h0"></path>
<path d="M429 48h0"></path>
<path d="M360.5 48a10 10 0 0 0 10 -10v0a10 10 0 0 1 10 -10"></path>
<g>
<path d="M380.5 28h28.5"></path>
</g>
<path d="M409 28a10 10 0 0 1 10 10v0a10 10 0 0 0 10 10"></path>
<path d="M360.5 48h20"></path>
<g class="terminal">
<path d="M380.5 48h0"></path>
<path d="M409 48h0"></path>
<rect x="380.5" y="37" width="28.5" height="22" rx="10" ry="10"></rect>
<text x="394.75" y="52">,</text>
</g>
<path d="M409 48h20"></path>
</g>
</g>
<path d="M429 48a10 10 0 0 1 10 10v19a10 10 0 0 0 10 10"></path>
<path d="M40 87h20"></path>
<g class="non-terminal">
<path d="M60 87h149"></path>
<path d="M280 87h149"></path>
<rect x="209" y="76" width="71" height="22"></rect>
<a xlink:href="/reference/syntax/#syntax-for-formal"><text x="244.5" y="91">Formal</text>
</a>
</g>
<path d="M429 87h20"></path>
<path d="M40 87a10 10 0 0 1 10 10v10a10 10 0 0 0 10 10"></path>
<g class="non-terminal">
<path d="M60 117h144.75"></path>
<path d="M284.25 117h144.75"></path>
<rect x="204.75" y="106" width="79.5" height="22"></rect>
<a xlink:href="/reference/syntax/#syntax-for-garbage"><text x="244.5" y="121">Garbage</text>
</a>
</g>
<path d="M429 117a10 10 0 0 0 10 -10v-10a10 10 0 0 1 10 -10"></path>
</g>
<path d="M 449 87 h 20 m -10 -10 v 20 m 10 -20 v 20"></path>
</g>
</svg>
