<svg class="railroad-diagram" width="495.5" height="96" viewBox="0 0 495.5 96" role="img" xmlns="http://www.w3.org/2000/svg" version="1.1" xmlns:xlink="http://www.w3.org/1999/xlink"><title>TopLevelsInSemi &#58;&#61; &#40;Nop&#42; TopLevel&#41;&#42; TrailingSemi</title>
<style><![CDATA[
svg.railroad-diagram {
    background-color: hsl(30,20%,95%);
}
svg.railroad-diagram path {
    stroke-width: 3;
    stroke: black;
    fill: rgba(0,0,0,0);
}
svg.railroad-diagram text {
    font: bold 14px monospace;
    text-anchor: middle;
    white-space: pre;
}
svg.railroad-diagram text.diagram-text {
    font-size: 12px;
}
svg.railroad-diagram text.diagram-arrow {
    font-size: 16px;
}
svg.railroad-diagram text.label {
    text-anchor: start;
}
svg.railroad-diagram text.comment {
    font: italic 12px monospace;
}
svg.railroad-diagram g.non-terminal text {
    /*font-style: italic;*/
}
svg.railroad-diagram rect {
    stroke-width: 3;
    stroke: black;
    fill: hsl(120,100%,90%);
}
svg.railroad-diagram rect.group-box {
    stroke: gray;
    stroke-dasharray: 10 5;
    fill: none;
}
svg.railroad-diagram path.diagram-text {
    stroke-width: 3;
    stroke: black;
    fill: white;
    cursor: help;
}
svg.railroad-diagram g.diagram-text:hover path.diagram-text {
    fill: #eee;
}

]]></style>

<g transform="translate(.5 .5)">
<g>
<path d="M20 38v20m10 -20v20m-10 -10h20"></path>
</g>
<path d="M40 48h10"></path>
<g>
<path d="M50 48h0"></path>
<path d="M445.5 48h0"></path>
<g>
<path d="M50 48h0"></path>
<path d="M313.5 48h0"></path>
<path d="M50 48a10 10 0 0 0 10 -10v-8a10 10 0 0 1 10 -10"></path>
<g>
<path d="M70 20h223.5"></path>
</g>
<path d="M293.5 20a10 10 0 0 1 10 10v8a10 10 0 0 0 10 10"></path>
<path d="M50 48h20"></path>
<g>
<path d="M70 48h0"></path>
<path d="M293.5 48h0"></path>
<path d="M70 48h10"></path>
<g>
<path d="M80 48h0"></path>
<path d="M283.5 48h0"></path>
<g>
<path d="M80 48h0"></path>
<path d="M185.5 48h0"></path>
<path d="M80 48a10 10 0 0 0 10 -10v0a10 10 0 0 1 10 -10"></path>
<g>
<path d="M100 28h65.5"></path>
</g>
<path d="M165.5 28a10 10 0 0 1 10 10v0a10 10 0 0 0 10 10"></path>
<path d="M80 48h20"></path>
<g>
<path d="M100 48h0"></path>
<path d="M165.5 48h0"></path>
<path d="M100 48h10"></path>
<g class="non-terminal">
<path d="M110 48h0"></path>
<path d="M155.5 48h0"></path>
<rect x="110" y="37" width="45.5" height="22"></rect>
<a xlink:href="/reference/syntax/#syntax-for-nop"><text x="132.75" y="52">Nop</text>
</a>
</g>
<path d="M155.5 48h10"></path>
<path d="M110 48a10 10 0 0 0 -10 10v0a10 10 0 0 0 10 10"></path>
<g>
<path d="M110 68h45.5"></path>
</g>
<path d="M155.5 68a10 10 0 0 0 10 -10v0a10 10 0 0 0 -10 -10"></path>
</g>
<path d="M165.5 48h20"></path>
</g>
<path d="M185.5 48h10"></path>
<g class="non-terminal">
<path d="M195.5 48h0"></path>
<path d="M283.5 48h0"></path>
<rect x="195.5" y="37" width="88" height="22"></rect>
<a xlink:href="/reference/syntax/#syntax-for-toplevel"><text x="239.5" y="52">TopLevel</text>
</a>
</g>
</g>
<path d="M283.5 48h10"></path>
<path d="M80 48a10 10 0 0 0 -10 10v8a10 10 0 0 0 10 10"></path>
<g>
<path d="M80 76h203.5"></path>
</g>
<path d="M283.5 76a10 10 0 0 0 10 -10v-8a10 10 0 0 0 -10 -10"></path>
</g>
<path d="M293.5 48h20"></path>
</g>
<path d="M313.5 48h10"></path>
<g class="non-terminal">
<path d="M323.5 48h0"></path>
<path d="M445.5 48h0"></path>
<rect x="323.5" y="37" width="122" height="22"></rect>
<a xlink:href="/reference/syntax/#syntax-for-trailingsemi"><text x="384.5" y="52">TrailingSemi</text>
</a>
</g>
</g>
<path d="M445.5 48h10"></path>
<path d="M 455.5 48 h 20 m -10 -10 v 20 m 10 -20 v 20"></path>
</g>
</svg>
