<svg class="railroad-diagram" width="229" height="214" viewBox="0 0 229 214" role="img" xmlns="http://www.w3.org/2000/svg" version="1.1" xmlns:xlink="http://www.w3.org/1999/xlink"><title>PostfixOp &#58;&#61; &#40;Postfix operators&#58; &#34;&#58;&#34; &#124; &#34;&#43;&#43;&#34; &#124; &#34;&#45;&#45;&#34; &#124; &#34;&#33;&#34; &#124; &#34;&#63;&#34;&#41;</title>
<style><![CDATA[
svg.railroad-diagram {
    background-color: hsl(30,20%,95%);
}
svg.railroad-diagram path {
    stroke-width: 3;
    stroke: black;
    fill: rgba(0,0,0,0);
}
svg.railroad-diagram text {
    font: bold 14px monospace;
    text-anchor: middle;
    white-space: pre;
}
svg.railroad-diagram text.diagram-text {
    font-size: 12px;
}
svg.railroad-diagram text.diagram-arrow {
    font-size: 16px;
}
svg.railroad-diagram text.label {
    text-anchor: start;
}
svg.railroad-diagram text.comment {
    font: italic 12px monospace;
}
svg.railroad-diagram g.non-terminal text {
    /*font-style: italic;*/
}
svg.railroad-diagram rect {
    stroke-width: 3;
    stroke: black;
    fill: hsl(120,100%,90%);
}
svg.railroad-diagram rect.group-box {
    stroke: gray;
    stroke-dasharray: 10 5;
    fill: none;
}
svg.railroad-diagram path.diagram-text {
    stroke-width: 3;
    stroke: black;
    fill: white;
    cursor: help;
}
svg.railroad-diagram g.diagram-text:hover path.diagram-text {
    fill: #eee;
}

]]></style>

<g transform="translate(.5 .5)">
<g>
<path d="M20 45v20m10 -20v20m-10 -10h20"></path>
</g>
<path d="M40 55h10"></path>
<g>
<path d="M50 55h0"></path>
<path d="M179 55h0"></path>
<rect x="50" y="36" width="129" height="158" rx="10" ry="10" class="group-box"></rect>
<g>
<path d="M50 55h26"></path>
<path d="M153 55h26"></path>
<path d="M76 55h20"></path>
<g class="terminal">
<path d="M96 55h4.25"></path>
<path d="M128.75 55h4.25"></path>
<rect x="100.25" y="44" width="28.5" height="22" rx="10" ry="10"></rect>
<text x="114.5" y="59">:</text>
<title>SelectivePostColon</title>
</g>
<path d="M133 55h20"></path>
<path d="M76 55a10 10 0 0 1 10 10v10a10 10 0 0 0 10 10"></path>
<g class="terminal">
<path d="M96 85h0"></path>
<path d="M133 85h0"></path>
<rect x="96" y="74" width="37" height="22" rx="10" ry="10"></rect>
<text x="114.5" y="89">++</text>
<title>PostIncr</title>
</g>
<path d="M133 85a10 10 0 0 0 10 -10v-10a10 10 0 0 1 10 -10"></path>
<path d="M76 55a10 10 0 0 1 10 10v40a10 10 0 0 0 10 10"></path>
<g class="terminal">
<path d="M96 115h0"></path>
<path d="M133 115h0"></path>
<rect x="96" y="104" width="37" height="22" rx="10" ry="10"></rect>
<text x="114.5" y="119">--</text>
<title>PostDecr</title>
</g>
<path d="M133 115a10 10 0 0 0 10 -10v-40a10 10 0 0 1 10 -10"></path>
<path d="M76 55a10 10 0 0 1 10 10v70a10 10 0 0 0 10 10"></path>
<g class="terminal">
<path d="M96 145h4.25"></path>
<path d="M128.75 145h4.25"></path>
<rect x="100.25" y="134" width="28.5" height="22" rx="10" ry="10"></rect>
<text x="114.5" y="149">!</text>
<title>PostBang</title>
</g>
<path d="M133 145a10 10 0 0 0 10 -10v-70a10 10 0 0 1 10 -10"></path>
<path d="M76 55a10 10 0 0 1 10 10v100a10 10 0 0 0 10 10"></path>
<g class="terminal">
<path d="M96 175h4.25"></path>
<path d="M128.75 175h4.25"></path>
<rect x="100.25" y="164" width="28.5" height="22" rx="10" ry="10"></rect>
<text x="114.5" y="179">?</text>
<title>PostQuest</title>
</g>
<path d="M133 175a10 10 0 0 0 10 -10v-100a10 10 0 0 1 10 -10"></path>
</g>
<g>
<path d="M50 28h0"></path>
<path d="M179 28h0"></path>
<text x="114.5" y="33" class="comment">Postfix operators</text>
</g>
</g>
<path d="M179 55h10"></path>
<path d="M 189 55 h 20 m -10 -10 v 20 m 10 -20 v 20"></path>
</g>
</svg>
