<svg class="railroad-diagram" width="441" height="92" viewBox="0 0 441 92" role="img" xmlns="http://www.w3.org/2000/svg" version="1.1" xmlns:xlink="http://www.w3.org/1999/xlink"><title>CalleeAndRequiredArgs &#58;&#61; CalleeAndRequiredArgs &#34;&#58;&#34; Type &#124; Callee CallArgs</title>
<style><![CDATA[
svg.railroad-diagram {
    background-color: hsl(30,20%,95%);
}
svg.railroad-diagram path {
    stroke-width: 3;
    stroke: black;
    fill: rgba(0,0,0,0);
}
svg.railroad-diagram text {
    font: bold 14px monospace;
    text-anchor: middle;
    white-space: pre;
}
svg.railroad-diagram text.diagram-text {
    font-size: 12px;
}
svg.railroad-diagram text.diagram-arrow {
    font-size: 16px;
}
svg.railroad-diagram text.label {
    text-anchor: start;
}
svg.railroad-diagram text.comment {
    font: italic 12px monospace;
}
svg.railroad-diagram g.non-terminal text {
    /*font-style: italic;*/
}
svg.railroad-diagram rect {
    stroke-width: 3;
    stroke: black;
    fill: hsl(120,100%,90%);
}
svg.railroad-diagram rect.group-box {
    stroke: gray;
    stroke-dasharray: 10 5;
    fill: none;
}
svg.railroad-diagram path.diagram-text {
    stroke-width: 3;
    stroke: black;
    fill: white;
    cursor: help;
}
svg.railroad-diagram g.diagram-text:hover path.diagram-text {
    fill: #eee;
}

]]></style>

<g transform="translate(.5 .5)">
<g>
<path d="M20 51v20m10 -20v20m-10 -10h20"></path>
</g>
<g>
<path d="M40 61h0"></path>
<path d="M401 61h0"></path>
<path d="M40 61a10 10 0 0 0 10 -10v-10a10 10 0 0 1 10 -10"></path>
<g>
<path d="M60 31h0"></path>
<path d="M381 31h0"></path>
<g class="non-terminal">
<path d="M60 31h0"></path>
<path d="M258.5 31h0"></path>
<rect x="60" y="20" width="198.5" height="22"></rect>
<a xlink:href="/reference/syntax/#syntax-for-calleeandrequiredargs"><text x="159.25" y="35">CalleeAndRequiredArgs</text>
</a>
</g>
<path d="M258.5 31h10"></path>
<path d="M268.5 31h10"></path>
<g class="terminal">
<path d="M278.5 31h0"></path>
<path d="M307 31h0"></path>
<rect x="278.5" y="20" width="28.5" height="22" rx="10" ry="10"></rect>
<text x="292.75" y="35">:</text>
</g>
<path d="M307 31h10"></path>
<path d="M317 31h10"></path>
<g class="non-terminal">
<path d="M327 31h0"></path>
<path d="M381 31h0"></path>
<rect x="327" y="20" width="54" height="22"></rect>
<a xlink:href="/reference/syntax/#syntax-for-type"><text x="354" y="35">Type</text>
</a>
</g>
</g>
<path d="M381 31a10 10 0 0 1 10 10v10a10 10 0 0 0 10 10"></path>
<path d="M40 61h20"></path>
<g>
<path d="M60 61h71"></path>
<path d="M310 61h71"></path>
<g class="non-terminal">
<path d="M131 61h0"></path>
<path d="M202 61h0"></path>
<rect x="131" y="50" width="71" height="22"></rect>
<a xlink:href="/reference/syntax/#syntax-for-callee"><text x="166.5" y="65">Callee</text>
</a>
</g>
<path d="M202 61h10"></path>
<path d="M212 61h10"></path>
<g class="non-terminal">
<path d="M222 61h0"></path>
<path d="M310 61h0"></path>
<rect x="222" y="50" width="88" height="22"></rect>
<a xlink:href="/reference/syntax/#syntax-for-callargs"><text x="266" y="65">CallArgs</text>
</a>
</g>
</g>
<path d="M381 61h20"></path>
</g>
<path d="M 401 61 h 20 m -10 -10 v 20 m 10 -20 v 20"></path>
</g>
</svg>
