<svg class="railroad-diagram" width="347.5" height="92" viewBox="0 0 347.5 92" role="img" xmlns="http://www.w3.org/2000/svg" version="1.1" xmlns:xlink="http://www.w3.org/1999/xlink"><title>Infix &#58;&#61; Expr InfixOp Type &#124; Expr InfixOp Expr</title>
<style><![CDATA[
svg.railroad-diagram {
    background-color: hsl(30,20%,95%);
}
svg.railroad-diagram path {
    stroke-width: 3;
    stroke: black;
    fill: rgba(0,0,0,0);
}
svg.railroad-diagram text {
    font: bold 14px monospace;
    text-anchor: middle;
    white-space: pre;
}
svg.railroad-diagram text.diagram-text {
    font-size: 12px;
}
svg.railroad-diagram text.diagram-arrow {
    font-size: 16px;
}
svg.railroad-diagram text.label {
    text-anchor: start;
}
svg.railroad-diagram text.comment {
    font: italic 12px monospace;
}
svg.railroad-diagram g.non-terminal text {
    /*font-style: italic;*/
}
svg.railroad-diagram rect {
    stroke-width: 3;
    stroke: black;
    fill: hsl(120,100%,90%);
}
svg.railroad-diagram rect.group-box {
    stroke: gray;
    stroke-dasharray: 10 5;
    fill: none;
}
svg.railroad-diagram path.diagram-text {
    stroke-width: 3;
    stroke: black;
    fill: white;
    cursor: help;
}
svg.railroad-diagram g.diagram-text:hover path.diagram-text {
    fill: #eee;
}

]]></style>

<g transform="translate(.5 .5)">
<g>
<path d="M20 51v20m10 -20v20m-10 -10h20"></path>
</g>
<g>
<path d="M40 61h0"></path>
<path d="M307.5 61h0"></path>
<path d="M40 61a10 10 0 0 0 10 -10v-10a10 10 0 0 1 10 -10"></path>
<g>
<path d="M60 31h0"></path>
<path d="M287.5 31h0"></path>
<g class="non-terminal">
<path d="M60 31h0"></path>
<path d="M114 31h0"></path>
<rect x="60" y="20" width="54" height="22"></rect>
<a xlink:href="/reference/syntax/#syntax-for-expr"><text x="87" y="35">Expr</text>
</a>
</g>
<path d="M114 31h10"></path>
<path d="M124 31h10"></path>
<g class="non-terminal">
<path d="M134 31h0"></path>
<path d="M213.5 31h0"></path>
<rect x="134" y="20" width="79.5" height="22"></rect>
<a xlink:href="/reference/syntax/#syntax-for-infixop"><text x="173.75" y="35">InfixOp</text>
</a>
</g>
<path d="M213.5 31h10"></path>
<path d="M223.5 31h10"></path>
<g class="non-terminal">
<path d="M233.5 31h0"></path>
<path d="M287.5 31h0"></path>
<rect x="233.5" y="20" width="54" height="22"></rect>
<a xlink:href="/reference/syntax/#syntax-for-type"><text x="260.5" y="35">Type</text>
</a>
</g>
</g>
<path d="M287.5 31a10 10 0 0 1 10 10v10a10 10 0 0 0 10 10"></path>
<path d="M40 61h20"></path>
<g>
<path d="M60 61h0"></path>
<path d="M287.5 61h0"></path>
<g class="non-terminal">
<path d="M60 61h0"></path>
<path d="M114 61h0"></path>
<rect x="60" y="50" width="54" height="22"></rect>
<a xlink:href="/reference/syntax/#syntax-for-expr"><text x="87" y="65">Expr</text>
</a>
</g>
<path d="M114 61h10"></path>
<path d="M124 61h10"></path>
<g class="non-terminal">
<path d="M134 61h0"></path>
<path d="M213.5 61h0"></path>
<rect x="134" y="50" width="79.5" height="22"></rect>
<a xlink:href="/reference/syntax/#syntax-for-infixop"><text x="173.75" y="65">InfixOp</text>
</a>
</g>
<path d="M213.5 61h10"></path>
<path d="M223.5 61h10"></path>
<g class="non-terminal">
<path d="M233.5 61h0"></path>
<path d="M287.5 61h0"></path>
<rect x="233.5" y="50" width="54" height="22"></rect>
<a xlink:href="/reference/syntax/#syntax-for-expr"><text x="260.5" y="65">Expr</text>
</a>
</g>
</g>
<path d="M287.5 61h20"></path>
</g>
<path d="M 307.5 61 h 20 m -10 -10 v 20 m 10 -20 v 20"></path>
</g>
</svg>
