<svg class="railroad-diagram" width="208" height="152" viewBox="0 0 208 152" role="img" xmlns="http://www.w3.org/2000/svg" version="1.1" xmlns:xlink="http://www.w3.org/1999/xlink"><title>ReservedWord &#58;&#61; &#34;nym&#34; &#124; &#34;builtins&#34; &#124; &#34;this&#34; &#124; &#34;super&#34;</title>
<style><![CDATA[
svg.railroad-diagram {
    background-color: hsl(30,20%,95%);
}
svg.railroad-diagram path {
    stroke-width: 3;
    stroke: black;
    fill: rgba(0,0,0,0);
}
svg.railroad-diagram text {
    font: bold 14px monospace;
    text-anchor: middle;
    white-space: pre;
}
svg.railroad-diagram text.diagram-text {
    font-size: 12px;
}
svg.railroad-diagram text.diagram-arrow {
    font-size: 16px;
}
svg.railroad-diagram text.label {
    text-anchor: start;
}
svg.railroad-diagram text.comment {
    font: italic 12px monospace;
}
svg.railroad-diagram g.non-terminal text {
    /*font-style: italic;*/
}
svg.railroad-diagram rect {
    stroke-width: 3;
    stroke: black;
    fill: hsl(120,100%,90%);
}
svg.railroad-diagram rect.group-box {
    stroke: gray;
    stroke-dasharray: 10 5;
    fill: none;
}
svg.railroad-diagram path.diagram-text {
    stroke-width: 3;
    stroke: black;
    fill: white;
    cursor: help;
}
svg.railroad-diagram g.diagram-text:hover path.diagram-text {
    fill: #eee;
}

]]></style>

<g transform="translate(.5 .5)">
<g>
<path d="M20 21v20m10 -20v20m-10 -10h20"></path>
</g>
<g>
<path d="M40 31h0"></path>
<path d="M168 31h0"></path>
<path d="M40 31h20"></path>
<g class="terminal">
<path d="M60 31h21.25"></path>
<path d="M126.75 31h21.25"></path>
<rect x="81.25" y="20" width="45.5" height="22" rx="10" ry="10"></rect>
<text x="104" y="35">nym</text>
</g>
<path d="M148 31h20"></path>
<path d="M40 31a10 10 0 0 1 10 10v10a10 10 0 0 0 10 10"></path>
<g class="terminal">
<path d="M60 61h0"></path>
<path d="M148 61h0"></path>
<rect x="60" y="50" width="88" height="22" rx="10" ry="10"></rect>
<text x="104" y="65">builtins</text>
</g>
<path d="M148 61a10 10 0 0 0 10 -10v-10a10 10 0 0 1 10 -10"></path>
<path d="M40 31a10 10 0 0 1 10 10v40a10 10 0 0 0 10 10"></path>
<g class="terminal">
<path d="M60 91h17"></path>
<path d="M131 91h17"></path>
<rect x="77" y="80" width="54" height="22" rx="10" ry="10"></rect>
<text x="104" y="95">this</text>
</g>
<path d="M148 91a10 10 0 0 0 10 -10v-40a10 10 0 0 1 10 -10"></path>
<path d="M40 31a10 10 0 0 1 10 10v70a10 10 0 0 0 10 10"></path>
<g class="terminal">
<path d="M60 121h12.75"></path>
<path d="M135.25 121h12.75"></path>
<rect x="72.75" y="110" width="62.5" height="22" rx="10" ry="10"></rect>
<text x="104" y="125">super</text>
</g>
<path d="M148 121a10 10 0 0 0 10 -10v-70a10 10 0 0 1 10 -10"></path>
</g>
<path d="M 168 31 h 20 m -10 -10 v 20 m 10 -20 v 20"></path>
</g>
</svg>
