<svg class="railroad-diagram" width="331" height="131" viewBox="0 0 331 131" role="img" xmlns="http://www.w3.org/2000/svg" version="1.1" xmlns:xlink="http://www.w3.org/1999/xlink"><title>CallArgs &#58;&#61; StringGroupTagged &#124; &#34;&#40;&#34; &#40;ForArgs &#124; Args&#63;&#41; &#34;&#41;&#34;</title>
<style><![CDATA[
svg.railroad-diagram {
    background-color: hsl(30,20%,95%);
}
svg.railroad-diagram path {
    stroke-width: 3;
    stroke: black;
    fill: rgba(0,0,0,0);
}
svg.railroad-diagram text {
    font: bold 14px monospace;
    text-anchor: middle;
    white-space: pre;
}
svg.railroad-diagram text.diagram-text {
    font-size: 12px;
}
svg.railroad-diagram text.diagram-arrow {
    font-size: 16px;
}
svg.railroad-diagram text.label {
    text-anchor: start;
}
svg.railroad-diagram text.comment {
    font: italic 12px monospace;
}
svg.railroad-diagram g.non-terminal text {
    /*font-style: italic;*/
}
svg.railroad-diagram rect {
    stroke-width: 3;
    stroke: black;
    fill: hsl(120,100%,90%);
}
svg.railroad-diagram rect.group-box {
    stroke: gray;
    stroke-dasharray: 10 5;
    fill: none;
}
svg.railroad-diagram path.diagram-text {
    stroke-width: 3;
    stroke: black;
    fill: white;
    cursor: help;
}
svg.railroad-diagram g.diagram-text:hover path.diagram-text {
    fill: #eee;
}

]]></style>

<g transform="translate(.5 .5)">
<g>
<path d="M20 90v20m10 -20v20m-10 -10h20"></path>
</g>
<g>
<path d="M40 100h0"></path>
<path d="M291 100h0"></path>
<path d="M40 100a10 10 0 0 0 10 -10v-49a10 10 0 0 1 10 -10"></path>
<g class="non-terminal">
<path d="M60 31h23.25"></path>
<path d="M247.75 31h23.25"></path>
<rect x="83.25" y="20" width="164.5" height="22"></rect>
<a xlink:href="/reference/syntax/#syntax-for-stringgrouptagged"><text x="165.5" y="35">StringGroupTagged</text>
</a>
</g>
<path d="M271 31a10 10 0 0 1 10 10v49a10 10 0 0 0 10 10"></path>
<path d="M40 100h20"></path>
<g>
<path d="M60 100h0"></path>
<path d="M271 100h0"></path>
<g class="terminal">
<path d="M60 100h0"></path>
<path d="M88.5 100h0"></path>
<rect x="60" y="89" width="28.5" height="22" rx="10" ry="10"></rect>
<text x="74.25" y="104">(</text>
</g>
<path d="M88.5 100h10"></path>
<g>
<path d="M98.5 100h0"></path>
<path d="M232.5 100h0"></path>
<path d="M98.5 100a10 10 0 0 0 10 -10v-19a10 10 0 0 1 10 -10"></path>
<g class="non-terminal">
<path d="M118.5 61h7.25"></path>
<path d="M205.25 61h7.25"></path>
<rect x="125.75" y="50" width="79.5" height="22"></rect>
<a xlink:href="/reference/syntax/#syntax-for-forargs"><text x="165.5" y="65">ForArgs</text>
</a>
</g>
<path d="M212.5 61a10 10 0 0 1 10 10v19a10 10 0 0 0 10 10"></path>
<path d="M98.5 100h20"></path>
<g>
<path d="M118.5 100h0"></path>
<path d="M212.5 100h0"></path>
<path d="M118.5 100a10 10 0 0 0 10 -10v0a10 10 0 0 1 10 -10"></path>
<g>
<path d="M138.5 80h54"></path>
</g>
<path d="M192.5 80a10 10 0 0 1 10 10v0a10 10 0 0 0 10 10"></path>
<path d="M118.5 100h20"></path>
<g class="non-terminal">
<path d="M138.5 100h0"></path>
<path d="M192.5 100h0"></path>
<rect x="138.5" y="89" width="54" height="22"></rect>
<a xlink:href="/reference/syntax/#syntax-for-args"><text x="165.5" y="104">Args</text>
</a>
</g>
<path d="M192.5 100h20"></path>
</g>
<path d="M212.5 100h20"></path>
</g>
<path d="M232.5 100h10"></path>
<g class="terminal">
<path d="M242.5 100h0"></path>
<path d="M271 100h0"></path>
<rect x="242.5" y="89" width="28.5" height="22" rx="10" ry="10"></rect>
<text x="256.75" y="104">)</text>
</g>
</g>
<path d="M271 100h20"></path>
</g>
<path d="M 291 100 h 20 m -10 -10 v 20 m 10 -20 v 20"></path>
</g>
</svg>
