<?xml version="1.0" encoding="UTF-8"?>
<svg id="Layer_1" xmlns="http://www.w3.org/2000/svg" viewBox="0 0 3710.99 939">
<defs>
<style>
.cls-1{fill:#ff7f3f;stroke:#ff7f3f;}
.cls-2{fill:#100720;stroke:#100720;}
</style>
</defs>
<g>
<path class="cls-2" d="M1163.7,193.32h-94.11v103.8h-63.66v72.66h63.66v142.55c0,22.38,.23,42.38,.69,60.03,.46,17.65,5.3,35,14.53,52.07,10.15,18.22,24.97,31.43,44.46,39.62,19.49,8.19,41.63,12.57,66.43,13.15,24.79,.57,50.11-1.56,75.95-6.4v-78.2c-22.14,3-42.33,3.92-60.55,2.77-18.22-1.15-31.49-8.3-39.79-21.45-4.38-6.92-6.75-16.2-7.09-27.85-.35-11.64-.52-24.74-.52-39.27v-137.02h107.95v-72.66h-107.95v-103.8Z"/>
<path class="cls-2" d="M1584.63,314.42c-27.45-18.45-60.78-27.68-99.99-27.68-36.91,0-69.55,8.36-97.92,25.08-28.37,16.73-50.63,40.2-66.78,70.41-16.15,30.22-24.22,65.74-24.22,106.57,0,37.37,8.25,70.53,24.74,99.47,16.49,28.95,39.33,51.67,68.51,68.16,29.18,16.49,62.91,24.74,101.21,24.74,35.98,0,69.14-9.46,99.48-28.37,30.33-18.91,52.53-45.44,66.6-79.58l-94.11-26.99c-6.92,15.22-16.95,26.87-30.1,34.95-13.15,8.08-28.95,12.11-47.4,12.11-29.3,0-51.5-9.51-66.6-28.54-11.06-13.93-18.05-32.1-21.02-54.5h262.35c3.92-45.21-.69-84.54-13.84-117.99-13.15-33.44-33.45-59.39-60.9-77.85Zm-95.84,53.98c27.45,0,47.23,8.36,59.34,25.08,7.97,11.01,13.32,26.64,16.04,46.88h-164.67c3.69-17.29,9.86-31.55,18.53-42.73,15.1-19.49,38.69-29.24,70.76-29.24Z"/>
<path class="cls-2" d="M2131.23,288.12c-24.91,0-47.58,5.48-67.99,16.43-18.95,10.17-34.32,24.08-46.11,41.7-8.84-15.99-21.03-29.15-36.58-39.45-18.8-12.46-42.85-18.68-72.14-18.68-25.6,0-48.73,5.65-69.37,16.95-15.79,8.64-29.1,19.65-39.96,33.01v-40.97h-83.04v373.68h94.8v-226.28c0-21.45,5.94-38.92,17.82-52.42,11.88-13.49,27.62-20.24,47.23-20.24s36.62,6.87,48.27,20.59c11.64,13.73,17.47,32.93,17.47,57.61v220.75h94.11v-226.28c0-14.3,2.71-26.93,8.13-37.89,5.42-10.95,12.97-19.49,22.66-25.6,9.69-6.11,21.11-9.17,34.25-9.17,20.53,0,36.62,6.87,48.27,20.59,11.65,13.73,17.47,32.93,17.47,57.61v220.75h94.11v-245.66c0-40.83-10.9-73.87-32.7-99.13s-54.04-37.89-96.71-37.89Z"/>
<path class="cls-2" d="M2604.69,312.34c-26.53-17.07-57.67-25.6-93.42-25.6s-65.39,8.65-89.61,25.95c-2.25,1.61-4.43,3.28-6.57,5v-20.57h-83.04V836.88h94.8v-179.13c24.24,15.61,53.99,23.43,89.27,23.43s64.47-8.65,90.31-25.95c25.83-17.3,45.96-40.83,60.38-70.58,14.41-29.76,21.62-63.32,21.62-100.69s-7.33-71.91-21.97-101.55c-14.65-29.64-35.24-52.99-61.76-70.07Zm-25.26,228.88c-6.23,17.19-15.8,30.85-28.72,41-12.92,10.15-29.53,15.22-49.82,15.22s-37.77-4.73-50.34-14.19c-12.58-9.46-21.62-22.72-27.16-39.79-5.54-17.07-8.3-36.9-8.3-59.51s2.77-42.44,8.3-59.51c5.54-17.07,14.36-30.33,26.47-39.79,12.11-9.46,27.97-14.19,47.58-14.19,20.99,0,38.23,5.14,51.73,15.4,13.49,10.27,23.47,23.99,29.93,41.17,6.46,17.19,9.69,36.16,9.69,56.92s-3.11,40.08-9.34,57.26Z"/>
<path class="cls-2" d="M3017.46,314.42c-27.45-18.45-60.78-27.68-99.99-27.68-36.91,0-69.55,8.36-97.92,25.08-28.37,16.73-50.63,40.2-66.78,70.41-16.15,30.22-24.22,65.74-24.22,106.57,0,37.37,8.25,70.53,24.74,99.47,16.49,28.95,39.33,51.67,68.51,68.16,29.18,16.49,62.91,24.74,101.21,24.74,35.98,0,69.14-9.46,99.48-28.37,30.33-18.91,52.53-45.44,66.6-79.58l-94.11-26.99c-6.92,15.22-16.95,26.87-30.1,34.95-13.15,8.08-28.95,12.11-47.4,12.11-29.3,0-51.5-9.51-66.6-28.54-11.06-13.93-18.05-32.1-21.02-54.5h262.35c3.92-45.21-.69-84.54-13.84-117.99-13.15-33.44-33.45-59.39-60.9-77.85Zm-95.84,53.98c27.45,0,47.23,8.36,59.34,25.08,7.97,11.01,13.32,26.64,16.04,46.88h-164.67c3.69-17.29,9.86-31.55,18.53-42.73,15.1-19.49,38.69-29.24,70.76-29.24Z"/>
<path class="cls-2" d="M3368.92,385v-87.88c-11.3-1.38-22.61-1.67-33.91-.87-11.3,.81-22.26,2.77-32.87,5.88-10.61,3.11-20.41,7.44-29.41,12.98-11.76,6.92-21.68,15.69-29.76,26.3-3.83,5.03-7.28,10.33-10.38,15.87v-60.16h-83.04v373.68h94.8v-190.99c0-14.3,1.96-27.16,5.88-38.58,3.92-11.42,9.69-21.33,17.3-29.76,7.61-8.42,16.95-15.16,28.03-20.24,11.07-5.3,23.47-8.48,37.2-9.51,13.72-1.04,25.78,.06,36.16,3.29Z"/>
<polygon class="cls-2" points="3296.99 611.5 3319.69 611.5 3319.69 670.8 3333.29 670.8 3333.29 611.5 3355.99 611.5 3355.99 598.8 3296.99 598.8 3296.99 611.5"/>
<polygon class="cls-2" points="3420.51 598.8 3396.71 646.6 3372.91 598.8 3360.71 598.8 3360.71 670.8 3373.41 670.8 3373.41 627.8 3394.31 670.8 3399.11 670.8 3420.01 627.8 3420.01 670.8 3432.71 670.8 3432.71 598.8 3420.51 598.8"/>
</g>
<g>
<path class="cls-1" d="M658.8,516.41h0c-37.53,0-70.27,20.47-87.67,50.86-8.46,14.76-13.29,31.86-13.29,50.1,0,19.45,5.5,37.61,15.03,53.02-34.84-50.97-85.11-86.18-140.82-102.96-4.17-1.25-8.36-2.4-12.58-3.45-15.69-3.89-31.74-6.34-47.94-7.29,1.52,.07,3.05,.11,4.59,.11,13.21,0,25.82-2.54,37.38-7.15,18.83-7.51,34.87-20.52,46.12-37.05,.06-.1,.13-.21,.22-.31,.33-.49,.65-.98,.98-1.48,1.05-1.58,2.13-3.16,3.24-4.72,12.93-18.4,28.37-35.3,46.17-50.15,42.31,35.34,94.52,56.35,148.59,60.48Z"/>
<path class="cls-1" d="M665.28,516.61c-.5-.02-1.01-.06-1.52-.08-1.65-.08-3.3-.12-4.97-.12-37.53,0-70.27,20.47-87.68,50.86-8.46,14.76-13.29,31.86-13.29,50.1,0,19.45,5.5,37.61,15.03,53.02,1.23,1.99,2.53,3.94,3.89,5.84,18.32,25.5,48.24,42.11,82.04,42.11,55.75,0,100.96-45.21,100.96-100.96s-41.74-97.42-94.48-100.76Zm-6.49,141.14c-22.3,0-40.38-18.08-40.38-40.38s18.08-40.38,40.38-40.38,40.38,18.08,40.38,40.38-18.08,40.38-40.38,40.38Z"/>
<path class="cls-2" d="M667.68,193.72h-.04c-2.92-.26-5.86-.39-8.84-.39s-5.76,.12-8.59,.36c0,0,0,0-.02,0-31.19,2.63-58.36,19.44-74.99,43.97-.03,.06-.07,.12-.12,.18-.36,.56-.72,1.1-1.1,1.65-.07,.13-.16,.26-.24,.38-10.06,15.71-15.9,34.38-15.9,54.42,0,18.24,4.83,35.34,13.29,50.1,17.41,30.39,50.15,50.86,87.68,50.86,1.52,0,3.03-.03,4.53-.1,.78-.04,1.57-.08,2.34-.13,.08,0,.16,0,.25-.02,52.43-3.66,93.84-47.36,93.84-100.72s-40.48-96.07-92.08-100.57Zm-8.89,140.96c-22.3,0-40.38-18.08-40.38-40.38s18.08-40.38,40.38-40.38,40.38,18.08,40.38,40.38-18.08,40.38-40.38,40.38Z"/>
<path class="cls-2" d="M384.99,355.25h-.04c-2.92-.26-5.86-.39-8.84-.39s-5.76,.12-8.59,.36c0,0,0,0-.02,0-31.19,2.63-58.36,19.44-74.99,43.97-.03,.06-.07,.12-.12,.18-.36,.56-.72,1.1-1.1,1.65-.07,.13-.16,.26-.24,.38-10.06,15.71-15.9,34.38-15.9,54.42,0,18.24,4.83,35.34,13.29,50.1,17.41,30.39,50.15,50.86,87.68,50.86,1.52,0,3.03-.03,4.53-.1,.78-.04,1.57-.08,2.34-.13,.08,0,.16,0,.25-.02,52.43-3.66,93.84-47.36,93.84-100.72s-40.48-96.07-92.08-100.57Zm-8.89,140.96c-22.3,0-40.38-18.08-40.38-40.38s18.08-40.38,40.38-40.38,40.38,18.08,40.38,40.38-18.08,40.38-40.38,40.38Z"/>
<path class="cls-2" d="M658.8,395.25h0c-38.06,2.86-76.08,14.31-111.35,34.67-13.37,7.71-25.79,16.43-37.24,26-17.79,14.85-33.24,31.75-46.17,50.15l-.26-.15c8.46-14.76,13.29-31.86,13.29-50.1s-4.83-35.34-13.29-50.1l.18-.11c-.57-.8-1.13-1.6-1.66-2.4-1.37-2.25-2.84-4.44-4.38-6.57-11.11-15.33-26.4-27.41-44.22-34.56-11.61-4.66-24.3-7.23-37.59-7.23-1.54,0-3.08,.03-4.6,.11,16.13-.93,32.28-3.36,48.23-7.35,4.05-1.01,8.1-2.12,12.12-3.34,19-5.73,37.65-13.73,55.58-24.09,35.69-20.6,64.7-48.32,86.3-80.32-10.06,15.71-15.9,34.38-15.9,54.42,0,18.24,4.83,35.34,13.29,50.1,17.41,30.39,50.15,50.86,87.67,50.86Z"/>
</g>
</svg>