<svg class="railroad-diagram" width="578.5" height="161" viewBox="0 0 578.5 161" role="img" xmlns="http://www.w3.org/2000/svg" version="1.1" xmlns:xlink="http://www.w3.org/1999/xlink"><title>Props &#58;&#61; &#40;PropClass &#124; NoPropClass Prop&#41; &#40;&#34;&#44;&#34; Prop&#41;&#42; &#34;&#44;&#34;&#63; &#124; PropClass &#124; NoPropClass Prop</title>
<style><![CDATA[
svg.railroad-diagram {
    background-color: hsl(30,20%,95%);
}
svg.railroad-diagram path {
    stroke-width: 3;
    stroke: black;
    fill: rgba(0,0,0,0);
}
svg.railroad-diagram text {
    font: bold 14px monospace;
    text-anchor: middle;
    white-space: pre;
}
svg.railroad-diagram text.diagram-text {
    font-size: 12px;
}
svg.railroad-diagram text.diagram-arrow {
    font-size: 16px;
}
svg.railroad-diagram text.label {
    text-anchor: start;
}
svg.railroad-diagram text.comment {
    font: italic 12px monospace;
}
svg.railroad-diagram g.non-terminal text {
    /*font-style: italic;*/
}
svg.railroad-diagram rect {
    stroke-width: 3;
    stroke: black;
    fill: hsl(120,100%,90%);
}
svg.railroad-diagram rect.group-box {
    stroke: gray;
    stroke-dasharray: 10 5;
    fill: none;
}
svg.railroad-diagram path.diagram-text {
    stroke-width: 3;
    stroke: black;
    fill: white;
    cursor: help;
}
svg.railroad-diagram g.diagram-text:hover path.diagram-text {
    fill: #eee;
}

]]></style>

<g transform="translate(.5 .5)">
<g>
<path d="M20 90v20m10 -20v20m-10 -10h20"></path>
</g>
<g>
<path d="M40 100h0"></path>
<path d="M538.5 100h0"></path>
<path d="M40 100a10 10 0 0 0 10 -10v-19a10 10 0 0 1 10 -10"></path>
<g>
<path d="M60 61h0"></path>
<path d="M518.5 61h0"></path>
<g>
<path d="M60 61h0"></path>
<path d="M287.5 61h0"></path>
<path d="M60 61a10 10 0 0 0 10 -10v-10a10 10 0 0 1 10 -10"></path>
<g class="non-terminal">
<path d="M80 31h45.5"></path>
<path d="M222 31h45.5"></path>
<rect x="125.5" y="20" width="96.5" height="22"></rect>
<a xlink:href="/reference/syntax/#syntax-for-propclass"><text x="173.75" y="35">PropClass</text>
</a>
</g>
<path d="M267.5 31a10 10 0 0 1 10 10v10a10 10 0 0 0 10 10"></path>
<path d="M60 61h20"></path>
<g>
<path d="M80 61h0"></path>
<path d="M267.5 61h0"></path>
<g class="non-terminal">
<path d="M80 61h0"></path>
<path d="M193.5 61h0"></path>
<rect x="80" y="50" width="113.5" height="22"></rect>
<a xlink:href="/reference/syntax/#syntax-for-nopropclass"><text x="136.75" y="65">NoPropClass</text>
</a>
</g>
<path d="M193.5 61h10"></path>
<path d="M203.5 61h10"></path>
<g class="non-terminal">
<path d="M213.5 61h0"></path>
<path d="M267.5 61h0"></path>
<rect x="213.5" y="50" width="54" height="22"></rect>
<a xlink:href="/reference/syntax/#syntax-for-prop"><text x="240.5" y="65">Prop</text>
</a>
</g>
</g>
<path d="M267.5 61h20"></path>
</g>
<g>
<path d="M287.5 61h0"></path>
<path d="M450 61h0"></path>
<path d="M287.5 61a10 10 0 0 0 10 -10v0a10 10 0 0 1 10 -10"></path>
<g>
<path d="M307.5 41h122.5"></path>
</g>
<path d="M430 41a10 10 0 0 1 10 10v0a10 10 0 0 0 10 10"></path>
<path d="M287.5 61h20"></path>
<g>
<path d="M307.5 61h0"></path>
<path d="M430 61h0"></path>
<path d="M307.5 61h10"></path>
<g>
<path d="M317.5 61h0"></path>
<path d="M420 61h0"></path>
<g class="terminal">
<path d="M317.5 61h0"></path>
<path d="M346 61h0"></path>
<rect x="317.5" y="50" width="28.5" height="22" rx="10" ry="10"></rect>
<text x="331.75" y="65">,</text>
</g>
<path d="M346 61h10"></path>
<path d="M356 61h10"></path>
<g class="non-terminal">
<path d="M366 61h0"></path>
<path d="M420 61h0"></path>
<rect x="366" y="50" width="54" height="22"></rect>
<a xlink:href="/reference/syntax/#syntax-for-prop"><text x="393" y="65">Prop</text>
</a>
</g>
</g>
<path d="M420 61h10"></path>
<path d="M317.5 61a10 10 0 0 0 -10 10v0a10 10 0 0 0 10 10"></path>
<g>
<path d="M317.5 81h102.5"></path>
</g>
<path d="M420 81a10 10 0 0 0 10 -10v0a10 10 0 0 0 -10 -10"></path>
</g>
<path d="M430 61h20"></path>
</g>
<g>
<path d="M450 61h0"></path>
<path d="M518.5 61h0"></path>
<path d="M450 61a10 10 0 0 0 10 -10v0a10 10 0 0 1 10 -10"></path>
<g>
<path d="M470 41h28.5"></path>
</g>
<path d="M498.5 41a10 10 0 0 1 10 10v0a10 10 0 0 0 10 10"></path>
<path d="M450 61h20"></path>
<g class="terminal">
<path d="M470 61h0"></path>
<path d="M498.5 61h0"></path>
<rect x="470" y="50" width="28.5" height="22" rx="10" ry="10"></rect>
<text x="484.25" y="65">,</text>
</g>
<path d="M498.5 61h20"></path>
</g>
</g>
<path d="M518.5 61a10 10 0 0 1 10 10v19a10 10 0 0 0 10 10"></path>
<path d="M40 100h20"></path>
<g class="non-terminal">
<path d="M60 100h181"></path>
<path d="M337.5 100h181"></path>
<rect x="241" y="89" width="96.5" height="22"></rect>
<a xlink:href="/reference/syntax/#syntax-for-propclass"><text x="289.25" y="104">PropClass</text>
</a>
</g>
<path d="M518.5 100h20"></path>
<path d="M40 100a10 10 0 0 1 10 10v10a10 10 0 0 0 10 10"></path>
<g>
<path d="M60 130h135.5"></path>
<path d="M383 130h135.5"></path>
<g class="non-terminal">
<path d="M195.5 130h0"></path>
<path d="M309 130h0"></path>
<rect x="195.5" y="119" width="113.5" height="22"></rect>
<a xlink:href="/reference/syntax/#syntax-for-nopropclass"><text x="252.25" y="134">NoPropClass</text>
</a>
</g>
<path d="M309 130h10"></path>
<path d="M319 130h10"></path>
<g class="non-terminal">
<path d="M329 130h0"></path>
<path d="M383 130h0"></path>
<rect x="329" y="119" width="54" height="22"></rect>
<a xlink:href="/reference/syntax/#syntax-for-prop"><text x="356" y="134">Prop</text>
</a>
</g>
</g>
<path d="M518.5 130a10 10 0 0 0 10 -10v-10a10 10 0 0 1 10 -10"></path>
</g>
<path d="M 538.5 100 h 20 m -10 -10 v 20 m 10 -20 v 20"></path>
</g>
</svg>
