<svg class="railroad-diagram" width="581.5" height="80" viewBox="0 0 581.5 80" role="img" xmlns="http://www.w3.org/2000/svg" version="1.1" xmlns:xlink="http://www.w3.org/1999/xlink"><title>StringGroupTagged &#58;&#61; &#34;&#40;&#34; &#47;&#94;&#34;&#43;&#124;&#91;&#92;&#96;&#93;&#36;&#47; StringPartRaw&#42; &#47;&#94;&#34;&#43;&#124;&#91;&#92;&#96;&#93;&#36;&#47; &#34;&#41;&#34;</title>
<style><![CDATA[
svg.railroad-diagram {
    background-color: hsl(30,20%,95%);
}
svg.railroad-diagram path {
    stroke-width: 3;
    stroke: black;
    fill: rgba(0,0,0,0);
}
svg.railroad-diagram text {
    font: bold 14px monospace;
    text-anchor: middle;
    white-space: pre;
}
svg.railroad-diagram text.diagram-text {
    font-size: 12px;
}
svg.railroad-diagram text.diagram-arrow {
    font-size: 16px;
}
svg.railroad-diagram text.label {
    text-anchor: start;
}
svg.railroad-diagram text.comment {
    font: italic 12px monospace;
}
svg.railroad-diagram g.non-terminal text {
    /*font-style: italic;*/
}
svg.railroad-diagram rect {
    stroke-width: 3;
    stroke: black;
    fill: hsl(120,100%,90%);
}
svg.railroad-diagram rect.group-box {
    stroke: gray;
    stroke-dasharray: 10 5;
    fill: none;
}
svg.railroad-diagram path.diagram-text {
    stroke-width: 3;
    stroke: black;
    fill: white;
    cursor: help;
}
svg.railroad-diagram g.diagram-text:hover path.diagram-text {
    fill: #eee;
}

]]></style>

<g transform="translate(.5 .5)">
<g>
<path d="M20 30v20m10 -20v20m-10 -10h20"></path>
</g>
<path d="M40 40h10"></path>
<g>
<path d="M50 40h0"></path>
<path d="M531.5 40h0"></path>
<g class="terminal">
<path d="M50 40h0"></path>
<path d="M78.5 40h0"></path>
<rect x="50" y="29" width="28.5" height="22" rx="10" ry="10"></rect>
<text x="64.25" y="44">(</text>
</g>
<path d="M78.5 40h10"></path>
<path d="M88.5 40h10"></path>
<g>
<path d="M98.5 40h0"></path>
<path d="M185.5 40h0"></path>
<text x="142" y="45" class="comment">/^"+|&#91;'&#96;&#93;$/</text>
</g>
<path d="M185.5 40h10"></path>
<g>
<path d="M195.5 40h0"></path>
<path d="M386 40h0"></path>
<path d="M195.5 40a10 10 0 0 0 10 -10v0a10 10 0 0 1 10 -10"></path>
<g>
<path d="M215.5 20h150.5"></path>
</g>
<path d="M366 20a10 10 0 0 1 10 10v0a10 10 0 0 0 10 10"></path>
<path d="M195.5 40h20"></path>
<g>
<path d="M215.5 40h0"></path>
<path d="M366 40h0"></path>
<path d="M215.5 40h10"></path>
<g class="non-terminal">
<path d="M225.5 40h0"></path>
<path d="M356 40h0"></path>
<rect x="225.5" y="29" width="130.5" height="22"></rect>
<a xlink:href="/reference/syntax/#syntax-for-stringpartraw"><text x="290.75" y="44">StringPartRaw</text>
</a>
</g>
<path d="M356 40h10"></path>
<path d="M225.5 40a10 10 0 0 0 -10 10v0a10 10 0 0 0 10 10"></path>
<g>
<path d="M225.5 60h130.5"></path>
</g>
<path d="M356 60a10 10 0 0 0 10 -10v0a10 10 0 0 0 -10 -10"></path>
</g>
<path d="M366 40h20"></path>
</g>
<path d="M386 40h10"></path>
<g>
<path d="M396 40h0"></path>
<path d="M483 40h0"></path>
<text x="439.5" y="45" class="comment">/^"+|&#91;'&#96;&#93;$/</text>
</g>
<path d="M483 40h10"></path>
<path d="M493 40h10"></path>
<g class="terminal">
<path d="M503 40h0"></path>
<path d="M531.5 40h0"></path>
<rect x="503" y="29" width="28.5" height="22" rx="10" ry="10"></rect>
<text x="517.25" y="44">)</text>
</g>
</g>
<path d="M531.5 40h10"></path>
<path d="M 541.5 40 h 20 m -10 -10 v 20 m 10 -20 v 20"></path>
</g>
</svg>
