<svg class="railroad-diagram" width="1224.5" height="743" viewBox="0 0 1224.5 743" role="img" xmlns="http://www.w3.org/2000/svg" version="1.1" xmlns:xlink="http://www.w3.org/1999/xlink"><title>StringGroupTagged &#58;&#61; &#40;Whether escape sequences are expanded is up to the tag&#58; &#34;&#92;u0022&#34; &#40;SourceCharacter &#45; &#40;&#92;&#92;n&#92;&#44; &#92;&#92;r&#92;&#44; &#92;&#92;&#92;&#44; &#92;&#34;&#92;&#41; &#124; EscapeSequence &#124; &#40;UTF&#45;16 Code Unit&#58; &#34;&#92;&#92;u&#34; Hex Hex Hex Hex&#41; &#124; &#40;Unicode Scalar Values&#58; &#34;&#92;&#92;u&#123;&#34; HexDigits&#43;&#40;&#34;&#44;&#34;&#41; &#34;&#125;&#34;&#41; &#124; &#40;Interpolation&#58; &#34;&#92;u0024&#123;&#34; Expr &#34;&#125;&#34;&#41;&#41;&#42; &#34;&#92;u0022&#34; &#124; &#34;&#92;u0022&#92;u0022&#92;u0022&#34; &#40;Content line starting with &#96;&#34;&#96;&#58; &#34;LineBreak&#34; indentation &#40;Ignored margin quote&#58; &#34;&#92;u0022&#34;&#41; &#40;&#40;SourceCharacter &#45; &#40;&#92;&#92;&#92;&#41; &#124; EscapeSequence &#124; &#40;UTF&#45;16 Code Unit&#58; &#34;&#92;&#92;u&#34; Hex Hex Hex Hex&#41; &#124; &#40;Unicode Scalar Values&#58; &#34;&#92;&#92;u&#123;&#34; HexDigits&#43;&#40;&#34;&#44;&#34;&#41; &#34;&#125;&#34;&#41; &#124; &#40;Interpolation&#58; &#34;&#92;u0024&#123;&#34; Expr &#34;&#125;&#34;&#41;&#41;&#42; &#124; &#34;&#123;&#58;&#34; StatementFragment &#34;&#58;&#125;&#34;&#41;&#41;&#42; &#34;LineBreak&#34;&#41;</title>
<style><![CDATA[
svg.railroad-diagram {
    background-color: hsl(30,20%,95%);
}
svg.railroad-diagram path {
    stroke-width: 3;
    stroke: black;
    fill: rgba(0,0,0,0);
}
svg.railroad-diagram text {
    font: bold 14px monospace;
    text-anchor: middle;
    white-space: pre;
}
svg.railroad-diagram text.diagram-text {
    font-size: 12px;
}
svg.railroad-diagram text.diagram-arrow {
    font-size: 16px;
}
svg.railroad-diagram text.label {
    text-anchor: start;
}
svg.railroad-diagram text.comment {
    font: italic 12px monospace;
}
svg.railroad-diagram g.non-terminal text {
    /*font-style: italic;*/
}
svg.railroad-diagram rect {
    stroke-width: 3;
    stroke: black;
    fill: hsl(120,100%,90%);
}
svg.railroad-diagram rect.group-box {
    stroke: gray;
    stroke-dasharray: 10 5;
    fill: none;
}
svg.railroad-diagram path.diagram-text {
    stroke-width: 3;
    stroke: black;
    fill: white;
    cursor: help;
}
svg.railroad-diagram g.diagram-text:hover path.diagram-text {
    fill: #eee;
}

]]></style>

<g transform="translate(.5 .5)">
<g>
<path d="M20 54v20m10 -20v20m-10 -10h20"></path>
</g>
<path d="M40 64h10"></path>
<g>
<path d="M50 64h0"></path>
<path d="M1174.5 64h0"></path>
<rect x="50" y="36" width="1124.5" height="687" rx="10" ry="10" class="group-box"></rect>
<g>
<path d="M50 64h0"></path>
<path d="M1174.5 64h0"></path>
<path d="M50 64h20"></path>
<g>
<path d="M70 64h273.75"></path>
<path d="M880.75 64h273.75"></path>
<g class="terminal">
<path d="M343.75 64h0"></path>
<path d="M372.25 64h0"></path>
<rect x="343.75" y="53" width="28.5" height="22" rx="10" ry="10"></rect>
<text x="358" y="68">"</text>
</g>
<path d="M372.25 64h10"></path>
<g>
<path d="M382.25 64h0"></path>
<path d="M842.25 64h0"></path>
<path d="M382.25 64a10 10 0 0 0 10 -10v0a10 10 0 0 1 10 -10"></path>
<g>
<path d="M402.25 44h420"></path>
</g>
<path d="M822.25 44a10 10 0 0 1 10 10v0a10 10 0 0 0 10 10"></path>
<path d="M382.25 64h20"></path>
<g>
<path d="M402.25 64h0"></path>
<path d="M822.25 64h0"></path>
<path d="M402.25 64h10"></path>
<g>
<path d="M412.25 64h0"></path>
<path d="M812.25 64h0"></path>
<path d="M412.25 64h20"></path>
<g class="non-terminal">
<path d="M432.25 64h0"></path>
<path d="M792.25 64h0"></path>
<rect x="432.25" y="53" width="360" height="22"></rect>
<text x="612.25" y="68">SourceCharacter - ('\n', '\r', '\', '"')</text>
</g>
<path d="M792.25 64h20"></path>
<path d="M412.25 64a10 10 0 0 1 10 10v10a10 10 0 0 0 10 10"></path>
<g class="non-terminal">
<path d="M432.25 94h110.5"></path>
<path d="M681.75 94h110.5"></path>
<rect x="542.75" y="83" width="139" height="22"></rect>
<a xlink:href="../EscapeSequence/snippet.svg"><text x="612.25" y="98">EscapeSequence</text>
</a>
</g>
<path d="M792.25 94a10 10 0 0 0 10 -10v-10a10 10 0 0 1 10 -10"></path>
<path d="M412.25 64a10 10 0 0 1 10 10v64a10 10 0 0 0 10 10"></path>
<g>
<path d="M432.25 148h20.5"></path>
<path d="M771.75 148h20.5"></path>
<rect x="452.75" y="129" width="319" height="38" rx="10" ry="10" class="group-box"></rect>
<g>
<path d="M452.75 148h10"></path>
<path d="M761.75 148h10"></path>
<g class="terminal">
<path d="M462.75 148h0"></path>
<path d="M499.75 148h0"></path>
<rect x="462.75" y="137" width="37" height="22" rx="10" ry="10"></rect>
<text x="481.25" y="152">\u</text>
</g>
<path d="M499.75 148h10"></path>
<path d="M509.75 148h10"></path>
<g class="non-terminal">
<path d="M519.75 148h0"></path>
<path d="M565.25 148h0"></path>
<rect x="519.75" y="137" width="45.5" height="22"></rect>
<text x="542.5" y="152">Hex</text>
</g>
<path d="M565.25 148h10"></path>
<path d="M575.25 148h10"></path>
<g class="non-terminal">
<path d="M585.25 148h0"></path>
<path d="M630.75 148h0"></path>
<rect x="585.25" y="137" width="45.5" height="22"></rect>
<text x="608" y="152">Hex</text>
</g>
<path d="M630.75 148h10"></path>
<path d="M640.75 148h10"></path>
<g class="non-terminal">
<path d="M650.75 148h0"></path>
<path d="M696.25 148h0"></path>
<rect x="650.75" y="137" width="45.5" height="22"></rect>
<text x="673.5" y="152">Hex</text>
</g>
<path d="M696.25 148h10"></path>
<path d="M706.25 148h10"></path>
<g class="non-terminal">
<path d="M716.25 148h0"></path>
<path d="M761.75 148h0"></path>
<rect x="716.25" y="137" width="45.5" height="22"></rect>
<text x="739" y="152">Hex</text>
</g>
</g>
<g>
<path d="M452.75 121h0"></path>
<path d="M574.75 121h0"></path>
<a xlink:href="https://unicode.org/glossary/#code_unit"><text x="513.75" y="126" class="comment">UTF-16 Code Unit</text>
</a>
</g>
</g>
<path d="M792.25 148a10 10 0 0 0 10 -10v-64a10 10 0 0 1 10 -10"></path>
<path d="M412.25 64a10 10 0 0 1 10 10v126a10 10 0 0 0 10 10"></path>
<g>
<path d="M432.25 210h54.75"></path>
<path d="M737.5 210h54.75"></path>
<rect x="487" y="191" width="250.5" height="68" rx="10" ry="10" class="group-box"></rect>
<g>
<path d="M487 210h10"></path>
<path d="M727.5 210h10"></path>
<g class="terminal">
<path d="M497 210h0"></path>
<path d="M542.5 210h0"></path>
<rect x="497" y="199" width="45.5" height="22" rx="10" ry="10"></rect>
<text x="519.75" y="214">\u{</text>
</g>
<path d="M542.5 210h10"></path>
<path d="M552.5 210h10"></path>
<g>
<path d="M562.5 210h0"></path>
<path d="M679 210h0"></path>
<path d="M562.5 210h10"></path>
<g class="non-terminal">
<path d="M572.5 210h0"></path>
<path d="M669 210h0"></path>
<rect x="572.5" y="199" width="96.5" height="22"></rect>
<text x="620.75" y="214">HexDigits</text>
</g>
<path d="M669 210h10"></path>
<path d="M572.5 210a10 10 0 0 0 -10 10v10a10 10 0 0 0 10 10"></path>
<g class="terminal">
<path d="M572.5 240h34"></path>
<path d="M635 240h34"></path>
<rect x="606.5" y="229" width="28.5" height="22" rx="10" ry="10"></rect>
<text x="620.75" y="244">,</text>
</g>
<path d="M669 240a10 10 0 0 0 10 -10v-10a10 10 0 0 0 -10 -10"></path>
</g>
<path d="M679 210h10"></path>
<path d="M689 210h10"></path>
<g class="terminal">
<path d="M699 210h0"></path>
<path d="M727.5 210h0"></path>
<rect x="699" y="199" width="28.5" height="22" rx="10" ry="10"></rect>
<text x="713.25" y="214">}</text>
</g>
</g>
<g>
<path d="M487 183h0"></path>
<path d="M644 183h0"></path>
<a xlink:href="https://unicode.org/glossary/#unicode_scalar_value"><text x="565.5" y="188" class="comment">Unicode Scalar Values</text>
</a>
</g>
</g>
<path d="M792.25 210a10 10 0 0 0 10 -10v-126a10 10 0 0 1 10 -10"></path>
<path d="M412.25 64a10 10 0 0 1 10 10v218a10 10 0 0 0 10 10"></path>
<g>
<path d="M432.25 302h90.25"></path>
<path d="M702 302h90.25"></path>
<rect x="522.5" y="283" width="179.5" height="38" rx="10" ry="10" class="group-box"></rect>
<g>
<path d="M522.5 302h10"></path>
<path d="M692 302h10"></path>
<g class="terminal">
<path d="M532.5 302h0"></path>
<path d="M569.5 302h0"></path>
<rect x="532.5" y="291" width="37" height="22" rx="10" ry="10"></rect>
<text x="551" y="306">${</text>
</g>
<path d="M569.5 302h10"></path>
<path d="M579.5 302h10"></path>
<g class="non-terminal">
<path d="M589.5 302h0"></path>
<path d="M643.5 302h0"></path>
<rect x="589.5" y="291" width="54" height="22"></rect>
<a xlink:href="../Expr/snippet.svg"><text x="616.5" y="306">Expr</text>
</a>
</g>
<path d="M643.5 302h10"></path>
<path d="M653.5 302h10"></path>
<g class="terminal">
<path d="M663.5 302h0"></path>
<path d="M692 302h0"></path>
<rect x="663.5" y="291" width="28.5" height="22" rx="10" ry="10"></rect>
<text x="677.75" y="306">}</text>
</g>
</g>
<g>
<path d="M522.5 275h0"></path>
<path d="M623.5 275h0"></path>
<text x="573" y="280" class="comment">Interpolation</text>
</g>
</g>
<path d="M792.25 302a10 10 0 0 0 10 -10v-218a10 10 0 0 1 10 -10"></path>
</g>
<path d="M812.25 64h10"></path>
<path d="M412.25 64a10 10 0 0 0 -10 10v245a10 10 0 0 0 10 10"></path>
<g>
<path d="M412.25 329h400"></path>
</g>
<path d="M812.25 329a10 10 0 0 0 10 -10v-245a10 10 0 0 0 -10 -10"></path>
</g>
<path d="M822.25 64h20"></path>
</g>
<path d="M842.25 64h10"></path>
<g class="terminal">
<path d="M852.25 64h0"></path>
<path d="M880.75 64h0"></path>
<rect x="852.25" y="53" width="28.5" height="22" rx="10" ry="10"></rect>
<text x="866.5" y="68">"</text>
</g>
</g>
<path d="M1154.5 64h20"></path>
<path d="M50 64a10 10 0 0 1 10 10v320a10 10 0 0 0 10 10"></path>
<g>
<path d="M70 404h0"></path>
<path d="M1154.5 404h0"></path>
<g class="terminal">
<path d="M70 404h0"></path>
<path d="M115.5 404h0"></path>
<rect x="70" y="393" width="45.5" height="22" rx="10" ry="10"></rect>
<text x="92.75" y="408">"""</text>
</g>
<path d="M115.5 404h10"></path>
<g>
<path d="M125.5 404h0"></path>
<path d="M1048 404h0"></path>
<path d="M125.5 404a10 10 0 0 0 10 -10v-47a10 10 0 0 1 10 -10"></path>
<g>
<path d="M145.5 337h882.5"></path>
</g>
<path d="M1028 337a10 10 0 0 1 10 10v47a10 10 0 0 0 10 10"></path>
<path d="M125.5 404h20"></path>
<g>
<path d="M145.5 404h0"></path>
<path d="M1028 404h0"></path>
<path d="M145.5 404h10"></path>
<g>
<path d="M155.5 404h0"></path>
<path d="M1018 404h0"></path>
<rect x="155.5" y="361" width="862.5" height="346" rx="10" ry="10" class="group-box"></rect>
<g>
<path d="M155.5 404h10"></path>
<path d="M1008 404h10"></path>
<g class="terminal">
<path d="M165.5 404h0"></path>
<path d="M262 404h0"></path>
<rect x="165.5" y="393" width="96.5" height="22" rx="10" ry="10"></rect>
<text x="213.75" y="408">LineBreak</text>
</g>
<path d="M262 404h10"></path>
<path d="M272 404h10"></path>
<g>
<path d="M282 404h0"></path>
<path d="M369 404h0"></path>
<text x="325.5" y="409" class="comment">indentation</text>
</g>
<path d="M369 404h10"></path>
<path d="M379 404h10"></path>
<g>
<path d="M389 404h0"></path>
<path d="M539 404h0"></path>
<rect x="389" y="385" width="150" height="38" rx="10" ry="10" class="group-box"></rect>
<g class="terminal">
<path d="M389 404h60.75"></path>
<path d="M478.25 404h60.75"></path>
<rect x="449.75" y="393" width="28.5" height="22" rx="10" ry="10"></rect>
<text x="464" y="408">"</text>
</g>
<g>
<path d="M389 377h0"></path>
<path d="M539 377h0"></path>
<text x="464" y="382" class="comment">Ignored margin quote</text>
</g>
</g>
<path d="M539 404h10"></path>
<g>
<path d="M549 404h0"></path>
<path d="M1008 404h0"></path>
<path d="M549 404h20"></path>
<g>
<path d="M569 404h0"></path>
<path d="M988 404h0"></path>
<path d="M569 404a10 10 0 0 0 10 -10v0a10 10 0 0 1 10 -10"></path>
<g>
<path d="M589 384h379"></path>
</g>
<path d="M968 384a10 10 0 0 1 10 10v0a10 10 0 0 0 10 10"></path>
<path d="M569 404h20"></path>
<g>
<path d="M589 404h0"></path>
<path d="M968 404h0"></path>
<path d="M589 404h10"></path>
<g>
<path d="M599 404h0"></path>
<path d="M958 404h0"></path>
<path d="M599 404h20"></path>
<g class="non-terminal">
<path d="M619 404h51.75"></path>
<path d="M886.25 404h51.75"></path>
<rect x="670.75" y="393" width="215.5" height="22"></rect>
<text x="778.5" y="408">SourceCharacter - ('\')</text>
</g>
<path d="M938 404h20"></path>
<path d="M599 404a10 10 0 0 1 10 10v10a10 10 0 0 0 10 10"></path>
<g class="non-terminal">
<path d="M619 434h90"></path>
<path d="M848 434h90"></path>
<rect x="709" y="423" width="139" height="22"></rect>
<a xlink:href="../EscapeSequence/snippet.svg"><text x="778.5" y="438">EscapeSequence</text>
</a>
</g>
<path d="M938 434a10 10 0 0 0 10 -10v-10a10 10 0 0 1 10 -10"></path>
<path d="M599 404a10 10 0 0 1 10 10v64a10 10 0 0 0 10 10"></path>
<g>
<path d="M619 488h0"></path>
<path d="M938 488h0"></path>
<rect x="619" y="469" width="319" height="38" rx="10" ry="10" class="group-box"></rect>
<g>
<path d="M619 488h10"></path>
<path d="M928 488h10"></path>
<g class="terminal">
<path d="M629 488h0"></path>
<path d="M666 488h0"></path>
<rect x="629" y="477" width="37" height="22" rx="10" ry="10"></rect>
<text x="647.5" y="492">\u</text>
</g>
<path d="M666 488h10"></path>
<path d="M676 488h10"></path>
<g class="non-terminal">
<path d="M686 488h0"></path>
<path d="M731.5 488h0"></path>
<rect x="686" y="477" width="45.5" height="22"></rect>
<text x="708.75" y="492">Hex</text>
</g>
<path d="M731.5 488h10"></path>
<path d="M741.5 488h10"></path>
<g class="non-terminal">
<path d="M751.5 488h0"></path>
<path d="M797 488h0"></path>
<rect x="751.5" y="477" width="45.5" height="22"></rect>
<text x="774.25" y="492">Hex</text>
</g>
<path d="M797 488h10"></path>
<path d="M807 488h10"></path>
<g class="non-terminal">
<path d="M817 488h0"></path>
<path d="M862.5 488h0"></path>
<rect x="817" y="477" width="45.5" height="22"></rect>
<text x="839.75" y="492">Hex</text>
</g>
<path d="M862.5 488h10"></path>
<path d="M872.5 488h10"></path>
<g class="non-terminal">
<path d="M882.5 488h0"></path>
<path d="M928 488h0"></path>
<rect x="882.5" y="477" width="45.5" height="22"></rect>
<text x="905.25" y="492">Hex</text>
</g>
</g>
<g>
<path d="M619 461h0"></path>
<path d="M741 461h0"></path>
<a xlink:href="https://unicode.org/glossary/#code_unit"><text x="680" y="466" class="comment">UTF-16 Code Unit</text>
</a>
</g>
</g>
<path d="M938 488a10 10 0 0 0 10 -10v-64a10 10 0 0 1 10 -10"></path>
<path d="M599 404a10 10 0 0 1 10 10v126a10 10 0 0 0 10 10"></path>
<g>
<path d="M619 550h34.25"></path>
<path d="M903.75 550h34.25"></path>
<rect x="653.25" y="531" width="250.5" height="68" rx="10" ry="10" class="group-box"></rect>
<g>
<path d="M653.25 550h10"></path>
<path d="M893.75 550h10"></path>
<g class="terminal">
<path d="M663.25 550h0"></path>
<path d="M708.75 550h0"></path>
<rect x="663.25" y="539" width="45.5" height="22" rx="10" ry="10"></rect>
<text x="686" y="554">\u{</text>
</g>
<path d="M708.75 550h10"></path>
<path d="M718.75 550h10"></path>
<g>
<path d="M728.75 550h0"></path>
<path d="M845.25 550h0"></path>
<path d="M728.75 550h10"></path>
<g class="non-terminal">
<path d="M738.75 550h0"></path>
<path d="M835.25 550h0"></path>
<rect x="738.75" y="539" width="96.5" height="22"></rect>
<text x="787" y="554">HexDigits</text>
</g>
<path d="M835.25 550h10"></path>
<path d="M738.75 550a10 10 0 0 0 -10 10v10a10 10 0 0 0 10 10"></path>
<g class="terminal">
<path d="M738.75 580h34"></path>
<path d="M801.25 580h34"></path>
<rect x="772.75" y="569" width="28.5" height="22" rx="10" ry="10"></rect>
<text x="787" y="584">,</text>
</g>
<path d="M835.25 580a10 10 0 0 0 10 -10v-10a10 10 0 0 0 -10 -10"></path>
</g>
<path d="M845.25 550h10"></path>
<path d="M855.25 550h10"></path>
<g class="terminal">
<path d="M865.25 550h0"></path>
<path d="M893.75 550h0"></path>
<rect x="865.25" y="539" width="28.5" height="22" rx="10" ry="10"></rect>
<text x="879.5" y="554">}</text>
</g>
</g>
<g>
<path d="M653.25 523h0"></path>
<path d="M810.25 523h0"></path>
<a xlink:href="https://unicode.org/glossary/#unicode_scalar_value"><text x="731.75" y="528" class="comment">Unicode Scalar Values</text>
</a>
</g>
</g>
<path d="M938 550a10 10 0 0 0 10 -10v-126a10 10 0 0 1 10 -10"></path>
<path d="M599 404a10 10 0 0 1 10 10v218a10 10 0 0 0 10 10"></path>
<g>
<path d="M619 642h69.75"></path>
<path d="M868.25 642h69.75"></path>
<rect x="688.75" y="623" width="179.5" height="38" rx="10" ry="10" class="group-box"></rect>
<g>
<path d="M688.75 642h10"></path>
<path d="M858.25 642h10"></path>
<g class="terminal">
<path d="M698.75 642h0"></path>
<path d="M735.75 642h0"></path>
<rect x="698.75" y="631" width="37" height="22" rx="10" ry="10"></rect>
<text x="717.25" y="646">${</text>
</g>
<path d="M735.75 642h10"></path>
<path d="M745.75 642h10"></path>
<g class="non-terminal">
<path d="M755.75 642h0"></path>
<path d="M809.75 642h0"></path>
<rect x="755.75" y="631" width="54" height="22"></rect>
<a xlink:href="../Expr/snippet.svg"><text x="782.75" y="646">Expr</text>
</a>
</g>
<path d="M809.75 642h10"></path>
<path d="M819.75 642h10"></path>
<g class="terminal">
<path d="M829.75 642h0"></path>
<path d="M858.25 642h0"></path>
<rect x="829.75" y="631" width="28.5" height="22" rx="10" ry="10"></rect>
<text x="844" y="646">}</text>
</g>
</g>
<g>
<path d="M688.75 615h0"></path>
<path d="M789.75 615h0"></path>
<text x="739.25" y="620" class="comment">Interpolation</text>
</g>
</g>
<path d="M938 642a10 10 0 0 0 10 -10v-218a10 10 0 0 1 10 -10"></path>
</g>
<path d="M958 404h10"></path>
<path d="M599 404a10 10 0 0 0 -10 10v245a10 10 0 0 0 10 10"></path>
<g>
<path d="M599 669h359"></path>
</g>
<path d="M958 669a10 10 0 0 0 10 -10v-245a10 10 0 0 0 -10 -10"></path>
</g>
<path d="M968 404h20"></path>
</g>
<path d="M988 404h20"></path>
<path d="M549 404a10 10 0 0 1 10 10v264a10 10 0 0 0 10 10"></path>
<g>
<path d="M569 688h70.25"></path>
<path d="M917.75 688h70.25"></path>
<g class="terminal">
<path d="M639.25 688h0"></path>
<path d="M676.25 688h0"></path>
<rect x="639.25" y="677" width="37" height="22" rx="10" ry="10"></rect>
<text x="657.75" y="692">{:</text>
</g>
<path d="M676.25 688h10"></path>
<path d="M686.25 688h10"></path>
<g class="non-terminal">
<path d="M696.25 688h0"></path>
<path d="M860.75 688h0"></path>
<rect x="696.25" y="677" width="164.5" height="22"></rect>
<text x="778.5" y="692">StatementFragment</text>
</g>
<path d="M860.75 688h10"></path>
<path d="M870.75 688h10"></path>
<g class="terminal">
<path d="M880.75 688h0"></path>
<path d="M917.75 688h0"></path>
<rect x="880.75" y="677" width="37" height="22" rx="10" ry="10"></rect>
<text x="899.25" y="692">:}</text>
</g>
</g>
<path d="M988 688a10 10 0 0 0 10 -10v-264a10 10 0 0 1 10 -10"></path>
</g>
</g>
<g>
<path d="M155.5 353h0"></path>
<path d="M375.5 353h0"></path>
<text x="265.5" y="358" class="comment">Content line starting with &#96;"&#96;</text>
</g>
</g>
<path d="M1018 404h10"></path>
<path d="M155.5 404a10 10 0 0 0 -10 10v291a10 10 0 0 0 10 10"></path>
<g>
<path d="M155.5 715h862.5"></path>
</g>
<path d="M1018 715a10 10 0 0 0 10 -10v-291a10 10 0 0 0 -10 -10"></path>
</g>
<path d="M1028 404h20"></path>
</g>
<path d="M1048 404h10"></path>
<g class="terminal">
<path d="M1058 404h0"></path>
<path d="M1154.5 404h0"></path>
<rect x="1058" y="393" width="96.5" height="22" rx="10" ry="10"></rect>
<text x="1106.25" y="408">LineBreak</text>
</g>
</g>
<path d="M1154.5 404a10 10 0 0 0 10 -10v-320a10 10 0 0 1 10 -10"></path>
</g>
<g>
<path d="M50 28h0"></path>
<path d="M438 28h0"></path>
<text x="244" y="33" class="comment">Whether escape sequences are expanded is up to the tag</text>
</g>
</g>
<path d="M1174.5 64h10"></path>
<path d="M 1184.5 64 h 20 m -10 -10 v 20 m 10 -20 v 20"></path>
</g>
</svg>
