<svg class="railroad-diagram" width="571" height="122" viewBox="0 0 571 122" role="img" xmlns="http://www.w3.org/2000/svg" version="1.1" xmlns:xlink="http://www.w3.org/1999/xlink"><title>BlockLambdaSignatureAndSupers &#58;&#61; BlockLambdaSignatureAndSupers BlockLambdaSupers &#124; BlockLambdaSignature &#124; Garbage</title>
<style><![CDATA[
svg.railroad-diagram {
    background-color: hsl(30,20%,95%);
}
svg.railroad-diagram path {
    stroke-width: 3;
    stroke: black;
    fill: rgba(0,0,0,0);
}
svg.railroad-diagram text {
    font: bold 14px monospace;
    text-anchor: middle;
    white-space: pre;
}
svg.railroad-diagram text.diagram-text {
    font-size: 12px;
}
svg.railroad-diagram text.diagram-arrow {
    font-size: 16px;
}
svg.railroad-diagram text.label {
    text-anchor: start;
}
svg.railroad-diagram text.comment {
    font: italic 12px monospace;
}
svg.railroad-diagram g.non-terminal text {
    /*font-style: italic;*/
}
svg.railroad-diagram rect {
    stroke-width: 3;
    stroke: black;
    fill: hsl(120,100%,90%);
}
svg.railroad-diagram rect.group-box {
    stroke: gray;
    stroke-dasharray: 10 5;
    fill: none;
}
svg.railroad-diagram path.diagram-text {
    stroke-width: 3;
    stroke: black;
    fill: white;
    cursor: help;
}
svg.railroad-diagram g.diagram-text:hover path.diagram-text {
    fill: #eee;
}

]]></style>

<g transform="translate(.5 .5)">
<g>
<path d="M20 51v20m10 -20v20m-10 -10h20"></path>
</g>
<g>
<path d="M40 61h0"></path>
<path d="M531 61h0"></path>
<path d="M40 61a10 10 0 0 0 10 -10v-10a10 10 0 0 1 10 -10"></path>
<g>
<path d="M60 31h0"></path>
<path d="M511 31h0"></path>
<g class="non-terminal">
<path d="M60 31h0"></path>
<path d="M326.5 31h0"></path>
<rect x="60" y="20" width="266.5" height="22"></rect>
<a xlink:href="/reference/syntax/#syntax-for-blocklambdasignatureandsupers"><text x="193.25" y="35">BlockLambdaSignatureAndSupers</text>
</a>
</g>
<path d="M326.5 31h10"></path>
<path d="M336.5 31h10"></path>
<g class="non-terminal">
<path d="M346.5 31h0"></path>
<path d="M511 31h0"></path>
<rect x="346.5" y="20" width="164.5" height="22"></rect>
<a xlink:href="/reference/syntax/#syntax-for-blocklambdasupers"><text x="428.75" y="35">BlockLambdaSupers</text>
</a>
</g>
</g>
<path d="M511 31a10 10 0 0 1 10 10v10a10 10 0 0 0 10 10"></path>
<path d="M40 61h20"></path>
<g class="non-terminal">
<path d="M60 61h130.5"></path>
<path d="M380.5 61h130.5"></path>
<rect x="190.5" y="50" width="190" height="22"></rect>
<a xlink:href="/reference/syntax/#syntax-for-blocklambdasignature"><text x="285.5" y="65">BlockLambdaSignature</text>
</a>
</g>
<path d="M511 61h20"></path>
<path d="M40 61a10 10 0 0 1 10 10v10a10 10 0 0 0 10 10"></path>
<g class="non-terminal">
<path d="M60 91h185.75"></path>
<path d="M325.25 91h185.75"></path>
<rect x="245.75" y="80" width="79.5" height="22"></rect>
<a xlink:href="/reference/syntax/#syntax-for-garbage"><text x="285.5" y="95">Garbage</text>
</a>
</g>
<path d="M511 91a10 10 0 0 0 10 -10v-10a10 10 0 0 1 10 -10"></path>
</g>
<path d="M 531 61 h 20 m -10 -10 v 20 m 10 -20 v 20"></path>
</g>
</svg>
