<svg class="railroad-diagram" width="330.5" height="152" viewBox="0 0 330.5 152" role="img" xmlns="http://www.w3.org/2000/svg" version="1.1" xmlns:xlink="http://www.w3.org/1999/xlink"><title>AwaitReturnThrowYield &#58;&#61; &#40;&#34;await&#34; &#124; &#34;return&#34; &#124; &#34;throw&#34; &#124; &#34;yield&#34;&#41; &#40;Expr &#124; Garbage &#124; &#40;&#41;&#41;</title>
<style><![CDATA[
svg.railroad-diagram {
    background-color: hsl(30,20%,95%);
}
svg.railroad-diagram path {
    stroke-width: 3;
    stroke: black;
    fill: rgba(0,0,0,0);
}
svg.railroad-diagram text {
    font: bold 14px monospace;
    text-anchor: middle;
    white-space: pre;
}
svg.railroad-diagram text.diagram-text {
    font-size: 12px;
}
svg.railroad-diagram text.diagram-arrow {
    font-size: 16px;
}
svg.railroad-diagram text.label {
    text-anchor: start;
}
svg.railroad-diagram text.comment {
    font: italic 12px monospace;
}
svg.railroad-diagram g.non-terminal text {
    /*font-style: italic;*/
}
svg.railroad-diagram rect {
    stroke-width: 3;
    stroke: black;
    fill: hsl(120,100%,90%);
}
svg.railroad-diagram rect.group-box {
    stroke: gray;
    stroke-dasharray: 10 5;
    fill: none;
}
svg.railroad-diagram path.diagram-text {
    stroke-width: 3;
    stroke: black;
    fill: white;
    cursor: help;
}
svg.railroad-diagram g.diagram-text:hover path.diagram-text {
    fill: #eee;
}

]]></style>

<g transform="translate(.5 .5)">
<g>
<path d="M20 81v20m10 -20v20m-10 -10h20"></path>
</g>
<path d="M40 91h10"></path>
<g>
<path d="M50 91h0"></path>
<path d="M280.5 91h0"></path>
<g>
<path d="M50 91h0"></path>
<path d="M161 91h0"></path>
<path d="M50 91a10 10 0 0 0 10 -10v-10a10 10 0 0 1 10 -10"></path>
<g class="terminal">
<path d="M70 61h0"></path>
<path d="M141 61h0"></path>
<rect x="70" y="50" width="71" height="22" rx="10" ry="10"></rect>
<text x="105.5" y="65">return</text>
</g>
<path d="M141 61a10 10 0 0 1 10 10v10a10 10 0 0 0 10 10"></path>
<path d="M50 91a10 10 0 0 0 10 -10v-40a10 10 0 0 1 10 -10"></path>
<g class="terminal">
<path d="M70 31h4.25"></path>
<path d="M136.75 31h4.25"></path>
<rect x="74.25" y="20" width="62.5" height="22" rx="10" ry="10"></rect>
<text x="105.5" y="35">await</text>
</g>
<path d="M141 31a10 10 0 0 1 10 10v40a10 10 0 0 0 10 10"></path>
<path d="M50 91h20"></path>
<g class="terminal">
<path d="M70 91h4.25"></path>
<path d="M136.75 91h4.25"></path>
<rect x="74.25" y="80" width="62.5" height="22" rx="10" ry="10"></rect>
<text x="105.5" y="95">throw</text>
</g>
<path d="M141 91h20"></path>
<path d="M50 91a10 10 0 0 1 10 10v10a10 10 0 0 0 10 10"></path>
<g class="terminal">
<path d="M70 121h4.25"></path>
<path d="M136.75 121h4.25"></path>
<rect x="74.25" y="110" width="62.5" height="22" rx="10" ry="10"></rect>
<text x="105.5" y="125">yield</text>
</g>
<path d="M141 121a10 10 0 0 0 10 -10v-10a10 10 0 0 1 10 -10"></path>
</g>
<g>
<path d="M161 91h0"></path>
<path d="M280.5 91h0"></path>
<path d="M161 91a10 10 0 0 0 10 -10v-10a10 10 0 0 1 10 -10"></path>
<g class="non-terminal">
<path d="M181 61h12.75"></path>
<path d="M247.75 61h12.75"></path>
<rect x="193.75" y="50" width="54" height="22"></rect>
<a xlink:href="/reference/syntax/#syntax-for-expr"><text x="220.75" y="65">Expr</text>
</a>
</g>
<path d="M260.5 61a10 10 0 0 1 10 10v10a10 10 0 0 0 10 10"></path>
<path d="M161 91h20"></path>
<g class="non-terminal">
<path d="M181 91h0"></path>
<path d="M260.5 91h0"></path>
<rect x="181" y="80" width="79.5" height="22"></rect>
<a xlink:href="/reference/syntax/#syntax-for-garbage"><text x="220.75" y="95">Garbage</text>
</a>
</g>
<path d="M260.5 91h20"></path>
<path d="M161 91a10 10 0 0 1 10 10v0a10 10 0 0 0 10 10"></path>
<g>
<path d="M181 111h79.5"></path>
</g>
<path d="M260.5 111a10 10 0 0 0 10 -10v0a10 10 0 0 1 10 -10"></path>
</g>
</g>
<path d="M280.5 91h10"></path>
<path d="M 290.5 91 h 20 m -10 -10 v 20 m 10 -20 v 20"></path>
</g>
</svg>
