<?xml version="1.0" encoding="UTF-8" standalone="no"?>
<!DOCTYPE svg PUBLIC "-//W3C//DTD SVG 1.1//EN"
 "http://www.w3.org/Graphics/SVG/1.1/DTD/svg11.dtd">
<!-- Generated by graphviz version 2.47.1 (20210417.1919)
 -->
<!-- Title: G Pages: 1 -->
<svg width="1593pt" height="144pt"
 viewBox="0.00 0.00 1593.00 144.39" xmlns="http://www.w3.org/2000/svg" xmlns:xlink="http://www.w3.org/1999/xlink">
<g id="graph0" class="graph" transform="scale(1 1) rotate(0) translate(4 140.39)">
<title>G</title>
<polygon fill="white" stroke="transparent" points="-4,4 -4,-140.39 1589,-140.39 1589,4 -4,4"/>
<!-- Fetcher -->
<g id="node1" class="node">
<title>Fetcher</title>
<polygon fill="none" stroke="black" points="45,-62.39 0,-62.39 0,-38.39 45,-38.39 57,-50.39 45,-62.39"/>
<text text-anchor="middle" x="28.5" y="-46.69" font-family="Times,serif" font-size="14.00">Fetcher</text>
</g>
<!-- Temper Sources -->
<g id="node2" class="node">
<title>Temper Sources</title>
<polygon fill="none" stroke="black" points="193,-68.39 93,-68.39 93,-32.39 199,-32.39 199,-62.39 193,-68.39"/>
<polyline fill="none" stroke="black" points="193,-68.39 193,-62.39 "/>
<polyline fill="none" stroke="black" points="199,-62.39 193,-62.39 "/>
<text text-anchor="middle" x="146" y="-46.69" font-family="Times,serif" font-size="14.00">Temper Sources</text>
</g>
<!-- Fetcher&#45;&gt;Temper Sources -->
<g id="edge1" class="edge">
<title>Fetcher&#45;&gt;Temper Sources</title>
<path fill="none" stroke="black" d="M57.17,-50.39C64.92,-50.39 73.69,-50.39 82.6,-50.39"/>
<polygon fill="black" stroke="black" points="82.68,-53.89 92.68,-50.39 82.68,-46.89 82.68,-53.89"/>
</g>
<!-- Loader -->
<g id="node3" class="node">
<title>Loader</title>
<polygon fill="none" stroke="black" points="278,-76.39 235,-76.39 235,-52.39 278,-52.39 290,-64.39 278,-76.39"/>
<text text-anchor="middle" x="262.5" y="-60.69" font-family="Times,serif" font-size="14.00">Loader</text>
</g>
<!-- Temper Sources&#45;&gt;Loader -->
<g id="edge2" class="edge">
<title>Temper Sources&#45;&gt;Loader</title>
<path fill="none" stroke="black" d="M199.22,-56.78C207.93,-57.84 216.8,-58.93 225.01,-59.93"/>
<polygon fill="black" stroke="black" points="224.64,-63.41 234.99,-61.15 225.49,-56.46 224.64,-63.41"/>
</g>
<!-- Bundler -->
<g id="node14" class="node">
<title>Bundler</title>
<polygon fill="none" stroke="black" points="1439,-76.39 1391,-76.39 1391,-52.39 1439,-52.39 1451,-64.39 1439,-76.39"/>
<text text-anchor="middle" x="1421" y="-60.69" font-family="Times,serif" font-size="14.00">Bundler</text>
</g>
<!-- Temper Sources&#45;&gt;Bundler -->
<g id="edge13" class="edge">
<title>Temper Sources:se&#45;&gt;Bundler</title>
<path fill="none" stroke="black" d="M165,-32.39C228.16,30.77 276.17,-18.39 365.5,-18.39 365.5,-18.39 365.5,-18.39 1186.5,-18.39 1261.86,-18.39 1282.04,-18.53 1355,-37.39 1363.77,-39.66 1372.91,-42.87 1381.47,-46.3"/>
<polygon fill="black" stroke="black" points="1380.26,-49.59 1390.83,-50.22 1382.96,-43.13 1380.26,-49.59"/>
</g>
<!-- Lispy ASTs -->
<g id="node4" class="node">
<title>Lispy ASTs</title>
<polygon fill="none" stroke="black" points="407,-82.39 330,-82.39 326,-78.39 326,-46.39 403,-46.39 407,-50.39 407,-82.39"/>
<polyline fill="none" stroke="black" points="403,-78.39 326,-78.39 "/>
<polyline fill="none" stroke="black" points="403,-78.39 403,-46.39 "/>
<polyline fill="none" stroke="black" points="403,-78.39 407,-82.39 "/>
<text text-anchor="middle" x="366.5" y="-60.69" font-family="Times,serif" font-size="14.00">Lispy ASTs</text>
</g>
<!-- Loader&#45;&gt;Lispy ASTs -->
<g id="edge3" class="edge">
<title>Loader&#45;&gt;Lispy ASTs</title>
<path fill="none" stroke="black" d="M290.03,-64.39C297.84,-64.39 306.65,-64.39 315.42,-64.39"/>
<polygon fill="black" stroke="black" points="315.64,-67.89 325.64,-64.39 315.64,-60.89 315.64,-67.89"/>
</g>
<!-- Frontend -->
<g id="node5" class="node">
<title>Frontend</title>
<polygon fill="none" stroke="black" points="496,-76.39 443,-76.39 443,-52.39 496,-52.39 508,-64.39 496,-76.39"/>
<text text-anchor="middle" x="475.5" y="-60.69" font-family="Times,serif" font-size="14.00">Frontend</text>
</g>
<!-- Lispy ASTs&#45;&gt;Frontend -->
<g id="edge4" class="edge">
<title>Lispy ASTs&#45;&gt;Frontend</title>
<path fill="none" stroke="black" d="M407.04,-64.39C415.42,-64.39 424.29,-64.39 432.75,-64.39"/>
<polygon fill="black" stroke="black" points="432.8,-67.89 442.8,-64.39 432.8,-60.89 432.8,-67.89"/>
</g>
<!-- LispyASTs2 -->
<g id="node6" class="node">
<title>LispyASTs2</title>
<polygon fill="none" stroke="black" points="625,-82.39 548,-82.39 544,-78.39 544,-46.39 621,-46.39 625,-50.39 625,-82.39"/>
<polyline fill="none" stroke="black" points="621,-78.39 544,-78.39 "/>
<polyline fill="none" stroke="black" points="621,-78.39 621,-46.39 "/>
<polyline fill="none" stroke="black" points="621,-78.39 625,-82.39 "/>
<text text-anchor="middle" x="584.5" y="-60.69" font-family="Times,serif" font-size="14.00">Lispy ASTs</text>
</g>
<!-- Frontend&#45;&gt;LispyASTs2 -->
<g id="edge5" class="edge">
<title>Frontend&#45;&gt;LispyASTs2</title>
<path fill="none" stroke="black" d="M508.02,-64.39C516.09,-64.39 524.96,-64.39 533.7,-64.39"/>
<polygon fill="black" stroke="black" points="533.84,-67.89 543.84,-64.39 533.84,-60.89 533.84,-67.89"/>
</g>
<!-- Decompiler -->
<g id="node7" class="node">
<title>Decompiler</title>
<polygon fill="none" stroke="black" points="730,-76.39 661,-76.39 661,-52.39 730,-52.39 742,-64.39 730,-76.39"/>
<text text-anchor="middle" x="701.5" y="-60.69" font-family="Times,serif" font-size="14.00">Decompiler</text>
</g>
<!-- LispyASTs2&#45;&gt;Decompiler -->
<g id="edge6" class="edge">
<title>LispyASTs2&#45;&gt;Decompiler</title>
<path fill="none" stroke="black" d="M625.08,-64.39C633.3,-64.39 642.06,-64.39 650.6,-64.39"/>
<polygon fill="black" stroke="black" points="650.85,-67.89 660.85,-64.39 650.85,-60.89 650.85,-67.89"/>
</g>
<!-- Layered ASTs -->
<g id="node8" class="node">
<title>Layered ASTs</title>
<polygon fill="none" stroke="#b89a0f" points="873,-82.39 782,-82.39 778,-78.39 778,-46.39 869,-46.39 873,-50.39 873,-82.39"/>
<polyline fill="none" stroke="#b89a0f" points="869,-78.39 778,-78.39 "/>
<polyline fill="none" stroke="#b89a0f" points="869,-78.39 869,-46.39 "/>
<polyline fill="none" stroke="#b89a0f" points="869,-78.39 873,-82.39 "/>
<text text-anchor="middle" x="825.5" y="-60.69" font-family="Times,serif" font-size="14.00">Layered ASTs</text>
</g>
<!-- Decompiler&#45;&gt;Layered ASTs -->
<g id="edge7" class="edge">
<title>Decompiler&#45;&gt;Layered ASTs</title>
<path fill="none" stroke="black" d="M742.11,-64.39C750.31,-64.39 759.1,-64.39 767.78,-64.39"/>
<polygon fill="black" stroke="black" points="767.87,-67.89 777.87,-64.39 767.87,-60.89 767.87,-67.89"/>
</g>
<!-- Backend -->
<g id="node9" class="node">
<title>Backend</title>
<polygon fill="none" stroke="#b89a0f" points="961,-76.39 909,-76.39 909,-52.39 961,-52.39 973,-64.39 961,-76.39"/>
<text text-anchor="middle" x="941" y="-60.69" font-family="Times,serif" font-size="14.00">Backend</text>
</g>
<!-- Layered ASTs&#45;&gt;Backend -->
<g id="edge8" class="edge">
<title>Layered ASTs&#45;&gt;Backend</title>
<path fill="none" stroke="black" d="M873.32,-64.39C881.74,-64.39 890.45,-64.39 898.7,-64.39"/>
<polygon fill="black" stroke="black" points="898.83,-67.89 908.83,-64.39 898.83,-60.89 898.83,-67.89"/>
</g>
<!-- Target PL ASTs -->
<g id="node10" class="node">
<title>Target PL ASTs</title>
<polygon fill="none" stroke="#b89a0f" points="1114,-82.39 1013,-82.39 1009,-78.39 1009,-46.39 1110,-46.39 1114,-50.39 1114,-82.39"/>
<polyline fill="none" stroke="#b89a0f" points="1110,-78.39 1009,-78.39 "/>
<polyline fill="none" stroke="#b89a0f" points="1110,-78.39 1110,-46.39 "/>
<polyline fill="none" stroke="#b89a0f" points="1110,-78.39 1114,-82.39 "/>
<text text-anchor="middle" x="1061.5" y="-60.69" font-family="Times,serif" font-size="14.00">Target PL ASTs</text>
</g>
<!-- Backend&#45;&gt;Target PL ASTs -->
<g id="edge9" class="edge">
<title>Backend&#45;&gt;Target PL ASTs</title>
<path fill="none" stroke="black" d="M973.13,-64.39C981.11,-64.39 989.96,-64.39 998.89,-64.39"/>
<polygon fill="black" stroke="black" points="998.96,-67.89 1008.96,-64.39 998.96,-60.89 998.96,-67.89"/>
</g>
<!-- Formatter -->
<g id="node11" class="node">
<title>Formatter</title>
<polygon fill="none" stroke="black" points="1209,-76.39 1150,-76.39 1150,-52.39 1209,-52.39 1221,-64.39 1209,-76.39"/>
<text text-anchor="middle" x="1185.5" y="-60.69" font-family="Times,serif" font-size="14.00">Formatter</text>
</g>
<!-- Target PL ASTs&#45;&gt;Formatter -->
<g id="edge10" class="edge">
<title>Target PL ASTs&#45;&gt;Formatter</title>
<path fill="none" stroke="black" d="M1114.24,-64.39C1122.64,-64.39 1131.28,-64.39 1139.51,-64.39"/>
<polygon fill="black" stroke="black" points="1139.65,-67.89 1149.65,-64.39 1139.65,-60.89 1139.65,-67.89"/>
</g>
<!-- Source Maps -->
<g id="node12" class="node">
<title>Source Maps</title>
<polygon fill="none" stroke="black" points="1344.5,-136.39 1261.5,-136.39 1261.5,-100.39 1350.5,-100.39 1350.5,-130.39 1344.5,-136.39"/>
<polyline fill="none" stroke="black" points="1344.5,-136.39 1344.5,-130.39 "/>
<polyline fill="none" stroke="black" points="1350.5,-130.39 1344.5,-130.39 "/>
<text text-anchor="middle" x="1306" y="-114.69" font-family="Times,serif" font-size="14.00">Source Maps</text>
</g>
<!-- Formatter&#45;&gt;Source Maps -->
<g id="edge11" class="edge">
<title>Formatter:n&#45;&gt;Source Maps</title>
<path fill="none" stroke="black" d="M1185.5,-83.39C1185.5,-112.85 1219.35,-120.86 1251.02,-121.92"/>
<polygon fill="black" stroke="black" points="1251.14,-125.42 1261.18,-122.03 1251.22,-118.42 1251.14,-125.42"/>
</g>
<!-- Target Sources -->
<g id="node13" class="node">
<title>Target Sources</title>
<polygon fill="none" stroke="black" points="1349,-82.39 1257,-82.39 1257,-46.39 1355,-46.39 1355,-76.39 1349,-82.39"/>
<polyline fill="none" stroke="black" points="1349,-82.39 1349,-76.39 "/>
<polyline fill="none" stroke="black" points="1355,-76.39 1349,-76.39 "/>
<text text-anchor="middle" x="1306" y="-60.69" font-family="Times,serif" font-size="14.00">Target Sources</text>
</g>
<!-- Formatter&#45;&gt;Target Sources -->
<g id="edge12" class="edge">
<title>Formatter&#45;&gt;Target Sources</title>
<path fill="none" stroke="black" d="M1221.09,-64.39C1229.15,-64.39 1237.94,-64.39 1246.7,-64.39"/>
<polygon fill="black" stroke="black" points="1246.93,-67.89 1256.93,-64.39 1246.93,-60.89 1246.93,-67.89"/>
</g>
<!-- Source Maps&#45;&gt;Bundler -->
<g id="edge14" class="edge">
<title>Source Maps&#45;&gt;Bundler</title>
<path fill="none" stroke="black" d="M1344.94,-100.26C1356.78,-94.6 1369.84,-88.36 1381.7,-82.69"/>
<polygon fill="black" stroke="black" points="1383.4,-85.76 1390.91,-78.29 1380.38,-79.44 1383.4,-85.76"/>
</g>
<!-- Target Sources&#45;&gt;Bundler -->
<g id="edge15" class="edge">
<title>Target Sources&#45;&gt;Bundler</title>
<path fill="none" stroke="black" d="M1355.25,-64.39C1363.77,-64.39 1372.55,-64.39 1380.78,-64.39"/>
<polygon fill="black" stroke="black" points="1380.86,-67.89 1390.86,-64.39 1380.86,-60.89 1380.86,-67.89"/>
</g>
<!-- Target Outputs -->
<g id="node15" class="node">
<title>Target Outputs</title>
<polygon fill="none" stroke="black" points="1579,-82.39 1487,-82.39 1487,-46.39 1585,-46.39 1585,-76.39 1579,-82.39"/>
<polyline fill="none" stroke="black" points="1579,-82.39 1579,-76.39 "/>
<polyline fill="none" stroke="black" points="1585,-76.39 1579,-76.39 "/>
<text text-anchor="middle" x="1536" y="-60.69" font-family="Times,serif" font-size="14.00">Target Outputs</text>
</g>
<!-- Bundler&#45;&gt;Target Outputs -->
<g id="edge16" class="edge">
<title>Bundler&#45;&gt;Target Outputs</title>
<path fill="none" stroke="black" d="M1451.1,-64.39C1458.99,-64.39 1467.81,-64.39 1476.7,-64.39"/>
<polygon fill="black" stroke="black" points="1476.71,-67.89 1486.71,-64.39 1476.71,-60.89 1476.71,-67.89"/>
</g>
</g>
</svg>
