<?xml version="1.0" encoding="UTF-8"?>
<svg xmlns="http://www.w3.org/2000/svg" viewBox="0 0 939 939" >
<defs>
<style>
:root {
  --bg: #334;
  --fg: #100720; /* #112 */
  --tint: #ff7f3f;
}
.hub { fill: #100720; stroke: #100720; }
.lower { fill: #ff7f3f; stroke: #ff7f3f; }
.upper { fill: #100720; stroke: #100720; }
</style>
</defs>
<path class="lower" d="M610.85,530.08h0c-37.53,0-70.27,20.47-87.67,50.86-8.46,14.76-13.29,31.86-13.29,50.1,0,19.45,5.5,37.61,15.03,53.02-34.84-50.97-85.11-86.18-140.82-102.96-4.17-1.25-8.36-2.4-12.58-3.45-15.69-3.89-31.74-6.34-47.94-7.29,1.52,.07,3.05,.11,4.59,.11,13.21,0,25.82-2.54,37.38-7.15,18.83-7.51,34.87-20.52,46.12-37.05,.06-.1,.13-.21,.22-.31,.33-.49,.65-.98,.98-1.48,1.05-1.58,2.13-3.16,3.24-4.72,12.93-18.4,28.37-35.3,46.17-50.15,42.31,35.34,94.52,56.35,148.59,60.48Z"/>
<path class="lower" d="M617.33,530.28c-.5-.02-1.01-.06-1.52-.08-1.65-.08-3.3-.12-4.97-.12-37.53,0-70.27,20.47-87.68,50.86-8.46,14.76-13.29,31.86-13.29,50.1,0,19.45,5.5,37.61,15.03,53.02,1.23,1.99,2.53,3.94,3.89,5.84,18.32,25.5,48.24,42.11,82.04,42.11,55.75,0,100.96-45.21,100.96-100.96s-41.74-97.42-94.48-100.76Zm-6.49,141.14c-22.3,0-40.38-18.08-40.38-40.38s18.08-40.38,40.38-40.38,40.38,18.08,40.38,40.38-18.08,40.38-40.38,40.38Z"/>
<path class="upper" d="M619.73,207.39h-.04c-2.92-.26-5.86-.39-8.84-.39s-5.76,.12-8.59,.36c0,0,0,0-.02,0-31.19,2.63-58.36,19.44-74.99,43.97-.03,.06-.07,.12-.12,.18-.36,.56-.72,1.1-1.1,1.65-.07,.13-.16,.26-.24,.38-10.06,15.71-15.9,34.38-15.9,54.42,0,18.24,4.83,35.34,13.29,50.1,17.41,30.39,50.15,50.86,87.68,50.86,1.52,0,3.03-.03,4.53-.1,.78-.04,1.57-.08,2.34-.13,.08,0,.16,0,.25-.02,52.43-3.66,93.84-47.36,93.84-100.72s-40.48-96.07-92.08-100.57Zm-8.89,140.96c-22.3,0-40.38-18.08-40.38-40.38s18.08-40.38,40.38-40.38,40.38,18.08,40.38,40.38-18.08,40.38-40.38,40.38Z"/>
<path class="upper" d="M610.85,408.92h0c-38.06,2.86-76.08,14.31-111.35,34.67-13.37,7.71-25.79,16.43-37.24,26-17.79,14.85-33.24,31.75-46.17,50.15l-.26-.15c8.46-14.76,13.29-31.86,13.29-50.1s-4.83-35.34-13.29-50.1l.18-.11c-.57-.8-1.13-1.6-1.66-2.4-1.37-2.25-2.84-4.44-4.38-6.57-11.11-15.33-26.4-27.41-44.22-34.56-11.61-4.66-24.3-7.23-37.59-7.23-1.54,0-3.08,.03-4.6,.11,16.13-.93,32.28-3.36,48.23-7.35,4.05-1.01,8.1-2.12,12.12-3.34,19-5.73,37.65-13.73,55.58-24.09,35.69-20.6,64.7-48.32,86.3-80.32-10.06,15.71-15.9,34.38-15.9,54.42,0,18.24,4.83,35.34,13.29,50.1,17.41,30.39,50.15,50.86,87.67,50.86Z"/>
<path class="hub" d="M337.04,368.92h-.04c-2.92-.26-5.86-.39-8.84-.39s-5.76,.12-8.59,.36c0,0,0,0-.02,0-31.19,2.63-58.36,19.44-74.99,43.97-.03,.06-.07,.12-.12,.18-.36,.56-.72,1.1-1.1,1.65-.07,.13-.16,.26-.24,.38-10.06,15.71-15.9,34.38-15.9,54.42,0,18.24,4.83,35.34,13.29,50.1,17.41,30.39,50.15,50.86,87.68,50.86,1.52,0,3.03-.03,4.53-.1,.78-.04,1.57-.08,2.34-.13,.08,0,.16,0,.25-.02,52.43-3.66,93.84-47.36,93.84-100.72s-40.48-96.07-92.08-100.57Zm-8.89,140.96c-22.3,0-40.38-18.08-40.38-40.38s18.08-40.38,40.38-40.38,40.38,18.08,40.38,40.38-18.08,40.38-40.38,40.38Z"/>
</svg>
