<svg class="railroad-diagram" width="625.5" height="137" viewBox="0 0 625.5 137" role="img" xmlns="http://www.w3.org/2000/svg" version="1.1" xmlns:xlink="http://www.w3.org/1999/xlink"><title>DecoratedLetBody &#58;&#61; &#34;&#64;&#34; &#40;Expr DecoratedLetBody &#124; Expr &#34;&#40;&#34; &#40;Disallowed&#58; &#40;&#41;&#41; DecoratedLetBody &#34;&#41;&#34;&#41; &#124; LetBody</title>
<style><![CDATA[
svg.railroad-diagram {
    background-color: hsl(30,20%,95%);
}
svg.railroad-diagram path {
    stroke-width: 3;
    stroke: black;
    fill: rgba(0,0,0,0);
}
svg.railroad-diagram text {
    font: bold 14px monospace;
    text-anchor: middle;
    white-space: pre;
}
svg.railroad-diagram text.diagram-text {
    font-size: 12px;
}
svg.railroad-diagram text.diagram-arrow {
    font-size: 16px;
}
svg.railroad-diagram text.label {
    text-anchor: start;
}
svg.railroad-diagram text.comment {
    font: italic 12px monospace;
}
svg.railroad-diagram g.non-terminal text {
    /*font-style: italic;*/
}
svg.railroad-diagram rect {
    stroke-width: 3;
    stroke: black;
    fill: hsl(120,100%,90%);
}
svg.railroad-diagram rect.group-box {
    stroke: gray;
    stroke-dasharray: 10 5;
    fill: none;
}
svg.railroad-diagram path.diagram-text {
    stroke-width: 3;
    stroke: black;
    fill: white;
    cursor: help;
}
svg.railroad-diagram g.diagram-text:hover path.diagram-text {
    fill: #eee;
}

]]></style>

<g transform="translate(.5 .5)">
<g>
<path d="M20 96v20m10 -20v20m-10 -10h20"></path>
</g>
<g>
<path d="M40 106h0"></path>
<path d="M585.5 106h0"></path>
<path d="M40 106a10 10 0 0 0 10 -10v-10a10 10 0 0 1 10 -10"></path>
<g>
<path d="M60 76h0"></path>
<path d="M565.5 76h0"></path>
<g class="terminal">
<path d="M60 76h0"></path>
<path d="M88.5 76h0"></path>
<rect x="60" y="65" width="28.5" height="22" rx="10" ry="10"></rect>
<text x="74.25" y="80">@</text>
</g>
<path d="M88.5 76h10"></path>
<g>
<path d="M98.5 76h0"></path>
<path d="M565.5 76h0"></path>
<path d="M98.5 76a10 10 0 0 0 10 -10v-25a10 10 0 0 1 10 -10"></path>
<g>
<path d="M118.5 31h98.5"></path>
<path d="M447 31h98.5"></path>
<g class="non-terminal">
<path d="M217 31h0"></path>
<path d="M271 31h0"></path>
<rect x="217" y="20" width="54" height="22"></rect>
<a xlink:href="/reference/syntax/#syntax-for-expr"><text x="244" y="35">Expr</text>
</a>
</g>
<path d="M271 31h10"></path>
<path d="M281 31h10"></path>
<g class="non-terminal">
<path d="M291 31h0"></path>
<path d="M447 31h0"></path>
<rect x="291" y="20" width="156" height="22"></rect>
<a xlink:href="/reference/syntax/#syntax-for-decoratedletbody"><text x="369" y="35">DecoratedLetBody</text>
</a>
</g>
</g>
<path d="M545.5 31a10 10 0 0 1 10 10v25a10 10 0 0 0 10 10"></path>
<path d="M98.5 76h20"></path>
<g>
<path d="M118.5 76h0"></path>
<path d="M545.5 76h0"></path>
<g class="non-terminal">
<path d="M118.5 76h0"></path>
<path d="M172.5 76h0"></path>
<rect x="118.5" y="65" width="54" height="22"></rect>
<a xlink:href="/reference/syntax/#syntax-for-expr"><text x="145.5" y="80">Expr</text>
</a>
</g>
<path d="M172.5 76h10"></path>
<path d="M182.5 76h10"></path>
<g class="terminal">
<path d="M192.5 76h0"></path>
<path d="M221 76h0"></path>
<rect x="192.5" y="65" width="28.5" height="22" rx="10" ry="10"></rect>
<text x="206.75" y="80">(</text>
</g>
<path d="M221 76h10"></path>
<path d="M231 76h10"></path>
<g>
<path d="M241 76h0"></path>
<path d="M321 76h0"></path>
<rect x="241" y="66" width="80" height="20" rx="10" ry="10" class="group-box"></rect>
<g>
<path d="M241 76h80"></path>
</g>
<g>
<path d="M241 58h0"></path>
<path d="M321 58h0"></path>
<text x="281" y="63" class="comment">Disallowed</text>
</g>
</g>
<path d="M321 76h10"></path>
<path d="M331 76h10"></path>
<g class="non-terminal">
<path d="M341 76h0"></path>
<path d="M497 76h0"></path>
<rect x="341" y="65" width="156" height="22"></rect>
<a xlink:href="/reference/syntax/#syntax-for-decoratedletbody"><text x="419" y="80">DecoratedLetBody</text>
</a>
</g>
<path d="M497 76h10"></path>
<path d="M507 76h10"></path>
<g class="terminal">
<path d="M517 76h0"></path>
<path d="M545.5 76h0"></path>
<rect x="517" y="65" width="28.5" height="22" rx="10" ry="10"></rect>
<text x="531.25" y="80">)</text>
</g>
</g>
<path d="M545.5 76h20"></path>
</g>
</g>
<path d="M565.5 76a10 10 0 0 1 10 10v10a10 10 0 0 0 10 10"></path>
<path d="M40 106h20"></path>
<g class="non-terminal">
<path d="M60 106h213"></path>
<path d="M352.5 106h213"></path>
<rect x="273" y="95" width="79.5" height="22"></rect>
<a xlink:href="/reference/syntax/#syntax-for-letbody"><text x="312.75" y="110">LetBody</text>
</a>
</g>
<path d="M565.5 106h20"></path>
</g>
<path d="M 585.5 106 h 20 m -10 -10 v 20 m 10 -20 v 20"></path>
</g>
</svg>
