<svg class="railroad-diagram" width="394.5" height="92" viewBox="0 0 394.5 92" role="img" xmlns="http://www.w3.org/2000/svg" version="1.1" xmlns:xlink="http://www.w3.org/1999/xlink"><title>RegularDot &#58;&#61; Expr &#40;&#34;&#46;&#34; &#124; &#34;&#63;&#46;&#34;&#41; SymbolValue&#63;</title>
<style><![CDATA[
svg.railroad-diagram {
    background-color: hsl(30,20%,95%);
}
svg.railroad-diagram path {
    stroke-width: 3;
    stroke: black;
    fill: rgba(0,0,0,0);
}
svg.railroad-diagram text {
    font: bold 14px monospace;
    text-anchor: middle;
    white-space: pre;
}
svg.railroad-diagram text.diagram-text {
    font-size: 12px;
}
svg.railroad-diagram text.diagram-arrow {
    font-size: 16px;
}
svg.railroad-diagram text.label {
    text-anchor: start;
}
svg.railroad-diagram text.comment {
    font: italic 12px monospace;
}
svg.railroad-diagram g.non-terminal text {
    /*font-style: italic;*/
}
svg.railroad-diagram rect {
    stroke-width: 3;
    stroke: black;
    fill: hsl(120,100%,90%);
}
svg.railroad-diagram rect.group-box {
    stroke: gray;
    stroke-dasharray: 10 5;
    fill: none;
}
svg.railroad-diagram path.diagram-text {
    stroke-width: 3;
    stroke: black;
    fill: white;
    cursor: help;
}
svg.railroad-diagram g.diagram-text:hover path.diagram-text {
    fill: #eee;
}

]]></style>

<g transform="translate(.5 .5)">
<g>
<path d="M20 51v20m10 -20v20m-10 -10h20"></path>
</g>
<path d="M40 61h10"></path>
<g>
<path d="M50 61h0"></path>
<path d="M344.5 61h0"></path>
<g class="non-terminal">
<path d="M50 61h0"></path>
<path d="M104 61h0"></path>
<rect x="50" y="50" width="54" height="22"></rect>
<a xlink:href="/reference/syntax/#syntax-for-expr"><text x="77" y="65">Expr</text>
</a>
</g>
<path d="M104 61h10"></path>
<g>
<path d="M114 61h0"></path>
<path d="M191 61h0"></path>
<path d="M114 61a10 10 0 0 0 10 -10v-10a10 10 0 0 1 10 -10"></path>
<g class="terminal">
<path d="M134 31h4.25"></path>
<path d="M166.75 31h4.25"></path>
<rect x="138.25" y="20" width="28.5" height="22" rx="10" ry="10"></rect>
<text x="152.5" y="35">.</text>
</g>
<path d="M171 31a10 10 0 0 1 10 10v10a10 10 0 0 0 10 10"></path>
<path d="M114 61h20"></path>
<g class="terminal">
<path d="M134 61h0"></path>
<path d="M171 61h0"></path>
<rect x="134" y="50" width="37" height="22" rx="10" ry="10"></rect>
<text x="152.5" y="65">?.</text>
</g>
<path d="M171 61h20"></path>
</g>
<g>
<path d="M191 61h0"></path>
<path d="M344.5 61h0"></path>
<path d="M191 61a10 10 0 0 0 10 -10v0a10 10 0 0 1 10 -10"></path>
<g>
<path d="M211 41h113.5"></path>
</g>
<path d="M324.5 41a10 10 0 0 1 10 10v0a10 10 0 0 0 10 10"></path>
<path d="M191 61h20"></path>
<g class="non-terminal">
<path d="M211 61h0"></path>
<path d="M324.5 61h0"></path>
<rect x="211" y="50" width="113.5" height="22"></rect>
<a xlink:href="/reference/syntax/#syntax-for-symbolvalue"><text x="267.75" y="65">SymbolValue</text>
</a>
</g>
<path d="M324.5 61h20"></path>
</g>
</g>
<path d="M344.5 61h10"></path>
<path d="M 354.5 61 h 20 m -10 -10 v 20 m 10 -20 v 20"></path>
</g>
</svg>
