<svg class="railroad-diagram" width="324.5" height="182" viewBox="0 0 324.5 182" role="img" xmlns="http://www.w3.org/2000/svg" version="1.1" xmlns:xlink="http://www.w3.org/1999/xlink"><title>LetBody &#58;&#61; &#34;let&#34; DeclName &#124; &#34;let&#34; DeclMulti &#124; &#34;let&#34; DeclMultiNamed &#124; LetBody DeclInit &#124; LetBody DeclType</title>
<style><![CDATA[
svg.railroad-diagram {
    background-color: hsl(30,20%,95%);
}
svg.railroad-diagram path {
    stroke-width: 3;
    stroke: black;
    fill: rgba(0,0,0,0);
}
svg.railroad-diagram text {
    font: bold 14px monospace;
    text-anchor: middle;
    white-space: pre;
}
svg.railroad-diagram text.diagram-text {
    font-size: 12px;
}
svg.railroad-diagram text.diagram-arrow {
    font-size: 16px;
}
svg.railroad-diagram text.label {
    text-anchor: start;
}
svg.railroad-diagram text.comment {
    font: italic 12px monospace;
}
svg.railroad-diagram g.non-terminal text {
    /*font-style: italic;*/
}
svg.railroad-diagram rect {
    stroke-width: 3;
    stroke: black;
    fill: hsl(120,100%,90%);
}
svg.railroad-diagram rect.group-box {
    stroke: gray;
    stroke-dasharray: 10 5;
    fill: none;
}
svg.railroad-diagram path.diagram-text {
    stroke-width: 3;
    stroke: black;
    fill: white;
    cursor: help;
}
svg.railroad-diagram g.diagram-text:hover path.diagram-text {
    fill: #eee;
}

]]></style>

<g transform="translate(.5 .5)">
<g>
<path d="M20 81v20m10 -20v20m-10 -10h20"></path>
</g>
<g>
<path d="M40 91h0"></path>
<path d="M284.5 91h0"></path>
<path d="M40 91a10 10 0 0 0 10 -10v-10a10 10 0 0 1 10 -10"></path>
<g>
<path d="M60 61h21.25"></path>
<path d="M243.25 61h21.25"></path>
<g class="terminal">
<path d="M81.25 61h0"></path>
<path d="M126.75 61h0"></path>
<rect x="81.25" y="50" width="45.5" height="22" rx="10" ry="10"></rect>
<text x="104" y="65">let</text>
</g>
<path d="M126.75 61h10"></path>
<path d="M136.75 61h10"></path>
<g class="non-terminal">
<path d="M146.75 61h0"></path>
<path d="M243.25 61h0"></path>
<rect x="146.75" y="50" width="96.5" height="22"></rect>
<a xlink:href="/reference/syntax/#syntax-for-declmulti"><text x="195" y="65">DeclMulti</text>
</a>
</g>
</g>
<path d="M264.5 61a10 10 0 0 1 10 10v10a10 10 0 0 0 10 10"></path>
<path d="M40 91a10 10 0 0 0 10 -10v-40a10 10 0 0 1 10 -10"></path>
<g>
<path d="M60 31h25.5"></path>
<path d="M239 31h25.5"></path>
<g class="terminal">
<path d="M85.5 31h0"></path>
<path d="M131 31h0"></path>
<rect x="85.5" y="20" width="45.5" height="22" rx="10" ry="10"></rect>
<text x="108.25" y="35">let</text>
</g>
<path d="M131 31h10"></path>
<path d="M141 31h10"></path>
<g class="non-terminal">
<path d="M151 31h0"></path>
<path d="M239 31h0"></path>
<rect x="151" y="20" width="88" height="22"></rect>
<a xlink:href="/reference/syntax/#syntax-for-declname"><text x="195" y="35">DeclName</text>
</a>
</g>
</g>
<path d="M264.5 31a10 10 0 0 1 10 10v40a10 10 0 0 0 10 10"></path>
<path d="M40 91h20"></path>
<g>
<path d="M60 91h0"></path>
<path d="M264.5 91h0"></path>
<g class="terminal">
<path d="M60 91h0"></path>
<path d="M105.5 91h0"></path>
<rect x="60" y="80" width="45.5" height="22" rx="10" ry="10"></rect>
<text x="82.75" y="95">let</text>
</g>
<path d="M105.5 91h10"></path>
<path d="M115.5 91h10"></path>
<g class="non-terminal">
<path d="M125.5 91h0"></path>
<path d="M264.5 91h0"></path>
<rect x="125.5" y="80" width="139" height="22"></rect>
<a xlink:href="/reference/syntax/#syntax-for-declmultinamed"><text x="195" y="95">DeclMultiNamed</text>
</a>
</g>
</g>
<path d="M264.5 91h20"></path>
<path d="M40 91a10 10 0 0 1 10 10v10a10 10 0 0 0 10 10"></path>
<g>
<path d="M60 121h8.5"></path>
<path d="M256 121h8.5"></path>
<g class="non-terminal">
<path d="M68.5 121h0"></path>
<path d="M148 121h0"></path>
<rect x="68.5" y="110" width="79.5" height="22"></rect>
<a xlink:href="/reference/syntax/#syntax-for-letbody"><text x="108.25" y="125">LetBody</text>
</a>
</g>
<path d="M148 121h10"></path>
<path d="M158 121h10"></path>
<g class="non-terminal">
<path d="M168 121h0"></path>
<path d="M256 121h0"></path>
<rect x="168" y="110" width="88" height="22"></rect>
<a xlink:href="/reference/syntax/#syntax-for-declinit"><text x="212" y="125">DeclInit</text>
</a>
</g>
</g>
<path d="M264.5 121a10 10 0 0 0 10 -10v-10a10 10 0 0 1 10 -10"></path>
<path d="M40 91a10 10 0 0 1 10 10v40a10 10 0 0 0 10 10"></path>
<g>
<path d="M60 151h8.5"></path>
<path d="M256 151h8.5"></path>
<g class="non-terminal">
<path d="M68.5 151h0"></path>
<path d="M148 151h0"></path>
<rect x="68.5" y="140" width="79.5" height="22"></rect>
<a xlink:href="/reference/syntax/#syntax-for-letbody"><text x="108.25" y="155">LetBody</text>
</a>
</g>
<path d="M148 151h10"></path>
<path d="M158 151h10"></path>
<g class="non-terminal">
<path d="M168 151h0"></path>
<path d="M256 151h0"></path>
<rect x="168" y="140" width="88" height="22"></rect>
<a xlink:href="/reference/syntax/#syntax-for-decltype"><text x="212" y="155">DeclType</text>
</a>
</g>
</g>
<path d="M264.5 151a10 10 0 0 0 10 -10v-40a10 10 0 0 1 10 -10"></path>
</g>
<path d="M 284.5 91 h 20 m -10 -10 v 20 m 10 -20 v 20"></path>
</g>
</svg>
