<svg class="railroad-diagram" width="436" height="71" viewBox="0 0 436 71" role="img" xmlns="http://www.w3.org/2000/svg" version="1.1" xmlns:xlink="http://www.w3.org/1999/xlink"><title>JsonString &#58;&#61; &#34;&#40;&#34; &#34;&#92;u0022&#34; ContentChars&#63; &#34;&#92;u0022&#34; &#34;&#41;&#34;</title>
<style><![CDATA[
svg.railroad-diagram {
    background-color: hsl(30,20%,95%);
}
svg.railroad-diagram path {
    stroke-width: 3;
    stroke: black;
    fill: rgba(0,0,0,0);
}
svg.railroad-diagram text {
    font: bold 14px monospace;
    text-anchor: middle;
    white-space: pre;
}
svg.railroad-diagram text.diagram-text {
    font-size: 12px;
}
svg.railroad-diagram text.diagram-arrow {
    font-size: 16px;
}
svg.railroad-diagram text.label {
    text-anchor: start;
}
svg.railroad-diagram text.comment {
    font: italic 12px monospace;
}
svg.railroad-diagram g.non-terminal text {
    /*font-style: italic;*/
}
svg.railroad-diagram rect {
    stroke-width: 3;
    stroke: black;
    fill: hsl(120,100%,90%);
}
svg.railroad-diagram rect.group-box {
    stroke: gray;
    stroke-dasharray: 10 5;
    fill: none;
}
svg.railroad-diagram path.diagram-text {
    stroke-width: 3;
    stroke: black;
    fill: white;
    cursor: help;
}
svg.railroad-diagram g.diagram-text:hover path.diagram-text {
    fill: #eee;
}

]]></style>

<g transform="translate(.5 .5)">
<g>
<path d="M20 30v20m10 -20v20m-10 -10h20"></path>
</g>
<path d="M40 40h10"></path>
<g>
<path d="M50 40h0"></path>
<path d="M386 40h0"></path>
<g class="terminal">
<path d="M50 40h0"></path>
<path d="M78.5 40h0"></path>
<rect x="50" y="29" width="28.5" height="22" rx="10" ry="10"></rect>
<text x="64.25" y="44">(</text>
</g>
<path d="M78.5 40h10"></path>
<path d="M88.5 40h10"></path>
<g class="terminal">
<path d="M98.5 40h0"></path>
<path d="M127 40h0"></path>
<rect x="98.5" y="29" width="28.5" height="22" rx="10" ry="10"></rect>
<text x="112.75" y="44">"</text>
</g>
<path d="M127 40h10"></path>
<g>
<path d="M137 40h0"></path>
<path d="M299 40h0"></path>
<path d="M137 40a10 10 0 0 0 10 -10v0a10 10 0 0 1 10 -10"></path>
<g>
<path d="M157 20h122"></path>
</g>
<path d="M279 20a10 10 0 0 1 10 10v0a10 10 0 0 0 10 10"></path>
<path d="M137 40h20"></path>
<g class="non-terminal">
<path d="M157 40h0"></path>
<path d="M279 40h0"></path>
<rect x="157" y="29" width="122" height="22"></rect>
<text x="218" y="44">ContentChars</text>
</g>
<path d="M279 40h20"></path>
</g>
<path d="M299 40h10"></path>
<g class="terminal">
<path d="M309 40h0"></path>
<path d="M337.5 40h0"></path>
<rect x="309" y="29" width="28.5" height="22" rx="10" ry="10"></rect>
<text x="323.25" y="44">"</text>
</g>
<path d="M337.5 40h10"></path>
<path d="M347.5 40h10"></path>
<g class="terminal">
<path d="M357.5 40h0"></path>
<path d="M386 40h0"></path>
<rect x="357.5" y="29" width="28.5" height="22" rx="10" ry="10"></rect>
<text x="371.75" y="44">)</text>
</g>
</g>
<path d="M386 40h10"></path>
<path d="M 396 40 h 20 m -10 -10 v 20 m 10 -20 v 20"></path>
</g>
</svg>
